<svg width="437" height="437" viewBox="0 0 437 437" fill="none" xmlns="http://www.w3.org/2000/svg">
<path d="M153.404 283.11L161.265 209.939C161.53 207.527 160.881 205.298 159.448 203.69C158.016 202.083 155.902 201.214 153.523 201.254C151.145 201.295 148.675 202.242 146.6 203.91C144.525 205.577 142.996 207.844 142.313 210.263L141.964 212L131.561 309.336L131.658 310.944L131.932 312.034L132.412 313.209L132.58 313.528C132.892 314.065 133.269 314.553 133.705 314.985L132.879 314.008L133.211 314.431L134.246 315.466L135.52 316.286L136.589 316.751L138.119 317.072L139.802 317.094L236.678 306.713C239.088 306.459 241.511 305.311 243.467 303.495C245.424 301.679 246.773 299.327 247.248 296.902C247.724 294.477 247.291 292.155 246.036 290.394C244.78 288.633 242.793 287.561 240.466 287.388L238.738 287.412L165.591 295.298L230.432 230.433C283.638 177.227 295.276 117.472 262.654 81.4964L260.194 78.9157C258.58 77.3011 256.235 76.5484 253.677 76.8233C251.119 77.0981 248.556 78.378 246.553 80.3812C244.55 82.3845 243.27 84.9471 242.995 87.5053C242.72 90.0635 243.473 92.4077 245.088 94.0223C272.763 121.697 265.323 168.853 222.166 214.251L218.257 218.257L153.404 283.11Z" fill="#FF9430"/>
</svg>
