<svg width="142" height="141" viewBox="0 0 142 141" fill="none" xmlns="http://www.w3.org/2000/svg">
<rect width="142" height="141" fill="#B6B6B6"/>
<g id="Register">
<path d="M-3974 -548C-3974 -549.105 -3973.1 -550 -3972 -550H10558C10559.1 -550 10560 -549.105 10560 -548V4712C10560 4713.1 10559.1 4714 10558 4714H-3972C-3973.1 4714 -3974 4713.1 -3974 4712V-548Z" fill="white"/>
<path d="M-3972 -549H10558V-551H-3972V-549ZM10559 -548V4712H10561V-548H10559ZM10558 4713H-3972V4715H10558V4713ZM-3973 4712V-548H-3975V4712H-3973ZM-3972 4713C-3972.55 4713 -3973 4712.55 -3973 4712H-3975C-3975 4713.66 -3973.66 4715 -3972 4715V4713ZM10559 4712C10559 4712.55 10558.6 4713 10558 4713V4715C10559.7 4715 10561 4713.66 10561 4712H10559ZM10558 -549C10558.6 -549 10559 -548.552 10559 -548H10561C10561 -549.657 10559.7 -551 10558 -551V-549ZM-3972 -551C-3973.66 -551 -3975 -549.657 -3975 -548H-3973C-3973 -548.552 -3972.55 -549 -3972 -549V-551Z" fill="black" fill-opacity="0.1"/>
<g id="Frame 39717">
<g id="Confirmation page">
<g clip-path="url(#clip0_661_8202)">
<rect x="-649" y="-447" width="1440" height="1536" fill="white"/>
<g id="Frame 39753">
<g id="Frame 39610">
<g id="Frame" clip-path="url(#clip1_661_8202)">
<path id="Vector" d="M18.125 70.5C18.125 77.4436 19.4927 84.3193 22.1499 90.7344C24.8071 97.1495 28.7018 102.978 33.6117 107.888C38.5216 112.798 44.3505 116.693 50.7656 119.35C57.1807 122.007 64.0564 123.375 71 123.375C77.9436 123.375 84.8193 122.007 91.2344 119.35C97.6495 116.693 103.478 112.798 108.388 107.888C113.298 102.978 117.193 97.1495 119.85 90.7344C122.507 84.3193 123.875 77.4436 123.875 70.5C123.875 63.5564 122.507 56.6807 119.85 50.2656C117.193 43.8505 113.298 38.0216 108.388 33.1117C103.478 28.2018 97.6495 24.3071 91.2344 21.6499C84.8193 18.9927 77.9436 17.625 71 17.625C64.0564 17.625 57.1807 18.9927 50.7656 21.6499C44.3505 24.3071 38.5216 28.2018 33.6117 33.1117C28.7018 38.0216 24.8071 43.8505 22.1499 50.2656C19.4927 56.6807 18.125 63.5564 18.125 70.5Z" stroke="#9E9EA6" stroke-width="6.25" stroke-linecap="round" stroke-linejoin="round"/>
<path id="Vector_2" d="M53.375 70.5L65.125 82.25L88.625 58.75" stroke="#9E9EA6" stroke-width="6.25" stroke-linecap="round" stroke-linejoin="round"/>
</g>
</g>
</g>
</g>
<rect x="-650.5" y="-448.5" width="1443" height="1539" stroke="black" stroke-width="3"/>
</g>
</g>
</g>
<defs>
<clipPath id="clip0_661_8202">
<rect x="-649" y="-447" width="1440" height="1536" fill="white"/>
</clipPath>
<clipPath id="clip1_661_8202">
<rect width="141" height="141" fill="white" transform="translate(0.5)"/>
</clipPath>
</defs>
</svg>
