<svg xmlns="http://www.w3.org/2000/svg" width="140" height="140" viewBox="0 0 140 140" fill="none">
<g clip-path="url(#clip0_4153_11328)">
<path d="M25 70C25 75.9095 26.164 81.7611 28.4254 87.2208C30.6869 92.6804 34.0016 97.6412 38.1802 101.82C42.3588 105.998 47.3196 109.313 52.7792 111.575C58.2389 113.836 64.0905 115 70 115C75.9095 115 81.7611 113.836 87.2208 111.575C92.6804 109.313 97.6412 105.998 101.82 101.82C105.998 97.6412 109.313 92.6804 111.575 87.2208C113.836 81.7611 115 75.9095 115 70C115 64.0905 113.836 58.2389 111.575 52.7792C109.313 47.3196 105.998 42.3588 101.82 38.1802C97.6412 34.0016 92.6804 30.6869 87.2208 28.4254C81.7611 26.164 75.9095 25 70 25C64.0905 25 58.2389 26.164 52.7792 28.4254C47.3196 30.6869 42.3588 34.0016 38.1802 38.1802C34.0016 42.3588 30.6869 47.3196 28.4254 52.7792C26.164 58.2389 25 64.0905 25 70Z" stroke="#CB2323" stroke-width="6.25" stroke-linecap="round" stroke-linejoin="round"/>
<path d="M58 81.6654L81.3333 58.332" stroke="#CB2323" stroke-width="6.25" stroke-linecap="round" stroke-linejoin="round"/>
<path d="M81.3333 81.332L58 57.9987" stroke="#CB2323" stroke-width="6.25" stroke-linecap="round" stroke-linejoin="round"/>
</g>
<defs>
<clipPath id="clip0_4153_11328">
<rect width="140" height="140" fill="white"/>
</clipPath>
</defs>
</svg>