<svg xmlns="http://www.w3.org/2000/svg" width="170" height="73" viewBox="0 0 170 73" fill="none">
<path d="M40.5886 5.40235V0.439453H35.6288C32.8986 0.439453 30.6689 2.67048 30.6689 5.40235C30.6689 8.13421 32.8986 10.3652 35.6288 10.3652C38.359 10.3652 40.5886 8.13421 40.5886 5.40235Z" fill="#FB9266"/>
<path d="M94.1464 72.5608C95.375 72.5608 96.4216 72.1965 97.3317 71.468C98.8333 71.4225 100.107 71.1493 101.108 70.6485C102.11 70.1476 103.202 69.2825 104.294 67.9621C104.749 67.4613 104.931 66.7783 104.931 65.9587C104.931 65.5034 104.885 65.1392 104.703 64.9115C104.521 64.6839 104.294 64.5473 103.975 64.5473C103.657 64.5473 103.338 64.7294 103.065 65.0026C101.563 66.7783 100.289 67.8255 99.1973 68.2353C99.2428 67.8711 99.2428 67.5523 99.2428 67.3247C99.2428 66.5962 99.0608 65.8677 98.6968 65.2303C98.3327 64.6384 97.7412 63.8643 97.0586 62.9537C96.5581 62.3618 96.2396 61.9065 95.9666 61.4967C95.7391 61.1325 95.6025 60.7682 95.6025 60.4495C95.6025 59.9031 95.7846 59.2657 96.1941 58.4916C96.3761 58.2185 96.4671 57.9453 96.5581 57.6721C96.6491 57.3989 96.6946 57.1712 96.6946 57.0802C96.6946 56.8525 96.5581 56.6704 96.3306 56.5794C96.1031 56.4883 95.648 56.3972 95.011 56.3972C93.6459 56.3972 92.7813 56.8981 92.3718 57.8087C91.8713 58.947 91.3707 59.9942 90.8702 60.9959C90.3697 62.0431 89.9146 62.8626 89.5051 63.5001C88.8681 64.4107 87.958 65.64 86.7294 67.097L86.2744 67.5979C85.9558 67.9621 85.8193 68.3719 85.8193 68.7817C85.8193 69.1459 85.9103 69.4646 86.1379 69.6923C86.3654 69.9655 86.6384 70.0565 87.0024 70.0565C87.4575 70.0565 87.867 69.8744 88.2765 69.4646C89.0956 68.7362 89.8236 67.9166 90.5062 67.097C91.1887 66.2775 91.8713 65.2303 92.5538 63.9554C92.8724 64.3196 93.1909 64.6839 93.5549 65.1392C93.9189 65.64 94.2374 66.0954 94.465 66.5962C94.6925 67.097 94.7835 67.5979 94.829 68.1442C94.647 68.0987 94.3285 68.0987 93.9644 68.0076C93.5549 67.9621 93.2364 67.9621 92.9178 67.9621C92.0988 67.9621 91.4617 68.1442 91.0522 68.554C90.5972 68.9638 90.4152 69.4647 90.4152 70.011C90.4152 70.6485 90.7337 71.2404 91.3707 71.7412C92.0988 72.2876 92.9634 72.5608 94.1464 72.5608ZM120.038 61.8609C119.901 61.8609 119.719 61.9065 119.583 61.9065C118.127 62.2707 116.853 62.4984 115.806 62.5439C115.624 60.9048 115.032 59.4933 113.986 58.4006C112.939 57.2623 111.574 56.7615 109.845 56.7615C108.48 56.7615 107.206 57.1257 106.068 57.8087C104.931 58.5372 104.021 59.5389 103.384 60.7682C102.747 62.0431 102.428 63.5001 102.428 65.0937C102.428 66.2775 102.656 67.4158 103.156 68.4174C103.657 69.4191 104.385 70.2842 105.34 70.8761C106.296 71.468 107.433 71.7867 108.753 71.7867C110.346 71.7867 111.756 71.2404 113.03 70.1476C114.259 69.1004 115.123 67.6434 115.533 65.8677C117.126 65.8222 118.627 65.549 119.992 65.0937C120.629 64.9115 120.948 64.2741 120.948 63.2724C120.948 62.8626 120.902 62.4984 120.72 62.2252C120.538 61.9975 120.356 61.8609 120.038 61.8609ZM109.026 68.463C108.389 68.463 107.797 68.1442 107.342 67.5523C106.842 66.9604 106.614 66.0498 106.614 64.866C106.614 63.3635 106.933 62.2252 107.524 61.4056C108.116 60.5861 108.844 60.1763 109.754 60.1763H109.936C109.891 60.5406 109.845 60.8593 109.845 61.178C109.845 61.9975 110.027 62.726 110.437 63.5001C110.801 64.2286 111.301 64.8205 112.029 65.2758C111.847 66.323 111.483 67.1426 110.983 67.6889C110.391 68.1442 109.754 68.463 109.026 68.463ZM125.18 71.8323C126.545 71.8323 127.955 71.468 129.457 70.8306C130.913 70.1476 132.187 69.237 133.234 68.0076C133.689 67.5068 133.871 66.8238 133.871 66.0043C133.871 65.549 133.825 65.1847 133.643 64.9571C133.461 64.6839 133.234 64.5928 132.915 64.5928C132.597 64.5928 132.278 64.7749 132.005 65.0481C130.959 66.2319 129.912 67.097 128.865 67.6889C127.773 68.2808 126.772 68.5996 125.862 68.5996C123.633 68.5996 122.449 67.3702 122.449 64.9115C122.449 64.0009 122.586 63.1814 122.859 62.4529C123.132 61.7244 123.496 61.1325 123.951 60.6772C124.406 60.2674 124.907 60.0397 125.407 60.0397C125.68 60.0397 125.862 60.0852 126.044 60.2674C126.181 60.4495 126.226 60.6316 126.226 60.9048C126.226 61.178 126.181 61.4967 126.044 61.8154C125.999 61.9065 125.999 62.0431 125.953 62.2252C125.908 62.4073 125.908 62.5895 125.908 62.726C125.908 63.0903 126.044 63.3179 126.317 63.5456C126.545 63.7277 126.909 63.8188 127.318 63.8188C128.001 63.8188 128.547 63.5001 128.956 62.9082C129.366 62.3163 129.548 61.5422 129.548 60.6316C129.548 59.5389 129.229 58.6283 128.547 57.9453C127.819 57.2623 126.909 56.9436 125.635 56.9436C124.406 56.9436 123.178 57.3078 122.04 57.9908C120.902 58.6738 119.947 59.6755 119.264 60.9959C118.536 62.3163 118.172 63.8188 118.172 65.549C118.172 67.5068 118.764 69.0093 120.038 70.1931C121.266 71.2404 122.996 71.8323 125.18 71.8323ZM135.918 71.8323C137.83 71.8323 139.923 70.5574 142.152 67.9621C142.607 67.4613 142.789 66.8238 142.789 65.9587C142.789 65.5034 142.744 65.1392 142.562 64.9115C142.38 64.6839 142.152 64.5473 141.834 64.5473C141.515 64.5473 141.197 64.7294 140.924 65.0026C139.923 66.1409 139.104 67.006 138.512 67.5068C137.921 68.0532 137.42 68.3264 137.011 68.3264C136.555 68.3264 136.282 68.1442 136.1 67.8255C135.918 67.4613 135.827 67.006 135.827 66.3685C135.827 65.549 136.1 63.9554 136.646 61.5878C137.102 59.6299 137.284 58.4461 137.284 57.8998C137.284 57.1713 136.692 56.807 135.554 56.807C134.826 56.807 134.28 56.9436 133.962 57.1713C133.643 57.3989 133.37 57.8998 133.143 58.5827C132.733 59.9031 132.415 61.269 132.187 62.7716C131.914 64.2741 131.778 65.5034 131.778 66.4596C131.778 68.0987 132.096 69.3736 132.779 70.3753C133.416 71.377 134.462 71.8323 135.918 71.8323ZM144.837 71.8323C146.612 71.8323 148.068 70.9216 149.251 69.1459C149.569 69.9655 150.024 70.6029 150.661 71.1038C151.253 71.6046 151.936 71.8323 152.664 71.8323C153.619 71.8323 154.62 71.468 155.667 70.694C156.713 69.9655 157.669 69.0549 158.579 67.9621C159.034 67.4613 159.216 66.8238 159.216 65.9587C159.216 65.5034 159.171 65.1392 158.989 64.9115C158.807 64.6839 158.579 64.5473 158.261 64.5473C157.942 64.5473 157.623 64.7294 157.35 65.0026C156.304 66.1864 155.485 67.006 154.893 67.5068C154.302 68.0532 153.801 68.3264 153.346 68.3264C153.073 68.3264 152.891 68.2353 152.709 68.0532C152.527 67.8711 152.436 67.5979 152.436 67.2792C152.436 66.323 152.709 64.6384 153.21 62.1797C153.528 60.495 153.71 59.4478 153.71 58.9925C153.71 58.264 153.164 57.8542 152.072 57.8542C151.572 57.8542 151.071 57.8997 150.57 57.9908C150.479 57.49 150.343 57.1713 150.161 56.9891C149.979 56.807 149.66 56.7159 149.16 56.7159C147.613 56.7159 146.157 57.1713 144.792 58.0819C143.426 58.9925 142.289 60.2674 141.47 61.7699C140.651 63.318 140.241 64.9115 140.241 66.6417C140.241 68.1898 140.651 69.4646 141.47 70.4208C142.289 71.377 143.472 71.8323 144.837 71.8323ZM146.066 68.5996C145.565 68.5996 145.201 68.4174 144.928 68.0987C144.61 67.78 144.473 67.2791 144.473 66.6417C144.473 65.4579 144.701 64.3196 145.201 63.2724C145.656 62.2252 146.293 61.3601 147.112 60.6772C147.886 60.0397 148.75 59.721 149.706 59.6755L148.477 65.5945C148.295 66.5051 147.931 67.2336 147.522 67.78C147.021 68.3264 146.566 68.5996 146.066 68.5996ZM166.906 67.1881C166.497 67.5523 166.087 67.78 165.587 68.0076C165.086 68.2353 164.631 68.3264 164.267 68.3264C163.539 68.3264 163.038 68.1443 162.629 67.7345C162.219 67.3702 161.946 66.7328 161.81 65.8677C164.312 62.5895 166.36 59.3112 167.816 55.9419C169.272 52.5726 170 49.6586 170 47.1089C170 45.3332 169.682 43.9672 169.09 43.0111C168.453 42.1005 167.589 41.5996 166.542 41.5996C164.631 41.5996 162.993 42.7834 161.628 45.1966C160.263 47.6097 159.216 50.4326 158.488 53.7564C157.76 57.0802 157.396 60.0397 157.396 62.635C157.396 65.3668 157.897 67.5523 158.898 69.237C159.853 70.9216 161.446 71.7867 163.584 71.7867C165.086 71.7867 166.36 71.3314 167.543 70.4208C168.226 69.8744 168.544 69.1915 168.544 68.2808C168.544 67.8711 168.499 67.5068 168.317 67.2336C168.135 66.9604 167.907 66.8238 167.634 66.8238C167.407 66.8694 167.134 66.9604 166.906 67.1881ZM165.814 44.7868C166.451 44.7868 166.77 45.6064 166.77 47.1999C166.77 49.2944 166.315 51.5254 165.359 54.0296C164.403 56.5338 163.129 59.038 161.582 61.5422C161.628 59.1291 161.901 56.6249 162.401 53.9841C162.902 51.3433 163.493 49.1578 164.13 47.3821C164.677 45.6974 165.314 44.7868 165.814 44.7868Z" fill="#FB9266"/>
<path d="M138.512 53.8931C137.92 54.3939 137.147 54.6671 136.191 54.6671C135.236 54.6671 134.553 54.4395 134.098 53.9841C133.598 53.5744 133.37 52.9825 133.37 52.254C133.37 51.5255 133.689 50.888 134.326 50.3872C134.917 49.9319 135.691 49.6587 136.601 49.6587C137.42 49.6587 138.102 49.8863 138.603 50.2506C139.104 50.6604 139.377 51.2067 139.377 51.8897C139.377 52.7548 139.104 53.3922 138.512 53.8931Z" fill="#FB9266"/>
<path d="M19.1569 6.3585C19.9304 6.3585 20.8405 6.49509 21.8871 6.76828C22.7516 6.9504 23.2977 7.04146 23.4797 7.04146C24.2532 7.04146 24.8903 6.76828 25.4818 6.17637C26.0279 5.58447 26.3009 4.85597 26.3009 3.94535C26.3009 2.76154 25.6638 1.89645 24.4352 1.30455C23.2067 0.712644 21.7505 0.439453 20.1124 0.439453C16.1536 0.439453 13.1504 1.39561 10.9663 3.35345C8.82762 5.31128 7.73555 7.95209 7.73555 11.2303V16.1932H3.27623C2.36616 16.1932 1.5926 16.4664 0.955557 17.0583C0.318512 17.6502 0 18.3787 0 19.2893C0 20.1999 0.318512 20.9285 0.955557 21.4748C1.5926 22.0212 2.36616 22.3399 3.27623 22.3399H7.73555V49.1577C7.73555 50.1139 8.05407 50.8879 8.69111 51.5709C9.32816 52.2083 10.1472 52.5726 11.1028 52.5726C12.1039 52.5726 12.9229 52.2538 13.6055 51.5709C14.2425 50.9334 14.561 50.1139 14.561 49.1577V22.3399H34.2184C35.174 22.3399 35.9476 22.0667 36.5391 21.4748C37.1307 20.9285 37.4492 20.1999 37.4492 19.2893C37.4492 18.3787 37.1307 17.6502 36.5391 17.0583C35.9476 16.4664 35.174 16.1932 34.2184 16.1932H14.561V11.2303C14.561 9.8644 14.9251 8.72612 15.6986 7.76996C16.4267 6.85934 17.5642 6.3585 19.1569 6.3585ZM37.5857 49.1577V19.6536C37.5857 18.6974 37.2672 17.9234 36.6301 17.2404C35.9931 16.603 35.174 16.2387 34.1274 16.2387C33.1719 16.2387 32.3528 16.5575 31.7158 17.2404C31.0787 17.8779 30.7602 18.6974 30.7602 19.6536V49.1577C30.7602 50.1139 31.0787 50.8879 31.7158 51.5709C32.3528 52.2083 33.1719 52.5726 34.1274 52.5726C35.1285 52.5726 35.9476 52.2538 36.6301 51.5709C37.2672 50.8879 37.5857 50.1139 37.5857 49.1577ZM76.855 15.0549C75.8539 15.0549 75.0349 15.3737 74.3978 16.0566C73.7608 16.6941 73.4423 17.5592 73.4423 18.5153V20.7919C72.1682 19.1072 70.348 17.6502 68.0729 16.4664C65.7977 15.2826 63.3405 14.6907 60.7013 14.6907C57.4251 14.6907 54.4674 15.5103 51.7372 17.1494C49.007 18.7885 46.8683 21.1106 45.3212 24.0246C43.7741 26.9841 43.0006 30.2623 43.0006 33.9503C43.0006 37.6384 43.7741 40.9166 45.3212 43.8761C46.8683 46.8356 49.0525 49.1122 51.7827 50.7513C54.5129 52.3904 57.5616 53.21 60.8378 53.21C63.477 53.21 65.9797 52.5726 68.3459 51.2522C70.7121 49.9318 72.3957 48.3382 73.4423 46.5169V50.3415C73.4423 53.4832 73.6698 57.581 71.8496 61.0413C70.257 64.0464 65.3882 65.5034 61.5659 65.5034C59.4272 65.5034 56.424 64.7749 52.5563 63.3179C51.8282 63.0447 51.1457 62.9081 50.5541 62.9081C49.3255 62.9081 48.4155 63.5 47.8694 64.6838C47.6874 65.1391 47.5964 65.5489 47.5964 65.8221C47.5964 66.9604 48.3245 67.871 49.8261 68.645C50.5541 69.3735 52.1922 70.011 54.7404 70.6939C57.2886 71.3314 59.5638 71.6956 61.4749 71.6956C65.0241 71.6956 68.2094 71.1037 71.0306 69.8744C73.8518 68.645 76.1269 66.7327 77.7651 64.183C79.4032 61.6332 80.2677 53.3921 80.2677 49.613V18.5608C80.2677 17.5136 79.9492 16.6941 79.3122 16.0566C78.6751 15.3737 77.8561 15.0549 76.855 15.0549ZM61.6569 47.0178C59.3363 47.0178 57.2886 46.4714 55.4685 45.3331C53.6483 44.1948 52.2377 42.6468 51.1912 40.6434C50.1446 38.64 49.644 36.409 49.644 33.9503C49.644 31.4917 50.1446 29.2606 51.1912 27.2573C52.2377 25.2539 53.6483 23.7058 55.4685 22.5676C57.2886 21.4293 59.3363 20.8829 61.6569 20.8829C64.0231 20.8829 66.1162 21.4293 67.9364 22.5676C69.7565 23.7058 71.1671 25.2539 72.2137 27.2117C73.2602 29.1696 73.7608 31.4461 73.7608 33.9048C73.7608 36.409 73.2602 38.64 72.2137 40.6434C71.1671 42.6468 69.7565 44.1948 67.9364 45.2876C66.1162 46.4714 64.0231 47.0178 61.6569 47.0178Z" fill="#0067BE"/>
<path d="M124.679 33.9959V14.7817H105.477C94.8745 14.7817 86.2744 23.3871 86.2744 33.9959C86.2744 44.6046 94.8745 53.21 105.477 53.21C116.079 53.2555 124.679 44.6501 124.679 33.9959ZM118.218 33.9959C118.218 41.0532 112.484 46.7446 105.477 46.7446C98.4238 46.7446 92.7359 41.0077 92.7359 33.9959C92.7359 26.9841 98.4693 21.2472 105.477 21.2472H118.309L118.218 33.9959Z" fill="#0067BE"/>
</svg>