<svg xmlns="http://www.w3.org/2000/svg" width="202" height="86" viewBox="0 0 202 86" fill="none">
<path d="M48.2293 5.91794V0H42.3359C39.0917 0 36.4424 2.66036 36.4424 5.91794C36.4424 9.17552 39.0917 11.8359 42.3359 11.8359C45.58 11.8359 48.2293 9.17552 48.2293 5.91794Z" fill="white"/>
<path d="M111.867 86.0003C113.327 86.0003 114.571 85.5659 115.652 84.6972C117.436 84.6429 118.95 84.3172 120.14 83.72C121.329 83.1228 122.627 82.0912 123.925 80.5167C124.465 79.9195 124.681 79.1051 124.681 78.1278C124.681 77.5849 124.627 77.1505 124.411 76.8791C124.195 76.6076 123.925 76.4447 123.546 76.4447C123.168 76.4447 122.789 76.6619 122.465 76.9876C120.68 79.1051 119.166 80.3538 117.869 80.8424C117.923 80.4081 117.923 80.028 117.923 79.7566C117.923 78.8879 117.707 78.0192 117.274 77.2591C116.842 76.5533 116.139 75.6303 115.328 74.5445C114.733 73.8387 114.354 73.2957 114.03 72.8071C113.76 72.3727 113.597 71.9384 113.597 71.5584C113.597 70.9068 113.814 70.1467 114.3 69.2237C114.517 68.898 114.625 68.5722 114.733 68.2465C114.841 67.9207 114.895 67.6492 114.895 67.5407C114.895 67.2692 114.733 67.052 114.463 66.9435C114.192 66.8349 113.651 66.7263 112.895 66.7263C111.272 66.7263 110.245 67.3235 109.759 68.4094C109.164 69.7667 108.569 71.0154 107.974 72.2099C107.38 73.4586 106.839 74.4359 106.352 75.196C105.595 76.2818 104.514 77.7477 103.054 79.4851L102.513 80.0823C102.135 80.5167 101.973 81.0053 101.973 81.494C101.973 81.9283 102.081 82.3084 102.351 82.5798C102.621 82.9056 102.946 83.0142 103.378 83.0142C103.919 83.0142 104.406 82.797 104.892 82.3084C105.866 81.4397 106.731 80.4624 107.542 79.4851C108.353 78.5078 109.164 77.2591 109.975 75.7389C110.353 76.1732 110.732 76.6076 111.164 77.1505C111.597 77.7477 111.975 78.2907 112.246 78.8879C112.516 79.4851 112.624 80.0823 112.678 80.7339C112.462 80.6796 112.083 80.6796 111.651 80.571C111.164 80.5167 110.786 80.5167 110.407 80.5167C109.434 80.5167 108.677 80.7339 108.191 81.2225C107.65 81.7111 107.434 82.3084 107.434 82.9599C107.434 83.72 107.812 84.4258 108.569 85.023C109.434 85.6745 110.461 86.0003 111.867 86.0003ZM142.632 73.2414C142.47 73.2414 142.254 73.2957 142.092 73.2957C140.361 73.7301 138.847 74.0015 137.604 74.0558C137.388 72.1013 136.685 70.4182 135.441 69.1152C134.198 67.7578 132.575 67.1606 130.521 67.1606C128.899 67.1606 127.385 67.595 126.033 68.4094C124.681 69.278 123.6 70.4725 122.843 71.9384C122.086 73.4586 121.708 75.196 121.708 77.0962C121.708 78.5078 121.978 79.8652 122.573 81.0596C123.168 82.2541 124.033 83.2856 125.168 83.9914C126.304 84.6973 127.655 85.0773 129.223 85.0773C131.116 85.0773 132.792 84.4258 134.306 83.1227C135.766 81.874 136.793 80.1366 137.279 78.0192C139.172 77.9649 140.956 77.6392 142.578 77.0962C143.335 76.8791 143.714 76.119 143.714 74.9245C143.714 74.4359 143.66 74.0015 143.443 73.6758C143.227 73.4043 143.011 73.2414 142.632 73.2414ZM129.548 81.1139C128.791 81.1139 128.088 80.7339 127.547 80.028C126.952 79.3222 126.682 78.2364 126.682 76.8248C126.682 75.0331 127.06 73.6758 127.763 72.6985C128.466 71.7212 129.331 71.2326 130.413 71.2326H130.629C130.575 71.6669 130.521 72.047 130.521 72.427C130.521 73.4043 130.737 74.273 131.224 75.196C131.656 76.0647 132.251 76.7705 133.116 77.3134C132.9 78.5621 132.467 79.5394 131.873 80.1909C131.17 80.7339 130.413 81.1139 129.548 81.1139ZM148.742 85.1316C150.364 85.1316 152.04 84.6972 153.824 83.9371C155.555 83.1227 157.069 82.0369 158.312 80.571C158.853 79.9738 159.069 79.1594 159.069 78.1821C159.069 77.6392 159.015 77.2048 158.799 76.9334C158.582 76.6076 158.312 76.499 157.934 76.499C157.555 76.499 157.177 76.7162 156.852 77.0419C155.609 78.4535 154.365 79.4851 153.122 80.1909C151.824 80.8967 150.634 81.2768 149.553 81.2768C146.904 81.2768 145.498 79.8109 145.498 76.8791C145.498 75.7932 145.66 74.8159 145.984 73.9472C146.309 73.0786 146.741 72.3727 147.282 71.8298C147.823 71.3412 148.418 71.0697 149.012 71.0697C149.337 71.0697 149.553 71.124 149.769 71.3412C149.931 71.5583 149.986 71.7755 149.986 72.1013C149.986 72.427 149.931 72.8071 149.769 73.1871C149.715 73.2957 149.715 73.4586 149.661 73.6758C149.607 73.893 149.607 74.1101 149.607 74.273C149.607 74.7073 149.769 74.9788 150.094 75.2503C150.364 75.4674 150.797 75.576 151.283 75.576C152.094 75.576 152.743 75.196 153.23 74.4902C153.716 73.7844 153.933 72.8614 153.933 71.7755C153.933 70.4725 153.554 69.3866 152.743 68.5722C151.878 67.7578 150.797 67.3778 149.283 67.3778C147.823 67.3778 146.363 67.8121 145.011 68.6265C143.66 69.4409 142.524 70.6354 141.713 72.2099C140.848 73.7844 140.415 75.576 140.415 77.6392C140.415 79.9738 141.118 81.7654 142.632 83.177C144.092 84.4258 146.147 85.1316 148.742 85.1316ZM161.502 85.1316C163.773 85.1316 166.26 83.6114 168.91 80.5167C169.45 79.9195 169.667 79.1594 169.667 78.1278C169.667 77.5849 169.612 77.1505 169.396 76.8791C169.18 76.6076 168.91 76.4447 168.531 76.4447C168.153 76.4447 167.774 76.6619 167.45 76.9876C166.26 78.345 165.287 79.3765 164.584 79.9738C163.881 80.6253 163.286 80.951 162.8 80.951C162.259 80.951 161.935 80.7339 161.718 80.3538C161.502 79.9195 161.394 79.3765 161.394 78.6164C161.394 77.6392 161.718 75.7389 162.367 72.9157C162.908 70.5811 163.124 69.1695 163.124 68.5179C163.124 67.6493 162.421 67.2149 161.07 67.2149C160.205 67.2149 159.556 67.3778 159.177 67.6493C158.799 67.9207 158.474 68.5179 158.204 69.3323C157.717 70.9068 157.339 72.5356 157.069 74.3273C156.744 76.119 156.582 77.5849 156.582 78.725C156.582 80.6796 156.96 82.1998 157.771 83.3942C158.528 84.5887 159.772 85.1316 161.502 85.1316ZM172.1 85.1316C174.208 85.1316 175.938 84.0457 177.344 81.9283C177.723 82.9056 178.263 83.6657 179.02 84.2629C179.723 84.8601 180.534 85.1316 181.399 85.1316C182.535 85.1316 183.724 84.6973 184.968 83.7743C186.212 82.9056 187.347 81.8197 188.428 80.5167C188.969 79.9195 189.185 79.1594 189.185 78.1278C189.185 77.5849 189.131 77.1505 188.915 76.8791C188.699 76.6076 188.428 76.4447 188.05 76.4447C187.671 76.4447 187.293 76.6619 186.968 76.9876C185.725 78.3993 184.752 79.3765 184.049 79.9738C183.346 80.6253 182.751 80.951 182.21 80.951C181.886 80.951 181.67 80.8424 181.453 80.6253C181.237 80.4081 181.129 80.0824 181.129 79.7023C181.129 78.5621 181.453 76.5533 182.048 73.6215C182.427 71.6126 182.643 70.3639 182.643 69.821C182.643 68.9523 181.994 68.4636 180.697 68.4636C180.102 68.4636 179.507 68.5179 178.912 68.6265C178.804 68.0293 178.642 67.6493 178.426 67.4321C178.209 67.2149 177.831 67.1063 177.236 67.1063C175.398 67.1063 173.668 67.6493 172.046 68.7351C170.423 69.821 169.072 71.3412 168.099 73.1328C167.125 74.9788 166.639 76.8791 166.639 78.9422C166.639 80.7881 167.125 82.3084 168.099 83.4485C169.072 84.5887 170.478 85.1316 172.1 85.1316ZM173.559 81.2768C172.965 81.2768 172.532 81.0596 172.208 80.6796C171.829 80.2995 171.667 79.7023 171.667 78.9422C171.667 77.5306 171.937 76.1732 172.532 74.9245C173.073 73.6758 173.83 72.6442 174.803 71.8298C175.722 71.0697 176.75 70.6897 177.885 70.6354L176.425 77.6935C176.209 78.7793 175.776 79.648 175.29 80.2995C174.695 80.951 174.154 81.2768 173.559 81.2768ZM198.323 79.5937C197.836 80.0281 197.35 80.2995 196.755 80.571C196.16 80.8424 195.619 80.951 195.187 80.951C194.322 80.951 193.727 80.7339 193.24 80.2452C192.754 79.8109 192.429 79.0508 192.267 78.0192C195.241 74.1101 197.674 70.201 199.404 66.1833C201.134 62.1657 202 58.6909 202 55.6505C202 53.5331 201.621 51.9043 200.918 50.7641C200.161 49.6783 199.134 49.0811 197.89 49.0811C195.619 49.0811 193.673 50.4927 192.051 53.3702C190.429 56.2477 189.185 59.6139 188.32 63.5773C187.455 67.5407 187.023 71.0697 187.023 74.1644C187.023 77.422 187.617 80.0281 188.807 82.0369C189.942 84.0457 191.835 85.0773 194.376 85.0773C196.16 85.0773 197.674 84.5344 199.08 83.4485C199.891 82.797 200.269 81.9826 200.269 80.8967C200.269 80.4081 200.215 79.9738 199.999 79.648C199.783 79.3222 199.512 79.1594 199.188 79.1594C198.918 79.2137 198.593 79.3222 198.323 79.5937ZM197.025 52.8816C197.782 52.8816 198.161 53.8588 198.161 55.7591C198.161 58.2566 197.62 60.9169 196.485 63.903C195.349 66.8892 193.835 69.8753 191.997 72.8614C192.051 69.9839 192.375 66.9977 192.97 63.8487C193.565 60.6998 194.268 58.0937 195.025 55.9763C195.674 53.9674 196.43 52.8816 197.025 52.8816Z" fill="white"/>
<path d="M164.584 63.7397C163.881 64.3369 162.962 64.6627 161.827 64.6627C160.691 64.6627 159.88 64.3912 159.34 63.8483C158.745 63.3596 158.475 62.6538 158.475 61.7851C158.475 60.9164 158.853 60.1563 159.61 59.5591C160.313 59.0162 161.232 58.6904 162.313 58.6904C163.287 58.6904 164.098 58.9619 164.692 59.3962C165.287 59.8849 165.612 60.5364 165.612 61.3508C165.612 62.3823 165.287 63.1424 164.584 63.7397Z" fill="white"/>
<path d="M22.7629 7.05808C23.682 7.05808 24.7634 7.22097 26.007 7.54673C27.0343 7.7639 27.6831 7.87248 27.8994 7.87248C28.8185 7.87248 29.5755 7.54672 30.2784 6.84092C30.9272 6.13511 31.2516 5.26642 31.2516 4.18056C31.2516 2.76895 30.4947 1.73738 29.0348 1.03157C27.575 0.325763 25.8448 0 23.8983 0C19.1943 0 15.6258 1.14016 13.0305 3.47475C10.4893 5.80935 9.19166 8.95835 9.19166 12.8674V18.7854H3.89293C2.81156 18.7854 1.89239 19.1111 1.13543 19.8169C0.378467 20.5227 0 21.3914 0 22.4773C0 23.5631 0.378467 24.4318 1.13543 25.0834C1.89239 25.7349 2.81156 26.1149 3.89293 26.1149H9.19166V58.0935C9.19166 59.2336 9.57013 60.1566 10.3271 60.971C11.084 61.7311 12.0573 62.1654 13.1927 62.1654C14.3822 62.1654 15.3555 61.7854 16.1665 60.971C16.9235 60.2109 17.3019 59.2336 17.3019 58.0935V26.1149H40.6596C41.795 26.1149 42.7142 25.7892 43.4171 25.0834C44.12 24.4318 44.4984 23.5631 44.4984 22.4773C44.4984 21.3914 44.12 20.5227 43.4171 19.8169C42.7142 19.1111 41.795 18.7854 40.6596 18.7854H17.3019V12.8674C17.3019 11.2386 17.7345 9.88132 18.6537 8.74117C19.5188 7.65531 20.8705 7.05808 22.7629 7.05808ZM44.6606 58.0935V22.9116C44.6606 21.7715 44.2822 20.8485 43.5252 20.0341C42.7682 19.274 41.795 18.8397 40.5514 18.8397C39.416 18.8397 38.4428 19.2197 37.6858 20.0341C36.9288 20.7942 36.5504 21.7715 36.5504 22.9116V58.0935C36.5504 59.2336 36.9288 60.1566 37.6858 60.971C38.4428 61.7311 39.416 62.1654 40.5514 62.1654C41.7409 62.1654 42.7142 61.7854 43.5252 60.971C44.2822 60.1566 44.6606 59.2336 44.6606 58.0935ZM91.3218 17.428C90.1323 17.428 89.1591 17.8081 88.4021 18.6225C87.6452 19.3826 87.2667 20.4142 87.2667 21.5543V24.269C85.7528 22.2601 83.59 20.5227 80.8866 19.1111C78.1832 17.6995 75.2635 16.9937 72.1275 16.9937C68.2346 16.9937 64.7201 17.971 61.476 19.9255C58.2319 21.8801 55.6906 24.649 53.8523 28.1238C52.014 31.6528 51.0948 35.5619 51.0948 39.9596C51.0948 44.3573 52.014 48.2664 53.8523 51.7955C55.6906 55.3245 58.2859 58.0392 61.53 59.9937C64.7742 61.9483 68.3968 62.9255 72.2897 62.9255C75.4257 62.9255 78.3994 62.1654 81.211 60.5909C84.0226 59.0164 86.0231 57.1162 87.2667 54.9445V59.5051C87.2667 63.2513 87.537 68.1377 85.3743 72.2639C83.4819 75.8473 77.6965 77.5846 73.1548 77.5846C70.6136 77.5846 67.045 76.716 62.4492 74.9786C61.5841 74.6528 60.7731 74.4899 60.0702 74.4899C58.6103 74.4899 57.529 75.1958 56.8801 76.6074C56.6639 77.1503 56.5557 77.6389 56.5557 77.9647C56.5557 79.322 57.4208 80.4079 59.2051 81.3309C60.0702 82.1995 62.0167 82.9596 65.0445 83.774C68.0723 84.5341 70.7758 84.9685 73.0466 84.9685C77.264 84.9685 81.0488 84.2627 84.401 82.7968C87.7533 81.3309 90.4567 79.0505 92.4032 76.0101C94.3497 72.9697 95.377 63.1427 95.377 58.6364V21.6086C95.377 20.3599 94.9985 19.3826 94.2415 18.6225C93.4846 17.8081 92.5113 17.428 91.3218 17.428ZM73.2629 55.5417C70.5054 55.5417 68.0723 54.8902 65.9096 53.5329C63.7469 52.1755 62.0707 50.3296 60.8272 47.9407C59.5836 45.5518 58.9888 42.8914 58.9888 39.9596C58.9888 37.0278 59.5836 34.3674 60.8272 31.9785C62.0707 29.5897 63.7469 27.7437 65.9096 26.3864C68.0723 25.0291 70.5054 24.3775 73.2629 24.3775C76.0745 24.3775 78.5616 25.0291 80.7244 26.3864C82.8871 27.7437 84.5633 29.5897 85.8068 31.9243C87.0504 34.2589 87.6452 36.9735 87.6452 39.9053C87.6452 42.8914 87.0504 45.5518 85.8068 47.9407C84.5633 50.3296 82.8871 52.1755 80.7244 53.4786C78.5616 54.8902 76.0745 55.5417 73.2629 55.5417Z" fill="white"/>
<path d="M148.148 40.0142V17.1025H125.331C112.733 17.1025 102.514 27.3639 102.514 40.0142C102.514 52.6644 112.733 62.9258 125.331 62.9258C137.929 62.9801 148.148 52.7187 148.148 40.0142ZM140.47 40.0142C140.47 48.4296 133.657 55.2162 125.331 55.2162C116.95 55.2162 110.191 48.3753 110.191 40.0142C110.191 31.6531 117.004 24.8121 125.331 24.8121H140.578L140.47 40.0142Z" fill="white"/>
</svg>