<svg width="112" height="31" viewBox="0 0 112 31" fill="none" xmlns="http://www.w3.org/2000/svg">
<path d="M11.93 24.2825C10.2576 24.2825 8.71061 23.9794 7.28906 23.3732C5.86751 22.7669 4.62366 21.9203 3.5575 20.8332C2.49134 19.7461 1.65514 18.4709 1.04889 17.0076C0.463544 15.5442 0.170872 13.945 0.170872 12.2098C0.170872 10.4747 0.453091 8.87548 1.01753 7.41212C1.60287 5.92786 2.41817 4.65264 3.46343 3.58648C4.52959 2.49942 5.77344 1.66321 7.19499 1.07787C8.61654 0.471621 10.1635 0.168497 11.8359 0.168497C13.5083 0.168497 15.003 0.450716 16.3201 1.01515C17.658 1.57959 18.7869 2.33218 19.7067 3.27291C20.6265 4.19273 21.285 5.20663 21.6822 6.3146L17.888 8.13334C17.4489 6.92085 16.7068 5.93831 15.6616 5.18572C14.6163 4.43314 13.3411 4.05685 11.8359 4.05685C10.3726 4.05685 9.07645 4.40178 7.94757 5.09165C6.8396 5.78152 5.97204 6.7327 5.34489 7.9452C4.73864 9.15769 4.43551 10.5792 4.43551 12.2098C4.43551 13.8404 4.74909 15.2724 5.37624 16.5058C6.0243 17.7183 6.91277 18.6695 8.04165 19.3594C9.17052 20.0493 10.4666 20.3942 11.93 20.3942C13.1216 20.3942 14.2191 20.1642 15.2226 19.7043C16.226 19.2235 17.0308 18.5545 17.6371 17.6974C18.2433 16.8194 18.5465 15.7846 18.5465 14.593V12.8056L20.4906 14.499H11.8359V10.8928H22.8111V13.2446C22.8111 15.0425 22.508 16.6313 21.9017 18.011C21.2955 19.3907 20.4697 20.551 19.4245 21.4917C18.4001 22.4115 17.2399 23.1119 15.9438 23.5927C14.6477 24.0526 13.3097 24.2825 11.93 24.2825ZM34.1819 24.2825C32.5095 24.2825 30.9835 23.8958 29.6037 23.1223C28.2449 22.3488 27.1578 21.2931 26.3425 19.9552C25.5481 18.6173 25.1509 17.0912 25.1509 15.377C25.1509 13.6627 25.5481 12.1367 26.3425 10.7987C27.1578 9.46082 28.2449 8.40511 29.6037 7.63162C30.9625 6.85813 32.4886 6.47139 34.1819 6.47139C35.8543 6.47139 37.37 6.85813 38.7288 7.63162C40.0876 8.40511 41.1642 9.46082 41.9586 10.7987C42.7739 12.1158 43.1816 13.6418 43.1816 15.377C43.1816 17.0912 42.7739 18.6173 41.9586 19.9552C41.1433 21.2931 40.0563 22.3488 38.6974 23.1223C37.3386 23.8958 35.8334 24.2825 34.1819 24.2825ZM34.1819 20.5196C35.1018 20.5196 35.9066 20.3001 36.5965 19.8611C37.3072 19.4221 37.8612 18.8159 38.2584 18.0424C38.6765 17.248 38.8856 16.3595 38.8856 15.377C38.8856 14.3735 38.6765 13.4955 38.2584 12.7429C37.8612 11.9694 37.3072 11.3632 36.5965 10.9242C35.9066 10.4643 35.1018 10.2343 34.1819 10.2343C33.2412 10.2343 32.4155 10.4643 31.7047 10.9242C30.9939 11.3632 30.4295 11.9694 30.0114 12.7429C29.6142 13.4955 29.4156 14.3735 29.4156 15.377C29.4156 16.3595 29.6142 17.248 30.0114 18.0424C30.4295 18.8159 30.9939 19.4221 31.7047 19.8611C32.4155 20.3001 33.2412 20.5196 34.1819 20.5196ZM54.6379 24.2825C52.9655 24.2825 51.4394 23.8958 50.0597 23.1223C48.7009 22.3488 47.6138 21.2931 46.7985 19.9552C46.0041 18.6173 45.6069 17.0912 45.6069 15.377C45.6069 13.6627 46.0041 12.1367 46.7985 10.7987C47.6138 9.46082 48.7009 8.40511 50.0597 7.63162C51.4185 6.85813 52.9446 6.47139 54.6379 6.47139C56.3103 6.47139 57.8259 6.85813 59.1848 7.63162C60.5436 8.40511 61.6202 9.46082 62.4146 10.7987C63.2299 12.1158 63.6376 13.6418 63.6376 15.377C63.6376 17.0912 63.2299 18.6173 62.4146 19.9552C61.5993 21.2931 60.5122 22.3488 59.1534 23.1223C57.7946 23.8958 56.2894 24.2825 54.6379 24.2825ZM54.6379 20.5196C55.5577 20.5196 56.3626 20.3001 57.0525 19.8611C57.7632 19.4221 58.3172 18.8159 58.7144 18.0424C59.1325 17.248 59.3416 16.3595 59.3416 15.377C59.3416 14.3735 59.1325 13.4955 58.7144 12.7429C58.3172 11.9694 57.7632 11.3632 57.0525 10.9242C56.3626 10.4643 55.5577 10.2343 54.6379 10.2343C53.6972 10.2343 52.8714 10.4643 52.1607 10.9242C51.4499 11.3632 50.8854 11.9694 50.4673 12.7429C50.0701 13.4955 49.8715 14.3735 49.8715 15.377C49.8715 16.3595 50.0701 17.248 50.4673 18.0424C50.8854 18.8159 51.4499 19.4221 52.1607 19.8611C52.8714 20.3001 53.6972 20.5196 54.6379 20.5196ZM75.0312 30.8049C73.756 30.8049 72.5748 30.5959 71.4878 30.1778C70.4007 29.7597 69.46 29.1743 68.6656 28.4218C67.8921 27.6901 67.3276 26.8225 66.9722 25.8191L70.7979 24.3766C71.0487 25.171 71.54 25.8086 72.2717 26.2894C73.0243 26.7912 73.9441 27.042 75.0312 27.042C75.8674 27.042 76.5991 26.8852 77.2262 26.5717C77.8743 26.2581 78.376 25.7982 78.7314 25.1919C79.0868 24.6066 79.2645 23.8958 79.2645 23.0596V19.1712L80.0484 20.112C79.4631 21.1363 78.6791 21.9098 77.6966 22.4324C76.714 22.9551 75.5956 23.2164 74.3413 23.2164C72.7525 23.2164 71.331 22.8505 70.0767 22.1189C68.8224 21.3872 67.8398 20.3837 67.129 19.1085C66.4183 17.8333 66.0629 16.4013 66.0629 14.8125C66.0629 13.2028 66.4183 11.7708 67.129 10.5165C67.8398 9.26222 68.8119 8.27968 70.0453 7.56891C71.2787 6.83723 72.6793 6.47139 74.2472 6.47139C75.5224 6.47139 76.6409 6.74315 77.6025 7.28669C78.585 7.80932 79.4003 8.57235 80.0484 9.5758L79.484 10.6106V6.84768H83.3723V23.0596C83.3723 24.5439 83.0065 25.8713 82.2748 27.042C81.564 28.2127 80.5815 29.1325 79.3272 29.8015C78.0938 30.4705 76.6618 30.8049 75.0312 30.8049ZM74.843 19.4221C75.721 19.4221 76.4841 19.234 77.1321 18.8577C77.8011 18.4605 78.3237 17.9169 78.7 17.2271C79.0763 16.5372 79.2645 15.7428 79.2645 14.8439C79.2645 13.9659 79.0659 13.1819 78.6687 12.4921C78.2924 11.7813 77.7697 11.2273 77.1008 10.8301C76.4527 10.4329 75.7001 10.2343 74.843 10.2343C73.9859 10.2343 73.2124 10.4329 72.5226 10.8301C71.8327 11.2273 71.2892 11.7813 70.892 12.4921C70.5157 13.1819 70.3275 13.9659 70.3275 14.8439C70.3275 15.7219 70.5157 16.5058 70.892 17.1957C71.2892 17.8856 71.8222 18.4291 72.4912 18.8263C73.1811 19.2235 73.965 19.4221 74.843 19.4221ZM87.2087 23.9062V0.168497H91.3166V23.9062H87.2087ZM103.2 24.2825C101.444 24.2825 99.9071 23.8853 98.5901 23.091C97.2731 22.2966 96.2487 21.2199 95.517 19.8611C94.7854 18.5023 94.4195 16.9971 94.4195 15.3456C94.4195 13.6314 94.7854 12.1158 95.517 10.7987C96.2696 9.46082 97.2835 8.40511 98.5587 7.63162C99.8548 6.85813 101.297 6.47139 102.886 6.47139C104.224 6.47139 105.395 6.69089 106.398 7.1299C107.422 7.56891 108.29 8.17515 109.001 8.94864C109.712 9.72213 110.255 10.6106 110.631 11.614C111.008 12.5966 111.196 13.6627 111.196 14.8125C111.196 15.1052 111.175 15.4083 111.133 15.7219C111.112 16.0355 111.06 16.3072 110.976 16.5372H97.8061V13.4014H108.656L106.712 14.8752C106.9 13.9136 106.848 13.0565 106.555 12.3039C106.283 11.5513 105.823 10.9555 105.175 10.5165C104.548 10.0775 103.785 9.85802 102.886 9.85802C102.029 9.85802 101.266 10.0775 100.597 10.5165C99.928 10.9346 99.4158 11.5618 99.0605 12.398C98.726 13.2133 98.6005 14.2063 98.6842 15.377C98.6005 16.4222 98.7364 17.3525 99.0918 18.1678C99.4681 18.9622 100.012 19.5789 100.722 20.0179C101.454 20.4569 102.29 20.6764 103.231 20.6764C104.172 20.6764 104.966 20.4778 105.614 20.0806C106.283 19.6834 106.806 19.1503 107.182 18.4814L110.506 20.112C110.172 20.9273 109.649 21.6485 108.938 22.2757C108.227 22.9028 107.381 23.3941 106.398 23.7495C105.437 24.1048 104.37 24.2825 103.2 24.2825Z" fill="#6A6A6A"/>
</svg>
