<svg width="379" height="378" viewBox="0 0 379 378" fill="none" xmlns="http://www.w3.org/2000/svg">
<path d="M48.6848 67.0972L48.9903 67.6506C49.3327 68.2712 49.8483 68.7823 50.4758 69.1217L51.0345 69.4241L50.4758 69.7265C49.8491 70.066 49.3335 70.577 48.9903 71.1977L48.6848 71.7511L48.3794 71.1977C48.0362 70.577 47.5213 70.0667 46.8946 69.7265L46.3359 69.4241L46.8946 69.1217C47.5213 68.7823 48.0369 68.272 48.3794 67.6506L48.6848 67.0972Z" fill="#D7D7D9"/>
<path d="M117.793 92.396L118.372 93.4446C119.022 94.6217 119.999 95.5893 121.187 96.2327L122.246 96.8065L121.187 97.3795C119.999 98.0237 119.022 98.9906 118.372 100.168L117.793 101.216L117.214 100.168C116.563 98.9906 115.587 98.0229 114.398 97.3795L113.34 96.8065L114.398 96.2327C115.587 95.5893 116.563 94.6217 117.214 93.4446L117.793 92.396Z" fill="#D7D7D9"/>
<path d="M343.189 188.411L343.768 189.46C344.418 190.637 345.395 191.604 346.584 192.248L347.642 192.822L346.584 193.395C345.395 194.039 344.418 195.006 343.768 196.183L343.189 197.231L342.61 196.183C341.96 195.006 340.983 194.038 339.795 193.395L338.736 192.822L339.795 192.248C340.983 191.604 341.96 190.637 342.61 189.46L343.189 188.411Z" fill="#D7D7D9"/>
<path d="M100.201 47.231L100.461 47.7019C100.753 48.2304 101.191 48.6651 101.725 48.9539L102.2 49.2117L101.725 49.4695C101.191 49.7583 100.753 50.193 100.461 50.7214L100.201 51.1924L99.9407 50.7214C99.6489 50.193 99.2104 49.7583 98.6767 49.4695L98.2012 49.2117L98.6767 48.9539C99.2104 48.6651 99.6489 48.2304 99.9407 47.7019L100.201 47.231Z" fill="#D7D7D9"/>
<path d="M296.924 165.594H333.931C333.931 165.594 330.658 159.639 321.132 160.506C312.035 161.334 311.572 157.576 306.946 157.114C302.321 156.652 298.466 160.198 296.924 165.594Z" fill="#D7D7D9"/>
<path d="M251.107 77.7499H323.429C323.429 77.7499 317.034 66.1121 298.418 67.8055C280.639 69.4233 279.735 62.0803 270.695 61.1761C261.654 60.2727 254.121 67.203 251.107 77.7499Z" fill="#D7D7D9"/>
<path d="M46.3359 101.949H87.8214C87.8214 101.949 84.1526 95.2724 73.4741 96.2446C63.2756 97.173 62.757 92.9606 57.5716 92.442C52.3854 91.9226 48.0642 95.8984 46.3359 101.949Z" fill="#D7D7D9"/>
<path d="M334.303 128.907C334.324 128.976 333.341 129.23 331.895 129.951C330.453 130.662 328.562 131.92 326.982 133.806C326.932 133.866 326.882 133.924 326.835 133.98L326.651 134.197L326.501 133.96C325.21 131.933 323.399 130.616 322.006 129.928C320.604 129.224 319.632 129.043 319.651 128.969C319.656 128.945 319.902 128.965 320.338 129.06C320.774 129.153 321.397 129.34 322.13 129.667C323.591 130.304 325.504 131.63 326.849 133.738L326.515 133.718C326.563 133.661 326.615 133.6 326.666 133.539C328.292 131.597 330.269 130.343 331.77 129.686C332.523 129.352 333.157 129.145 333.601 129.031C334.045 128.918 334.297 128.882 334.303 128.907Z" fill="#3F415C"/>
<path d="M48.3957 122.187C48.4116 122.241 47.6586 122.435 46.5503 122.987C45.4465 123.532 43.9973 124.495 42.7877 125.939C42.7491 125.985 42.7106 126.03 42.675 126.072L42.5344 126.239L42.4187 126.057C41.4299 124.504 40.0434 123.496 38.9759 122.969C37.9016 122.43 37.157 122.291 37.1721 122.235C37.1759 122.216 37.3641 122.232 37.6983 122.304C38.0324 122.376 38.5095 122.519 39.0712 122.769C40.1901 123.258 41.6544 124.273 42.6856 125.887L42.4293 125.872C42.4656 125.829 42.5057 125.782 42.545 125.735C43.7901 124.247 45.3044 123.287 46.4543 122.784C47.0311 122.529 47.5164 122.371 47.8566 122.282C48.1984 122.195 48.3911 122.167 48.3957 122.187Z" fill="#3F415C"/>
<path d="M82.2058 140.924C82.2262 140.994 81.2434 141.247 79.7964 141.969C78.3548 142.68 76.4632 143.937 74.884 145.823C74.8333 145.883 74.7834 145.942 74.7365 145.997L74.5528 146.214L74.4024 145.978C73.1119 143.951 71.3005 142.634 69.908 141.945C68.5056 141.241 67.5334 141.061 67.553 140.987C67.5583 140.962 67.804 140.983 68.2402 141.077C68.6764 141.171 69.2994 141.358 70.0327 141.684C71.4933 142.322 73.406 143.647 74.7517 145.755L74.4175 145.736C74.4651 145.679 74.5173 145.618 74.5687 145.557C76.1949 143.614 78.171 142.36 79.6725 141.704C80.4254 141.371 81.059 141.163 81.5035 141.049C81.9473 140.935 82.199 140.898 82.2058 140.924Z" fill="#3F415C"/>
<path d="M227.891 37.9511C227.912 38.0214 226.929 38.2747 225.483 38.9952C224.041 39.7073 222.15 40.9638 220.57 42.85C220.52 42.9097 220.47 42.9687 220.423 43.0239L220.239 43.2409L220.089 43.0042C218.798 40.9774 216.987 39.6605 215.594 38.9725C214.192 38.2687 213.22 38.088 213.239 38.0139C213.244 37.9897 213.49 38.0109 213.926 38.1046C214.362 38.1983 214.985 38.3851 215.718 38.7117C217.179 39.349 219.092 40.675 220.437 42.7827L220.103 42.7631C220.151 42.7064 220.203 42.6451 220.254 42.5839C221.88 40.6417 223.857 39.3875 225.358 38.7313C226.111 38.3972 226.744 38.1908 227.189 38.0766C227.633 37.9625 227.885 37.9254 227.891 37.9511Z" fill="#3F415C"/>
<path d="M318.333 104.046L318.485 104.323C318.654 104.633 318.909 104.888 319.22 105.058L319.497 105.209L319.22 105.361C318.909 105.531 318.655 105.785 318.485 106.096L318.333 106.373L318.182 106.096C318.012 105.785 317.757 105.531 317.447 105.361L317.17 105.209L317.447 105.058C317.757 104.888 318.012 104.633 318.182 104.323L318.333 104.046Z" fill="#616274"/>
<path d="M45.5678 180.982L45.719 181.259C45.8891 181.57 46.1439 181.825 46.4546 181.995L46.7313 182.146L46.4546 182.297C46.1439 182.467 45.8891 182.722 45.719 183.033L45.5678 183.309L45.4166 183.033C45.2472 182.722 44.9917 182.467 44.681 182.297L44.4043 182.146L44.681 181.995C44.9917 181.825 45.2465 181.57 45.4166 181.259L45.5678 180.982Z" fill="#616274"/>
<path d="M254.544 140.682L255.066 141.636C255.652 142.708 256.534 143.589 257.606 144.176L258.561 144.698L257.606 145.221C256.534 145.807 255.653 146.688 255.066 147.76L254.544 148.715L254.022 147.76C253.436 146.688 252.554 145.807 251.482 145.221L250.527 144.698L251.482 144.176C252.554 143.59 253.435 142.708 254.022 141.636L254.544 140.682Z" fill="#616274"/>
<path d="M135.147 47.2671L135.67 48.2219C136.256 49.2939 137.137 50.1747 138.209 50.7613L139.164 51.2837L138.209 51.8061C137.137 52.392 136.257 53.2735 135.67 54.3455L135.147 55.3003L134.625 54.3455C134.039 53.2735 133.158 52.3928 132.086 51.8061L131.131 51.2837L132.086 50.7613C133.158 50.1754 134.038 49.2939 134.625 48.2219L135.147 47.2671Z" fill="#616274"/>
<path d="M196.737 291.967C196.737 291.967 196.629 292.049 196.406 292.194C196.168 292.345 195.837 292.555 195.41 292.827C194.492 293.305 193.125 294.027 191.214 294.547C189.313 295.084 186.895 295.415 184.091 295.377C181.286 295.353 178.103 294.925 174.672 294.125C171.233 293.333 167.565 292.138 163.577 291.059C159.6 289.999 155.252 288.98 150.617 289.091C148.306 289.14 145.957 289.525 143.627 290.183C141.293 290.835 138.976 291.728 136.633 292.676C134.289 293.624 131.911 294.628 129.421 295.458C126.936 296.284 124.327 296.953 121.621 297.125C118.914 297.292 116.239 296.983 113.669 296.465C111.094 295.945 108.612 295.223 106.183 294.518C101.34 293.095 96.598 291.759 91.9524 291.768C87.3166 291.756 82.9674 292.712 78.987 293.776C74.9999 294.856 71.3378 296.061 67.9487 297.017C64.5633 297.983 61.4471 298.696 58.6665 299.056C55.8852 299.406 53.4554 299.412 51.4943 299.196C49.5287 298.987 48.0477 298.566 47.0536 298.276C46.5773 298.104 46.2084 297.972 45.943 297.877C45.6943 297.784 45.5703 297.727 45.5703 297.727C45.5703 297.727 45.7034 297.759 45.9566 297.839C46.2243 297.925 46.5962 298.046 47.0763 298.2C48.0742 298.464 49.5537 298.857 51.5087 299.043C53.4607 299.234 55.8738 299.204 58.6363 298.836C61.3987 298.457 64.4968 297.728 67.87 296.747C71.2471 295.775 74.9039 294.555 78.8993 293.457C82.888 292.377 87.2622 291.4 91.9532 291.402C96.6615 291.382 101.449 292.727 106.29 294.144C111.127 295.536 116.242 297.048 121.594 296.728C124.253 296.559 126.828 295.901 129.295 295.083C131.766 294.259 134.138 293.262 136.486 292.314C138.833 291.367 141.165 290.47 143.524 289.816C145.878 289.156 148.268 288.768 150.609 288.725C155.306 288.622 159.679 289.664 163.664 290.74C167.657 291.836 171.32 293.045 174.737 293.85C178.149 294.664 181.31 295.108 184.095 295.154C186.88 295.213 189.281 294.907 191.174 294.396C193.076 293.903 194.446 293.209 195.372 292.756C195.806 292.5 196.143 292.301 196.385 292.159C196.614 292.026 196.737 291.967 196.737 291.967Z" fill="#616274"/>
<path d="M287.987 330.951C287.987 330.951 287.874 331.036 287.643 331.187C287.396 331.344 287.052 331.562 286.608 331.844C285.655 332.34 284.236 333.09 282.252 333.631C280.279 334.19 277.768 334.534 274.857 334.496C271.945 334.471 268.641 334.028 265.078 333.2C261.508 332.378 257.698 331.14 253.558 330.02C249.428 328.922 244.914 327.865 240.102 327.983C237.704 328.033 235.264 328.435 232.845 329.118C230.422 329.796 228.017 330.725 225.585 331.71C223.152 332.695 220.683 333.737 218.099 334.601C215.519 335.459 212.81 336.154 210.001 336.334C207.192 336.507 204.413 336.188 201.745 335.651C199.071 335.113 196.495 334.364 193.971 333.632C188.943 332.157 184.019 330.771 179.196 330.783C174.383 330.772 169.868 331.766 165.736 332.872C161.597 333.994 157.795 335.247 154.278 336.241C150.763 337.245 147.528 337.987 144.642 338.362C141.754 338.726 139.232 338.734 137.195 338.51C135.155 338.293 133.616 337.858 132.585 337.557C132.09 337.379 131.707 337.241 131.432 337.142C131.173 337.046 131.045 336.987 131.045 336.987C131.045 336.987 131.183 337.019 131.446 337.102C131.724 337.192 132.11 337.316 132.609 337.477C133.645 337.751 135.181 338.159 137.212 338.35C139.238 338.548 141.743 338.515 144.611 338.133C147.479 337.738 150.696 336.98 154.197 335.96C157.704 334.951 161.5 333.682 165.647 332.541C169.788 331.418 174.329 330.402 179.199 330.403C184.087 330.381 189.058 331.775 194.085 333.244C199.107 334.688 204.418 336.256 209.974 335.921C212.735 335.745 215.408 335.06 217.969 334.211C220.533 333.355 222.996 332.318 225.434 331.334C227.87 330.35 230.29 329.418 232.739 328.738C235.183 328.052 237.664 327.648 240.094 327.602C244.97 327.494 249.512 328.573 253.648 329.689C257.795 330.826 261.598 332.08 265.145 332.915C268.688 333.758 271.97 334.219 274.862 334.264C277.753 334.325 280.246 334.006 282.211 333.475C284.186 332.962 285.607 332.241 286.568 331.77C287.02 331.504 287.369 331.299 287.621 331.15C287.859 331.014 287.987 330.951 287.987 330.951Z" fill="#616274"/>
<path d="M315.431 303.109C315.428 303.115 315.36 303.092 315.231 303.04C315.081 302.978 314.895 302.9 314.666 302.804C314.169 302.597 313.421 302.327 312.439 302.051C310.47 301.522 307.502 301.148 303.858 301.463C300.206 301.714 295.963 302.76 291.174 303.569C288.779 303.96 286.224 304.252 283.566 304.149C280.903 304.058 278.197 303.435 275.516 302.637C272.827 301.846 270.247 300.949 267.687 300.369C265.138 299.775 262.588 299.518 260.214 299.856C257.836 300.188 255.671 300.998 253.704 301.848C251.735 302.707 249.941 303.613 248.271 304.375C244.956 305.953 242.034 306.769 239.971 306.886C238.941 306.919 238.14 306.904 237.606 306.799C237.358 306.763 237.158 306.734 236.997 306.71C236.86 306.687 236.791 306.673 236.793 306.666C236.794 306.659 236.866 306.66 237.004 306.668C237.166 306.681 237.367 306.697 237.615 306.716C238.149 306.794 238.943 306.781 239.959 306.725C241.995 306.56 244.86 305.715 248.149 304.109C249.805 303.333 251.591 302.412 253.567 301.535C255.541 300.666 257.73 299.83 260.163 299.48C262.594 299.122 265.2 299.378 267.778 299.974C270.368 300.555 272.957 301.454 275.634 302.24C278.305 303.034 280.966 303.648 283.584 303.744C286.201 303.85 288.731 303.572 291.115 303.192C295.881 302.408 300.154 301.387 303.837 301.171C307.512 300.89 310.511 301.313 312.484 301.894C314.457 302.495 315.431 303.109 315.431 303.109Z" fill="#3F415C"/>
<path d="M359.732 236.644C359.732 236.753 283.022 236.84 188.417 236.84C93.7799 236.84 17.0859 236.752 17.0859 236.644C17.0859 236.536 93.7799 236.447 188.417 236.447C283.022 236.447 359.732 236.535 359.732 236.644Z" fill="#3F415C"/>
<path d="M178.469 75.2505L20.1816 236.363L118.595 236.33L178.469 95.413V75.2505Z" fill="#FF8977"/>
<path opacity="0.9" d="M178.469 75.2505L20.1816 236.363L118.595 236.33L178.469 95.413V75.2505Z" fill="white"/>
<path d="M139.699 264.364C154.459 265.059 169.507 265.8 183.246 269.945C188.597 271.559 193.943 273.715 199.7 273.571C208.34 273.356 215.785 267.989 224.426 268.176C232.088 268.341 238.539 272.839 246.143 273.571C255.12 274.435 263.401 269.959 272.32 268.802C284.905 267.17 298.381 272.936 310.337 269.257C315.103 267.79 309.878 265.337 305.612 265.23C305.612 265.23 289.828 265.017 285.563 261.924C281.296 258.831 277.971 258.469 275.528 257.744C273.086 257.019 269.033 258.618 269.033 258.618L219.869 259.258L182.97 256.314L150.034 258.191L139.699 264.364Z" fill="#D7D7D9"/>
<path d="M173.137 117.625L169.357 239.498L216.437 238.931L212.313 117.626L173.137 117.625Z" fill="#FF8977"/>
<path d="M215.532 112.312H169.357V117.625H215.532V112.312Z" fill="#616274"/>
<path d="M178.471 112.313V74.9013L191.058 69.4233H194.088L206.908 75.2506V112.313H178.471Z" fill="#FF8977"/>
<path d="M206.908 75.2505H178.471V95.413H206.908V75.2505Z" fill="#D7D7D9"/>
<path d="M191.059 69.4233V65.3447H193.855V69.4233H191.524" fill="#FF8977"/>
<path opacity="0.4" d="M213.351 148.162H172.186L171.322 175.895H214.294L213.351 148.162Z" fill="white"/>
<path d="M210.485 112.313C210.471 112.313 210.459 112.159 210.446 111.865C210.436 111.529 210.424 111.102 210.409 110.575C210.393 109.4 210.372 107.78 210.345 105.78L210.485 105.92C206.057 105.961 199.622 105.987 192.475 105.987C185.325 105.987 178.89 105.961 174.462 105.92L174.602 105.78C174.575 107.78 174.554 109.399 174.538 110.575C174.523 111.102 174.511 111.529 174.501 111.865C174.488 112.159 174.475 112.312 174.462 112.312C174.448 112.312 174.435 112.158 174.422 111.865C174.413 111.529 174.4 111.102 174.385 110.575C174.37 109.4 174.348 107.78 174.322 105.78L174.32 105.642L174.462 105.64C178.89 105.599 185.325 105.574 192.476 105.574C199.624 105.574 206.058 105.599 210.486 105.64L210.628 105.642L210.626 105.78C210.6 107.779 210.579 109.399 210.563 110.575C210.548 111.102 210.536 111.529 210.526 111.865C210.512 112.159 210.499 112.313 210.485 112.313Z" fill="#3F415C"/>
<path d="M200.224 112.313C200.11 112.313 200.018 110.851 200.018 109.047C200.018 107.243 200.11 105.781 200.224 105.781C200.338 105.781 200.43 107.243 200.43 109.047C200.43 110.85 200.338 112.313 200.224 112.313Z" fill="#3F415C"/>
<path d="M186.919 112.313C186.805 112.313 186.713 110.851 186.713 109.047C186.713 107.243 186.805 105.781 186.919 105.781C187.033 105.781 187.126 107.243 187.126 109.047C187.126 110.85 187.033 112.313 186.919 112.313Z" fill="#3F415C"/>
<path d="M186.669 95.413C186.555 95.413 186.463 90.8989 186.463 85.3325C186.463 79.7638 186.555 75.2505 186.669 75.2505C186.783 75.2505 186.876 79.7631 186.876 85.3325C186.876 90.8997 186.783 95.413 186.669 95.413Z" fill="#3F415C"/>
<path d="M197.843 95.413C197.729 95.413 197.637 90.8989 197.637 85.3325C197.637 79.7638 197.729 75.2505 197.843 75.2505C197.957 75.2505 198.049 79.7631 198.049 85.3325C198.049 90.8997 197.957 95.413 197.843 95.413Z" fill="#3F415C"/>
<path d="M206.908 85.3812C206.908 85.4099 206.51 85.4401 205.791 85.4711C204.993 85.4946 203.969 85.5255 202.744 85.5611C200.17 85.6178 196.616 85.6669 192.69 85.6843C188.762 85.7017 185.206 85.6835 182.632 85.6314C180.064 85.5875 178.453 85.4726 178.471 85.3812C180.563 85.3653 185.483 85.3267 192.688 85.2715C196.574 85.2708 200.089 85.27 202.742 85.27C203.968 85.2867 204.991 85.3003 205.79 85.3108C206.509 85.329 206.907 85.3524 206.908 85.3812Z" fill="#3F415C"/>
<path opacity="0.4" d="M170.417 204.926H215.281L216.228 232.789L169.555 232.597L170.417 204.926Z" fill="white"/>
<path d="M172.609 138.038C172.609 137.986 173.542 137.94 175.088 137.904C176.634 137.868 178.793 137.843 181.247 137.834L181.043 138.038C181.043 137.478 181.041 136.895 181.04 136.301C181.041 135.706 181.043 135.123 181.043 134.564L181.247 134.767C178.793 134.759 176.634 134.733 175.088 134.698C173.542 134.662 172.609 134.615 172.609 134.564C172.609 134.513 173.542 134.466 175.088 134.43C176.634 134.394 178.793 134.369 181.247 134.361L181.45 134.36V134.564C181.451 135.124 181.452 135.707 181.453 136.301C181.452 136.895 181.451 137.478 181.45 138.038V138.242L181.247 138.241C178.793 138.233 176.634 138.208 175.088 138.172C173.542 138.136 172.609 138.089 172.609 138.038Z" fill="#3F415C"/>
<path d="M195.804 100.533C195.784 100.552 195.764 100.242 195.737 99.6465C195.711 99.0523 195.677 98.1678 195.659 97.0587L195.656 96.9166L195.804 96.9144C197.994 96.8766 201.055 96.8524 204.44 96.8524C204.256 96.6679 204.693 97.1041 204.647 97.0595V97.0618V97.0656V97.0724V97.0867V97.1155V97.1722V97.2856V97.5124V97.9622C204.647 98.26 204.647 98.5549 204.646 98.8452C204.644 99.425 204.641 99.9898 204.639 100.533L204.638 100.731L204.441 100.731C201.895 100.719 199.705 100.676 198.178 100.638C197.482 100.616 196.894 100.598 196.405 100.582C195.999 100.565 195.788 100.549 195.804 100.533C195.82 100.516 196.063 100.5 196.494 100.483C196.996 100.468 197.599 100.449 198.312 100.427C199.851 100.389 201.98 100.347 204.442 100.335L204.244 100.533C204.241 99.989 204.239 99.425 204.237 98.8452C204.236 98.5541 204.236 98.26 204.235 97.9622V97.5124V97.2856V97.1722V97.1155V97.0867V97.0724V97.0656V97.0618V97.0603C204.191 97.0149 204.626 97.4504 204.441 97.2659C201.056 97.2659 197.995 97.2425 195.804 97.2039L195.949 97.0595C195.931 98.102 195.897 98.9548 195.871 99.5596C195.844 100.163 195.823 100.513 195.804 100.533Z" fill="#3F415C"/>
<path d="M190.737 104.075C190.718 104.094 190.698 103.784 190.671 103.189C190.645 102.594 190.611 101.71 190.592 100.601L190.59 100.459L190.737 100.456C192.927 100.418 195.988 100.394 199.374 100.394C199.189 100.21 199.626 100.645 199.581 100.602V100.602V100.604V100.608V100.614V100.629V100.658V100.714V100.828V101.054L199.58 101.504C199.579 101.802 199.579 102.097 199.579 102.387C199.576 102.967 199.574 103.532 199.572 104.075L199.571 104.273L199.374 104.273C196.828 104.261 194.637 104.218 193.11 104.18C192.414 104.158 191.826 104.14 191.337 104.125C190.932 104.107 190.721 104.09 190.737 104.075C190.754 104.058 190.997 104.042 191.427 104.025C191.929 104.01 192.533 103.991 193.246 103.97C194.785 103.931 196.914 103.889 199.375 103.877L199.177 104.075C199.175 103.532 199.173 102.967 199.17 102.387C199.17 102.096 199.169 101.802 199.169 101.504V101.054V100.828V100.714V100.658V100.629V100.614V100.608V100.604V100.602V100.602C199.124 100.556 199.56 100.992 199.375 100.808C195.989 100.808 192.928 100.785 190.738 100.746L190.882 100.602C190.864 101.645 190.83 102.497 190.804 103.102C190.777 103.704 190.757 104.054 190.737 104.075Z" fill="#3F415C"/>
<path d="M170.604 197.072C170.604 197.021 171.537 196.974 173.082 196.939C174.628 196.902 176.788 196.877 179.241 196.869L179.037 197.072C179.037 196.513 179.036 195.931 179.034 195.336C179.035 194.741 179.037 194.158 179.037 193.599L179.241 193.802C176.787 193.794 174.628 193.769 173.082 193.732C171.536 193.696 170.604 193.649 170.604 193.599C170.604 193.547 171.536 193.501 173.082 193.465C174.628 193.429 176.787 193.404 179.241 193.395L179.444 193.395V193.599C179.445 194.159 179.446 194.741 179.447 195.336C179.446 195.93 179.445 196.513 179.444 197.072V197.277L179.241 197.277C176.788 197.268 174.628 197.243 173.082 197.207C171.536 197.171 170.604 197.124 170.604 197.072Z" fill="#3F415C"/>
<path d="M186.92 141.849C186.901 141.831 186.882 141.454 186.856 140.794C186.831 140.133 186.798 139.196 186.78 138.038L186.92 138.178C184.336 138.219 180.58 138.245 176.408 138.245C176.223 138.429 176.659 137.993 176.613 138.038V138.041V138.045V138.053V138.069V138.1V138.162V138.286V138.533L176.613 139.025C176.612 139.351 176.612 139.674 176.611 139.993C176.609 140.629 176.607 141.25 176.606 141.849L176.407 141.65C179.401 141.661 181.998 141.704 183.873 141.743C184.759 141.766 185.496 141.784 186.086 141.799C186.609 141.816 186.903 141.833 186.92 141.849C186.937 141.866 186.675 141.883 186.177 141.9C185.599 141.915 184.877 141.933 184.009 141.956C182.146 141.995 179.486 142.038 176.407 142.049L176.208 142.05L176.207 141.85C176.206 141.251 176.204 140.631 176.202 139.994C176.201 139.675 176.201 139.352 176.201 139.027V138.534V138.287V138.163V138.101V138.07V138.054V138.047V138.043V138.041C176.155 138.085 176.592 137.648 176.408 137.833C180.579 137.833 184.336 137.859 186.92 137.899L187.062 137.902L187.06 138.039C187.042 139.261 187.008 140.229 186.983 140.88C186.958 141.529 186.939 141.868 186.92 141.849Z" fill="#3F415C"/>
<path d="M197.713 186.21C197.694 186.191 197.675 185.815 197.649 185.155C197.624 184.494 197.592 183.557 197.573 182.399L197.713 182.539C195.129 182.58 191.373 182.605 187.201 182.605C187.015 182.79 187.451 182.354 187.406 182.399V182.4V182.402V182.406V182.413V182.429V182.46V182.522V182.646V182.894V183.386C187.406 183.712 187.406 184.036 187.405 184.354C187.403 184.991 187.401 185.611 187.4 186.21L187.201 186.011C190.195 186.023 192.792 186.066 194.667 186.104C195.553 186.126 196.29 186.145 196.88 186.16C197.402 186.177 197.696 186.193 197.713 186.21C197.73 186.227 197.469 186.243 196.97 186.261C196.392 186.276 195.67 186.294 194.802 186.317C192.939 186.355 190.279 186.398 187.2 186.41L187.001 186.41L187 186.211C186.999 185.612 186.997 184.991 186.995 184.355C186.994 184.036 186.994 183.713 186.994 183.387V182.895V182.647V182.523V182.461V182.43V182.414V182.407V182.403V182.401C186.948 182.445 187.385 182.008 187.201 182.193C191.373 182.193 195.128 182.218 197.713 182.259L197.855 182.261L197.853 182.399C197.835 183.621 197.801 184.589 197.776 185.239C197.751 185.89 197.732 186.229 197.713 186.21Z" fill="#3F415C"/>
<path d="M184.008 200.884C183.989 200.865 183.97 200.489 183.944 199.829C183.919 199.168 183.887 198.231 183.868 197.073L184.008 197.213C181.424 197.254 177.668 197.28 173.496 197.28C173.31 197.464 173.746 197.028 173.701 197.073V197.074V197.076V197.08V197.087V197.103V197.134V197.196V197.32V197.568L173.701 198.06C173.7 198.386 173.7 198.708 173.699 199.027C173.697 199.664 173.695 200.285 173.694 200.883L173.495 200.685C176.489 200.696 179.086 200.738 180.961 200.778C181.847 200.799 182.584 200.818 183.174 200.833C183.697 200.851 183.991 200.867 184.008 200.884C184.024 200.901 183.763 200.917 183.265 200.935C182.687 200.95 181.965 200.968 181.097 200.991C179.234 201.03 176.574 201.072 173.495 201.084L173.296 201.084L173.295 200.885C173.294 200.286 173.292 199.665 173.29 199.029C173.289 198.71 173.289 198.387 173.288 198.061V197.57V197.322V197.198V197.136V197.105V197.089V197.081V197.078V197.075V197.075C173.243 197.119 173.68 196.683 173.496 196.868C177.668 196.868 181.423 196.893 184.008 196.934L184.15 196.936L184.148 197.074C184.13 198.296 184.096 199.264 184.071 199.914C184.046 200.564 184.027 200.903 184.008 200.884Z" fill="#3F415C"/>
<path d="M209.374 220.578C209.355 220.559 209.336 220.182 209.31 219.522C209.285 218.862 209.252 217.924 209.234 216.767L209.374 216.907C206.79 216.947 203.034 216.973 198.862 216.973C198.676 217.158 199.113 216.721 199.067 216.767V216.768V216.77V216.774V216.781V216.797V216.828V216.89V217.014V217.261L199.067 217.753C199.066 218.079 199.066 218.402 199.065 218.721C199.063 219.358 199.061 219.978 199.06 220.577L198.861 220.378C201.855 220.39 204.452 220.433 206.327 220.471C207.213 220.494 207.95 220.512 208.54 220.527C209.064 220.545 209.357 220.561 209.374 220.578C209.39 220.594 209.13 220.611 208.631 220.628C208.053 220.644 207.33 220.662 206.463 220.684C204.6 220.723 201.94 220.765 198.861 220.777L198.662 220.777L198.661 220.578C198.66 219.979 198.658 219.358 198.655 218.722C198.655 218.403 198.654 218.08 198.654 217.754V217.262V217.015V216.891V216.829V216.798V216.782V216.774V216.771V216.768C198.608 216.813 199.045 216.376 198.861 216.56C203.032 216.56 206.789 216.586 209.373 216.627L209.515 216.629L209.513 216.767C209.495 217.988 209.461 218.957 209.437 219.607C209.412 220.257 209.393 220.597 209.374 220.578Z" fill="#3F415C"/>
<path d="M216.001 224.566C215.982 224.547 215.963 224.17 215.937 223.51C215.912 222.85 215.88 221.912 215.861 220.755L216.001 220.895C213.417 220.935 209.661 220.961 205.489 220.961C205.303 221.146 205.74 220.709 205.694 220.755V220.756V220.758V220.762V220.769V220.785V220.816V220.878V221.002V221.25V221.742C205.693 222.069 205.693 222.391 205.693 222.71C205.69 223.346 205.689 223.967 205.687 224.566L205.489 224.367C208.483 224.378 211.08 224.421 212.955 224.46C213.841 224.483 214.578 224.501 215.168 224.516C215.691 224.533 215.984 224.549 216.001 224.566C216.017 224.582 215.757 224.599 215.258 224.616C214.68 224.632 213.958 224.65 213.09 224.672C211.227 224.712 208.567 224.754 205.488 224.765L205.289 224.766L205.288 224.566C205.287 223.967 205.284 223.346 205.283 222.71C205.282 222.391 205.282 222.068 205.281 221.742L205.281 221.25V221.002V220.878V220.816V220.785V220.769V220.762V220.758V220.756V220.755C205.235 220.799 205.672 220.363 205.488 220.548C209.66 220.548 213.416 220.573 216 220.614L216.142 220.616L216.14 220.754C216.122 221.976 216.088 222.944 216.063 223.594C216.039 224.245 216.02 224.585 216.001 224.566Z" fill="#3F415C"/>
<path d="M208.072 160.04C208.053 160.021 208.034 159.645 208.009 158.985C207.984 158.324 207.951 157.387 207.932 156.229L208.072 156.369C205.488 156.41 201.732 156.436 197.56 156.436C197.375 156.62 197.811 156.184 197.766 156.229V156.23V156.232V156.236V156.244V156.26V156.291V156.353V156.477V156.724V157.216C197.765 157.542 197.765 157.865 197.764 158.184C197.762 158.82 197.76 159.441 197.759 160.04L197.56 159.841C200.555 159.852 203.151 159.894 205.026 159.934C205.912 159.956 206.649 159.975 207.239 159.99C207.762 160.007 208.056 160.023 208.072 160.04C208.089 160.057 207.827 160.074 207.329 160.091C206.752 160.106 206.029 160.124 205.162 160.147C203.298 160.186 200.639 160.229 197.559 160.24L197.361 160.241L197.361 160.041C197.359 159.442 197.357 158.822 197.355 158.185C197.354 157.866 197.354 157.543 197.354 157.217L197.353 156.725V156.478V156.354V156.292V156.261V156.245V156.238V156.234V156.232V156.231C197.308 156.276 197.745 155.839 197.56 156.024C201.732 156.024 205.488 156.049 208.072 156.09L208.214 156.093L208.212 156.23C208.194 157.452 208.161 158.42 208.136 159.07C208.11 159.72 208.091 160.059 208.072 160.04Z" fill="#3F415C"/>
<path opacity="0.4" d="M173.137 117.625L200.222 123.737L202.238 238.93H216.436L212.313 117.625H173.137Z" fill="black"/>
<path d="M153.942 254.988C153.942 255.102 144.887 255.194 133.719 255.194C122.548 255.194 113.494 255.102 113.494 254.988C113.494 254.873 122.548 254.781 133.719 254.781C144.887 254.781 153.942 254.873 153.942 254.988Z" fill="#3F415C"/>
<path d="M237.636 238.846C237.64 238.874 237.18 238.972 236.344 239.123C235.436 239.277 234.241 239.48 232.797 239.725C229.798 240.215 225.653 240.865 221.07 241.556C220.466 241.647 219.869 241.737 219.285 241.825L219.404 241.761C217.637 243.65 215.992 245.409 214.558 246.942L214.516 246.987L214.457 246.996C212.159 247.322 210.228 247.595 208.79 247.799C208.153 247.879 207.628 247.944 207.203 247.997C206.836 248.036 206.64 248.049 206.637 248.031C206.634 248.013 206.825 247.965 207.186 247.892C207.607 247.813 208.128 247.716 208.758 247.599C210.19 247.359 212.114 247.035 214.402 246.65L214.301 246.704C215.722 245.158 217.352 243.386 219.102 241.481L219.151 241.429L219.223 241.418C219.807 241.33 220.404 241.239 221.008 241.147C225.591 240.456 229.744 239.852 232.753 239.435C234.205 239.243 235.407 239.083 236.32 238.962C237.163 238.861 237.632 238.817 237.636 238.846Z" fill="#3F415C"/>
<path d="M129.547 245.562C130.614 245.012 131.871 244.94 133.055 245.136C133.692 245.241 134.356 245.432 134.789 245.91C135.222 246.389 135.304 247.229 134.807 247.641C134.511 247.885 134.098 247.922 133.714 247.918C132.786 247.907 131.757 247.744 131.017 248.302C130.594 248.62 130.312 249.15 129.807 249.306C129.313 249.46 128.755 249.168 128.492 248.721C128.23 248.275 128.222 247.717 128.343 247.213C128.343 247.213 128.472 246.117 129.547 245.562Z" fill="#FF8977"/>
<path d="M127.103 240.842C127.755 241.774 129.024 241.466 129.612 240.896C130.2 240.327 130.449 239.503 130.675 238.717C131.192 236.921 131.713 235.035 131.329 233.206C131.214 232.658 131.009 232.113 130.625 231.707C130.241 231.301 129.65 231.06 129.109 231.203C128.469 231.372 128.072 231.998 127.784 232.594C126.94 234.346 126.493 236.287 126.486 238.232C126.483 239.14 126.59 240.092 127.103 240.842Z" fill="#FF8977"/>
<path d="M125.31 242.179C126.018 241.339 126.152 240.112 125.837 239.058C125.522 238.005 124.81 237.109 123.989 236.377C123.026 235.519 121.895 234.851 120.678 234.424C120.2 234.256 119.695 234.123 119.19 234.171C118.685 234.219 118.176 234.477 117.94 234.927C117.592 235.591 117.926 236.397 118.287 237.055C118.924 238.213 119.651 239.322 120.461 240.366C121.113 241.206 121.859 242.034 122.853 242.414C123.846 242.794 124.877 242.749 125.404 242.061" fill="#FF8977"/>
<path d="M127.057 254.902C127.069 254.903 127.089 254.752 127.116 254.479C127.146 254.171 127.184 253.783 127.228 253.323C127.282 252.837 127.353 252.258 127.489 251.627C127.623 250.998 127.834 250.317 128.105 249.626C128.385 248.939 128.727 248.315 129.127 247.816C129.524 247.314 129.985 246.951 130.419 246.741C130.851 246.528 131.239 246.441 131.507 246.403C131.777 246.375 131.929 246.353 131.929 246.341C131.929 246.329 131.777 246.328 131.499 246.335C131.224 246.353 130.82 246.422 130.364 246.629C129.907 246.832 129.418 247.201 129.001 247.713C128.582 248.222 128.228 248.86 127.942 249.56C127.667 250.263 127.459 250.952 127.331 251.593C127.202 252.234 127.144 252.82 127.105 253.31C127.068 253.801 127.055 254.199 127.048 254.473C127.042 254.75 127.046 254.902 127.057 254.902Z" fill="#3F415C"/>
<path d="M127.137 254.013C127.143 254.012 127.147 253.945 127.148 253.817C127.148 253.669 127.148 253.483 127.147 253.255C127.145 252.767 127.146 252.061 127.172 251.189C127.215 249.446 127.365 247.571 127.655 244.926C127.929 242.44 128.298 239.545 128.687 237.663C128.77 237.235 128.854 236.85 128.933 236.513C129.009 236.175 129.073 235.883 129.135 235.648C129.189 235.425 129.232 235.245 129.267 235.101C129.295 234.976 129.307 234.909 129.301 234.907C129.295 234.905 129.271 234.969 129.233 235.091C129.19 235.233 129.136 235.411 129.069 235.629C128.997 235.863 128.923 236.153 128.838 236.489C128.75 236.825 128.657 237.209 128.566 237.637C128.181 239.341 127.774 241.724 127.481 244.376C127.191 247.026 127.06 249.439 127.048 251.186C127.037 252.06 127.056 252.767 127.078 253.256C127.092 253.484 127.104 253.67 127.112 253.817C127.123 253.946 127.131 254.013 127.137 254.013Z" fill="#3F415C"/>
<path d="M127.149 249.358C127.161 249.358 127.159 249.15 127.145 248.772C127.123 248.394 127.072 247.849 126.965 247.181C126.852 246.515 126.695 245.724 126.448 244.864C126.341 244.471 126.089 243.529 125.479 242.122C124.675 240.215 123.583 238.656 122.633 237.691C122.41 237.435 122.162 237.25 121.964 237.069C121.861 236.982 121.771 236.896 121.678 236.827C121.585 236.763 121.499 236.703 121.419 236.648C121.106 236.434 120.931 236.321 120.925 236.332C120.897 236.37 121.625 236.798 122.545 237.777C123.461 238.754 124.522 240.301 125.319 242.192C125.764 243.217 126.074 244.132 126.294 244.909C126.548 245.761 126.716 246.544 126.844 247.204C126.965 247.865 127.035 248.405 127.078 248.779C127.112 249.151 127.137 249.359 127.149 249.358Z" fill="#3F415C"/>
<path d="M177.508 155.329H174.459V160.041H177.508V155.329Z" fill="#3F415C"/>
<path d="M177.508 161.334H174.459V166.046H177.508V161.334Z" fill="#3F415C"/>
<path d="M229.68 229.597C229.717 228.402 230.772 227.499 231.824 226.931C232.877 226.364 234.063 225.926 234.8 224.984C235.992 223.458 235.719 220.951 237.314 219.853C238.253 219.207 239.575 219.285 240.452 218.558C240.913 218.177 241.187 217.623 241.477 217.1C242.955 214.434 245.163 212.177 247.798 210.643C247.196 213.225 245.884 215.639 244.043 217.548C243.303 218.315 242.46 219.028 242.007 219.993C241.273 221.56 241.695 223.519 240.821 225.013C239.822 226.723 237.391 227.352 236.739 229.222C236.188 230.802 237.175 232.619 236.603 234.192C236.359 234.862 235.857 235.403 235.334 235.886C233.491 237.587 231.254 238.475 228.505 237.623L225.086 236.755L229.68 229.597Z" fill="#FF8977"/>
<g opacity="0.3">
<path d="M229.68 229.597C229.717 228.402 230.772 227.499 231.824 226.931C232.877 226.364 234.063 225.926 234.8 224.984C235.992 223.458 235.719 220.951 237.314 219.853C238.253 219.207 239.575 219.285 240.452 218.558C240.913 218.177 241.187 217.623 241.477 217.1C242.955 214.434 245.163 212.177 247.798 210.643C247.196 213.225 245.884 215.639 244.043 217.548C243.303 218.315 242.46 219.028 242.007 219.993C241.273 221.56 241.695 223.519 240.821 225.013C239.822 226.723 237.391 227.352 236.739 229.222C236.188 230.802 237.175 232.619 236.603 234.192C236.359 234.862 235.857 235.403 235.334 235.886C233.491 237.587 231.254 238.475 228.505 237.623L225.086 236.755L229.68 229.597Z" fill="black"/>
</g>
<path d="M224.376 236.644C224.376 236.644 224.029 236.637 223.443 236.368C222.871 236.099 221.996 235.64 221.26 234.633C221.093 234.374 220.937 234.069 220.909 233.709C220.882 233.352 220.961 233 221.042 232.638C221.226 231.922 221.431 231.153 221.178 230.335C220.985 229.527 220.509 228.666 220.57 227.631C220.61 226.611 221.075 225.638 221.527 224.667C221.979 223.696 222.444 222.647 222.363 221.496C222.309 220.347 221.844 219.177 221.817 217.856C221.798 216.522 222.352 215.268 222.642 213.978C222.792 213.329 222.852 212.667 222.746 212C222.648 211.33 222.433 210.655 222.318 209.93C222.086 208.458 222.405 206.974 222.651 205.512C222.779 204.775 222.907 204.031 223.038 203.279C223.171 202.52 223.316 201.784 223.291 201.021C223.289 200.258 223.189 199.488 223.093 198.701C223.049 198.305 222.995 197.908 223.019 197.475C223.071 197.038 223.16 196.669 223.251 196.265C223.601 194.664 224.391 193.182 225.028 191.69C225.047 191.645 225.065 191.6 225.082 191.56L225.197 191.287L225.414 191.485C226.706 192.666 227.202 194.401 227.334 196.003C227.475 197.636 227.232 199.225 227.093 200.758C226.947 202.29 226.897 203.815 227.285 205.224C227.657 206.614 228.461 207.985 228.265 209.527C228.034 211.058 226.877 212.082 226.682 213.363C226.443 214.645 226.966 215.903 227.34 217.101C227.747 218.292 228.011 219.597 227.71 220.783C227.456 221.959 226.976 222.993 226.761 224.029C226.532 225.061 226.617 226.085 226.779 227.03C226.942 227.978 227.176 228.864 227.342 229.708C227.517 230.543 227.623 231.366 227.518 232.108C227.421 232.847 227.216 233.5 226.969 234.057C226.476 235.176 225.792 235.885 225.259 236.238C224.72 236.595 224.376 236.644 224.376 236.644C224.365 236.616 224.701 236.54 225.209 236.171C225.713 235.805 226.36 235.098 226.819 233.994C227.05 233.446 227.238 232.805 227.32 232.087C227.409 231.367 227.298 230.591 227.113 229.756C226.938 228.923 226.694 228.04 226.517 227.076C226.343 226.119 226.241 225.054 226.473 223.971C226.688 222.891 227.161 221.849 227.395 220.72C227.67 219.59 227.42 218.398 227.011 217.208C226.814 216.61 226.594 215.998 226.437 215.349C226.279 214.703 226.189 214.001 226.321 213.299C226.563 211.867 227.713 210.826 227.885 209.478C228.066 208.113 227.309 206.784 226.901 205.33C226.489 203.845 226.543 202.267 226.687 200.722C226.827 199.172 227.061 197.611 226.922 196.039C226.794 194.488 226.313 192.867 225.132 191.791L225.463 191.716C225.445 191.758 225.426 191.803 225.408 191.848C224.751 193.382 223.99 194.807 223.649 196.362C223.562 196.739 223.468 197.152 223.426 197.506C223.406 197.871 223.453 198.265 223.497 198.655C223.591 199.436 223.694 200.226 223.695 201.02C223.72 201.817 223.564 202.605 223.432 203.346C223.3 204.099 223.169 204.843 223.04 205.58C222.785 207.051 222.479 208.495 222.694 209.873C222.799 210.56 223.012 211.238 223.115 211.948C223.226 212.661 223.155 213.392 222.997 214.059C222.684 215.397 222.145 216.616 222.16 217.854C222.171 219.088 222.627 220.266 222.681 221.481C222.758 222.721 222.249 223.829 221.791 224.792C221.327 225.762 220.878 226.698 220.832 227.645C220.76 228.591 221.204 229.431 221.402 230.28C221.51 230.704 221.548 231.144 221.489 231.553C221.434 231.961 221.321 232.332 221.232 232.686C221.147 233.037 221.067 233.384 221.087 233.698C221.106 234.01 221.24 234.298 221.394 234.546C222.075 235.521 222.928 236.008 223.477 236.294C224.043 236.582 224.382 236.621 224.376 236.644Z" fill="#3F415C"/>
<path d="M225.317 193.661C225.359 193.661 225.295 194.269 225.296 195.352C225.314 195.621 225.318 195.916 225.349 196.244C225.392 196.574 225.443 196.933 225.476 197.32C225.552 198.095 225.599 198.981 225.594 199.96C225.594 200.94 225.533 202.011 225.463 203.154C225.4 204.301 225.315 205.507 225.589 206.755C225.707 207.383 225.858 208.031 225.931 208.72C226.009 209.412 225.952 210.128 225.853 210.826C225.802 211.173 225.75 211.523 225.698 211.876C225.665 212.229 225.633 212.586 225.6 212.944C225.533 213.662 225.467 214.39 225.399 215.126C225.101 221.062 224.904 226.447 224.739 230.343C224.647 232.246 224.572 233.807 224.516 234.955C224.484 235.461 224.457 235.876 224.435 236.208C224.411 236.495 224.392 236.645 224.378 236.645C224.364 236.644 224.355 236.493 224.352 236.206C224.352 235.873 224.354 235.458 224.355 234.95C224.378 233.801 224.409 232.239 224.447 230.333C224.538 226.436 224.687 221.051 224.987 215.1C225.056 214.356 225.124 213.621 225.192 212.896C225.226 212.534 225.26 212.174 225.294 211.818C225.348 211.466 225.4 211.117 225.453 210.77C225.553 210.081 225.609 209.413 225.539 208.759C225.475 208.104 225.331 207.463 225.216 206.824C224.943 205.537 225.044 204.267 225.122 203.133C225.207 201.989 225.284 200.928 225.303 199.957C225.327 198.987 225.3 198.11 225.247 197.34C225.225 196.955 225.185 196.598 225.154 196.27C225.134 195.936 225.142 195.624 225.136 195.349C225.131 194.796 225.22 194.383 225.243 194.095C225.277 193.809 225.303 193.66 225.317 193.661Z" fill="#3F415C"/>
<path d="M223.775 236.48C221.949 234.521 222.478 230.349 224.1 228.218C225.722 226.087 227.976 224.365 228.971 221.878C229.736 219.967 229.682 217.76 230.701 215.971C232.076 213.556 235.196 212.286 235.945 209.61C236.366 208.108 235.925 206.452 236.429 204.976C237.048 203.166 238.88 202.122 240.223 200.762C242.279 198.678 243.22 195.78 244.485 193.14C245.751 190.501 247.673 187.84 250.529 187.194C250.205 189.654 250.354 191.447 249.228 194.579C248.825 195.704 246.855 197.508 245.941 199.965C245.395 201.434 244.882 202.914 244.352 204.388C243.837 205.823 243.308 207.283 242.386 208.497C241.679 209.428 240.757 210.19 240.143 211.184C238.988 213.056 239.082 215.474 238.028 217.403C237.135 219.037 235.488 220.187 234.725 221.886C233.652 224.272 234.508 227.327 232.991 229.459C232.239 230.518 230.994 231.181 230.365 232.316C229.876 233.198 229.817 234.264 229.348 235.155C228.591 236.591 225.333 236.927 223.805 236.379" fill="#FF8977"/>
<path d="M249.235 189.353C249.248 189.359 249.181 189.534 249.041 189.863C248.897 190.192 248.7 190.674 248.4 191.292C248.089 191.913 247.545 192.55 247.026 193.353C246.493 194.151 245.922 195.083 245.347 196.146C244.769 197.207 244.196 198.4 243.584 199.688C242.968 200.961 242.298 202.389 241.213 203.608C240.696 204.226 240.144 204.831 239.668 205.503C239.187 206.169 238.834 206.931 238.518 207.738C238.361 208.145 238.203 208.555 238.044 208.969C237.861 209.375 237.676 209.784 237.491 210.196C237.118 211.02 236.74 211.855 236.358 212.701C234.69 216.008 233.063 219.138 231.581 221.981C230.081 224.802 228.727 227.348 227.581 229.501C226.446 231.603 225.52 233.318 224.852 234.554C224.538 235.116 224.286 235.569 224.092 235.918C223.914 236.228 223.814 236.387 223.802 236.38C223.79 236.374 223.864 236.201 224.018 235.879C224.195 235.522 224.424 235.057 224.71 234.479C225.349 233.228 226.236 231.491 227.322 229.365C228.445 227.2 229.772 224.64 231.243 221.803C232.703 218.946 234.304 215.811 235.986 212.52C236.366 211.681 236.742 210.852 237.112 210.035C237.297 209.626 237.481 209.22 237.663 208.818C237.824 208.405 237.983 207.994 238.142 207.587C238.464 206.773 238.84 205.97 239.347 205.274C239.846 204.578 240.408 203.97 240.922 203.362C241.988 202.179 242.64 200.814 243.275 199.538C243.9 198.258 244.492 197.063 245.092 196.004C245.687 194.943 246.28 194.013 246.836 193.223C247.381 192.421 247.94 191.801 248.259 191.215C248.55 190.642 248.785 190.182 248.966 189.827C249.13 189.511 249.223 189.347 249.235 189.353Z" fill="#3F415C"/>
<path d="M235.232 265.532C240.771 267.11 246.672 266.597 251.964 264.328C253.229 263.786 254.515 263.322 255.846 263.058C262.548 261.735 269.193 265.672 276.024 265.74C280.119 265.781 284.08 264.431 288.12 263.731C284.502 261.181 280.036 258.073 280.036 258.073L278.874 255.265L268.827 252.201L256.921 244.456L249.441 243.417L241.267 239.059L216.435 234.78H168.419L154.973 243.187L125.973 244.838L113.556 254.629L95.3053 259.495L87.2539 265.59C89.2906 265.763 91.3295 265.86 93.3752 265.782C103.743 265.382 113.721 260.752 124.085 261.23C135.262 261.747 145.926 268.182 157.013 266.674C165.842 265.473 173.826 259.303 182.708 260.011C190.976 260.67 198.043 267.233 206.338 267.247C211.226 267.256 215.781 264.97 220.489 263.655C225.975 262.121 229.625 263.935 235.232 265.532Z" fill="#616274"/>
<path d="M322.145 239.78C322.145 239.873 315.68 239.947 307.706 239.947C299.729 239.947 293.266 239.873 293.266 239.78C293.266 239.688 299.729 239.613 307.706 239.613C315.679 239.613 322.145 239.688 322.145 239.78Z" fill="#616274"/>
<path d="M317.68 243.072C317.68 243.165 313.537 243.239 308.427 243.239C303.316 243.239 299.174 243.165 299.174 243.072C299.174 242.98 303.316 242.905 308.427 242.905C313.537 242.905 317.68 242.98 317.68 243.072Z" fill="#616274"/>
<path d="M310.141 246.614C310.141 246.706 309.502 246.781 308.713 246.781C307.925 246.781 307.285 246.706 307.285 246.614C307.285 246.522 307.925 246.447 308.713 246.447C309.502 246.447 310.141 246.522 310.141 246.614Z" fill="#616274"/>
<path d="M315.288 229.565V221.051H308.399V216.436H306.464V221.284H305.458V216.485H303.754V221.052H293.228V222.445H294.691C294.635 223.211 294.597 224.708 294.597 226.432C294.597 227.632 294.615 228.719 294.645 229.529L287.268 229.567L293.769 236.766H320.551L325.66 229.567H315.288V229.565ZM294.862 222.445H298.175C298.119 223.21 298.081 224.707 298.081 226.431C298.081 227.622 298.1 228.702 298.13 229.51L294.908 229.527C294.938 228.717 294.956 227.63 294.956 226.431C294.955 224.707 294.918 223.21 294.862 222.445ZM302.439 229.488L298.39 229.509C298.419 228.701 298.437 227.621 298.437 226.431C298.437 224.707 298.4 223.21 298.344 222.445H302.439V229.488Z" fill="#616274"/>
</svg>
