<svg width="240" height="240" viewBox="0 0 240 240" fill="none" xmlns="http://www.w3.org/2000/svg">
<rect width="240" height="240" fill="#B6B6B6"/>
<path d="M-3905 -500C-3905 -501.105 -3904.1 -502 -3903 -502H5754C5755.1 -502 5756 -501.105 5756 -500V1592C5756 1593.1 5755.1 1594 5754 1594H-3903C-3904.1 1594 -3905 1593.1 -3905 1592V-500Z" fill="white"/>
<path d="M-3903 -501H5754V-503H-3903V-501ZM5755 -500V1592H5757V-500H5755ZM5754 1593H-3903V1595H5754V1593ZM-3904 1592V-500H-3906V1592H-3904ZM-3903 1593C-3903.55 1593 -3904 1592.55 -3904 1592H-3906C-3906 1593.66 -3904.66 1595 -3903 1595V1593ZM5755 1592C5755 1592.55 5754.55 1593 5754 1593V1595C5755.66 1595 5757 1593.66 5757 1592H5755ZM5754 -501C5754.55 -501 5755 -500.552 5755 -500H5757C5757 -501.657 5755.66 -503 5754 -503V-501ZM-3903 -503C-3904.66 -503 -3906 -501.657 -3906 -500H-3904C-3904 -500.552 -3903.55 -501 -3903 -501V-503Z" fill="black" fill-opacity="0.1"/>
<g clip-path="url(#clip0_661_8202)">
<rect x="-600" y="-419" width="1440" height="1450" fill="white"/>
<g clip-path="url(#clip1_661_8202)">
<path d="M240 0H0V240H240V0Z" fill="white"/>
<path d="M191.599 189.318C186.716 194.351 182.347 197.31 179.002 199.544C146.378 221.327 109.085 215.048 97.5551 212.902C78.9529 209.44 63.2501 206.998 49.7585 194.809C19.1017 167.111 20.5928 109.333 44.0184 73.5416C46.796 69.2978 70.1861 34.6263 107.56 29.7409C108.474 29.6214 109.156 29.5533 109.753 29.4901C115.535 28.8779 151.362 25.6471 180.576 50.1224C184.757 53.6258 191.487 59.9453 197.728 69.5834C220.546 104.825 220.619 159.406 191.599 189.318Z" fill="#F4F7FA"/>
<path d="M134.982 170.64C98.1711 176.961 86.8511 172.062 83.5086 166.18C81.5653 162.76 81.3647 157.329 75.821 150.474C71.1488 144.696 68.4609 145.053 66.4598 140.623C62.9886 132.939 69.6097 128.619 66.9114 121.177C63.9572 113.029 54.6628 114.463 50.6339 104.732C48.43 99.4094 51.017 98.5117 49.0552 93.207C45.0564 82.3938 33.2751 83.3332 29.3611 73.5806C27.0825 67.903 28.2553 60.5575 32.0041 56.2311C39.5231 47.5532 57.5264 50.8813 67.7095 58.9281C69.0212 59.9647 78.8939 67.9935 79.8497 79.8826C80.4264 87.0561 77.3362 90.4009 79.8825 94.7683C83.4745 100.93 91.6089 97.6764 95.1814 103.15C100.022 110.567 88.5398 121.83 94.0721 130.177C96.2133 133.407 98.4767 132.54 100.617 136.25C104.138 142.351 100.035 148.198 100.845 153.277C101.715 158.731 108.582 165.391 134.982 170.64Z" fill="url(#paint0_linear_661_8202)"/>
<path opacity="0.28" d="M66.8893 75.8786C71.6661 86.9009 63.8796 93.8669 69.4726 102.561C74.0149 109.622 81.1776 108.179 83.1364 114.753C85.0135 121.053 78.9462 124.097 80.6059 131.294C81.9739 137.225 86.5798 137.255 91.1804 144.927C95.8115 152.649 93.9391 157.279 96.3175 161.996C98.8707 167.06 106.115 171.809 125.612 172.086C128.537 171.69 131.654 171.212 134.983 170.64C108.583 165.391 101.715 158.731 100.846 153.277C100.036 148.198 104.138 142.351 100.618 136.25C98.4773 132.54 96.2138 133.407 94.0725 130.177C88.5403 121.83 100.023 110.567 95.1819 103.15C91.6093 97.6764 83.475 100.93 79.883 94.7683C77.3367 90.4009 80.427 87.0561 79.8502 79.8826C78.8944 67.9935 69.0217 59.9648 67.7099 58.9281C57.5269 50.8813 39.5236 47.5532 32.0045 56.2311C31.9684 56.2728 31.9341 56.3166 31.8984 56.3588C36.9267 56.5374 43.0916 57.5619 49.4748 60.6056C54.4319 62.9694 63.0825 67.0943 66.8893 75.8786Z" fill="white"/>
<path d="M123.143 174.441C110.693 171.274 107.157 167.435 106.611 164.213C105.716 158.94 112.891 155.69 111.93 149.68C110.824 142.757 100.382 141.321 100.704 136.77C101.052 131.85 113.345 132.202 115.882 125.12C118.182 118.699 109.314 114.963 109.383 105.638C109.464 94.5036 122.162 91.8904 124.393 79.2153C125.917 70.5602 121.506 63.203 118.045 57.4295C110.257 44.4387 94.2559 31.8076 76.1495 33.0878C73.6798 33.2624 59.2651 34.2817 55.6948 42.7336C52.0754 51.3015 60.7154 64.8675 69.5546 72.0569C75.9613 77.268 81.3306 78.2 81.6137 82.3028C81.9955 87.8338 72.4937 89.8557 71.5919 97.9155C71.1151 102.177 73.3006 105.817 75.4503 109.398C80.323 117.514 85.0748 117.211 85.7719 121.709C86.7259 127.863 78.1308 130.376 76.2227 139.584C74.8633 146.144 77.7774 151.86 79.4193 155.082C85.8201 167.639 103.059 174.831 123.143 174.441Z" fill="url(#paint1_linear_661_8202)"/>
<mask id="mask0_661_8202" style="mask-type:luminance" maskUnits="userSpaceOnUse" x="54" y="32" width="71" height="143">
<path d="M123.143 174.441C110.693 171.274 107.157 167.435 106.611 164.213C105.716 158.94 112.891 155.69 111.93 149.68C110.824 142.757 100.382 141.321 100.704 136.77C101.052 131.85 113.345 132.202 115.882 125.12C118.182 118.699 109.314 114.963 109.383 105.638C109.464 94.5036 122.162 91.8904 124.393 79.2153C125.917 70.5602 121.506 63.203 118.045 57.4295C110.257 44.4387 94.2559 31.8076 76.1495 33.0878C73.6798 33.2624 59.2651 34.2817 55.6948 42.7336C52.0754 51.3015 60.7154 64.8675 69.5546 72.0569C75.9613 77.268 81.3306 78.2 81.6137 82.3028C81.9955 87.8338 72.4937 89.8557 71.5919 97.9155C71.1151 102.177 73.3006 105.817 75.4503 109.398C80.323 117.514 85.0748 117.211 85.7719 121.709C86.7259 127.863 78.1308 130.376 76.2227 139.584C74.8633 146.144 77.7774 151.86 79.4193 155.082C85.8201 167.639 103.059 174.831 123.143 174.441Z" fill="white"/>
</mask>
<g mask="url(#mask0_661_8202)">
<path opacity="0.7" d="M51.114 38.4414C58.9481 42.0338 66.767 45.6632 74.5747 49.3172C78.4847 51.1313 82.3784 52.9793 86.2405 54.8969C88.173 55.8529 90.1006 56.8199 92.0144 57.8178C93.9273 58.8171 95.8293 59.8426 97.6809 60.9705C98.6056 61.536 99.5176 62.1284 100.392 62.7847C100.832 63.1081 101.254 63.4619 101.667 63.8264C102.072 64.2012 102.463 64.5973 102.818 65.0306C103.17 65.4663 103.482 65.9424 103.73 66.4524C103.979 66.9621 104.16 67.5045 104.28 68.0529C104.504 69.1514 104.536 70.2943 104.328 71.3972C104.126 72.501 103.71 73.5491 103.187 74.5197C102.663 75.4931 102.023 76.3862 101.355 77.2457C100.01 78.9624 98.5106 80.5202 97.0755 82.1193C95.6384 83.7145 94.2464 85.3471 93.0977 87.1364C92.5335 88.0349 92.0174 88.9632 91.6112 89.9382C91.2158 90.9158 90.9034 91.9258 90.7243 92.9629C90.3939 95.0347 90.5214 97.1988 91.1653 99.1983C91.4906 100.198 91.9537 101.149 92.503 102.051C93.0542 102.954 93.6996 103.804 94.363 104.646C95.0276 105.49 95.7182 106.323 96.3515 107.213C96.6729 107.653 96.9685 108.116 97.253 108.586C97.5246 109.064 97.7898 109.548 98.0017 110.059C98.4461 111.072 98.7346 112.155 98.8634 113.251C98.9944 114.349 98.9834 115.455 98.8544 116.548C98.7221 117.641 98.4567 118.722 98.0483 119.747C97.6374 120.77 97.1062 121.74 96.4979 122.646C95.2948 124.47 93.8003 126.05 92.7566 127.887C92.2328 128.8 91.8534 129.786 91.6824 130.814C91.5218 131.842 91.5489 132.904 91.7517 133.934C91.9547 134.962 92.3283 135.954 92.8455 136.871C93.3707 137.784 94.0149 138.631 94.7279 139.424C96.1433 141.02 97.7955 142.434 99.1362 144.169C99.8056 145.032 100.38 145.987 100.77 147.022C101.151 148.059 101.341 149.165 101.341 150.265C101.335 151.365 101.15 152.474 100.749 153.503C100.348 154.533 99.7546 155.463 99.1696 156.364C98.5946 157.263 98.0203 158.178 97.8604 159.205C97.6674 160.225 97.9076 161.287 98.3838 162.213C98.8766 163.139 99.5695 163.959 100.352 164.678C101.134 165.401 101.994 166.042 102.888 166.631C104.686 167.798 106.604 168.78 108.566 169.658C110.528 170.538 112.534 171.321 114.56 172.048C116.587 172.773 118.633 173.447 120.694 174.071C124.815 175.328 128.983 176.427 133.168 177.451L133.161 177.48C128.967 176.493 124.788 175.431 120.653 174.209C118.584 173.603 116.53 172.946 114.493 172.238C112.457 171.528 110.439 170.76 108.461 169.894C106.483 169.03 104.545 168.06 102.715 166.896C101.806 166.308 100.926 165.665 100.119 164.931C99.3102 164.202 98.5832 163.36 98.0583 162.383C97.5482 161.406 97.2785 160.255 97.4824 159.142C97.5589 158.583 97.7719 158.058 98.0091 157.562C98.2507 157.063 98.5472 156.607 98.8337 156.148C99.4163 155.242 99.9839 154.339 100.361 153.354C100.738 152.371 100.909 151.32 100.91 150.266C100.904 149.211 100.718 148.163 100.351 147.179C99.9751 146.198 99.4236 145.287 98.7696 144.453C97.4622 142.775 95.8119 141.374 94.3586 139.755C93.6276 138.95 92.9547 138.077 92.4006 137.124C91.8542 136.167 91.4527 135.12 91.2336 134.036C91.0149 132.953 90.9785 131.829 91.1453 130.727C91.3219 129.627 91.7253 128.569 92.2682 127.612C92.8035 126.648 93.459 125.772 94.1098 124.912C94.7641 124.053 95.4198 123.206 96.008 122.321C96.5988 121.437 97.1055 120.506 97.4965 119.528C97.8845 118.55 98.1349 117.521 98.2599 116.476C98.5011 114.386 98.3013 112.222 97.4423 110.301C96.6165 108.36 95.2169 106.719 93.8768 105.032C93.2066 104.183 92.5439 103.315 91.9699 102.379C91.398 101.443 90.9094 100.445 90.5658 99.3945C89.8851 97.2896 89.7485 95.0347 90.0919 92.8562C90.2779 91.7675 90.6033 90.7093 91.0142 89.6899C91.4357 88.6734 91.9684 87.7119 92.5481 86.7859C93.727 84.9431 95.1407 83.2831 96.5827 81.6765C98.0225 80.0674 99.5131 78.5122 100.824 76.8316C101.476 75.9909 102.094 75.1239 102.59 74.197C103.087 73.2722 103.471 72.2913 103.655 71.2739C103.846 70.2575 103.812 69.2125 103.608 68.2001C103.398 67.1896 102.944 66.2599 102.292 65.4549C101.965 65.0535 101.6 64.6792 101.216 64.3213C100.822 63.972 100.42 63.6302 99.9925 63.3139C99.146 62.6735 98.2513 62.0869 97.3404 61.5249C95.5157 60.4035 93.6261 59.3749 91.7238 58.3718C89.8204 57.3698 87.8996 56.3969 85.9733 55.4346L80.1834 52.5655C78.2558 51.6032 76.3058 50.6874 74.3673 49.7475C66.5994 46.0165 58.8428 42.261 51.1016 38.4684L51.114 38.4414Z" fill="white"/>
</g>
<path d="M116.02 171.104C113.012 172.67 108.113 174.97 101.775 176.781C88.7214 180.51 66.266 183.107 58.5489 173.021C57.6004 171.781 55.0938 168.504 55.4262 164.457C55.7717 160.249 58.8785 158.95 58.4159 156.32C57.7834 152.723 51.5963 152.995 45.4454 148.867C40.2215 145.36 33.9356 137.949 34.5428 129.231C35.2086 119.672 43.7653 114.236 44.6961 113.665C51.0205 109.786 60.767 108.383 66.8607 113.283C72.2526 117.619 72.7573 125.26 73.0903 130.302C73.844 141.712 69.0718 146.843 72.5092 150.839C75.6396 154.477 80.9491 151.793 84.7543 156.647C86.3804 158.721 85.916 159.856 88.4576 163.915C90.3807 166.987 92.4575 169.23 93.3115 170.025C99.9208 176.184 114.709 171.531 116.02 171.104Z" fill="url(#paint2_linear_661_8202)"/>
<mask id="mask1_661_8202" style="mask-type:luminance" maskUnits="userSpaceOnUse" x="34" y="110" width="83" height="71">
<path d="M116.02 171.104C113.012 172.67 108.113 174.97 101.775 176.781C88.7214 180.51 66.266 183.107 58.5489 173.021C57.6004 171.781 55.0938 168.504 55.4262 164.457C55.7717 160.249 58.8785 158.95 58.4159 156.32C57.7834 152.723 51.5963 152.995 45.4454 148.867C40.2215 145.36 33.9356 137.949 34.5428 129.231C35.2086 119.672 43.7653 114.236 44.6961 113.665C51.0205 109.786 60.767 108.383 66.8607 113.283C72.2526 117.619 72.7573 125.26 73.0903 130.302C73.844 141.712 69.0718 146.843 72.5092 150.839C75.6396 154.477 80.9491 151.793 84.7543 156.647C86.3804 158.721 85.916 159.856 88.4576 163.915C90.3807 166.987 92.4575 169.23 93.3115 170.025C99.9208 176.184 114.709 171.531 116.02 171.104Z" fill="white"/>
</mask>
<g mask="url(#mask1_661_8202)">
<path opacity="0.5" d="M107.839 174.893C101.628 174.893 95.4614 174.487 89.4137 173.677C71.1267 171.23 69.0601 167.135 68.3811 165.789C67.3256 163.697 67.5173 161.938 67.7202 160.076C67.9483 157.983 68.1841 155.818 66.8118 152.814C65.5599 150.074 63.9281 148.801 62.35 147.57C60.8111 146.37 59.2198 145.129 58.0492 142.545C56.5409 139.215 56.9979 136.513 57.4818 133.653C57.7472 132.085 58.0216 130.463 57.9924 128.646C57.8774 121.47 52.9273 114.121 43.2793 106.804L43.4181 106.621C53.1252 113.983 58.106 121.392 58.222 128.642C58.2514 130.48 57.9754 132.113 57.7083 133.691C57.2303 136.516 56.7789 139.184 58.2584 142.451C59.4055 144.983 60.9044 146.152 62.4912 147.389C64.0911 148.637 65.7454 149.927 67.0205 152.719C68.4192 155.78 68.169 158.076 67.9485 160.101C67.7493 161.928 67.5612 163.655 68.5861 165.686C69.2517 167.004 71.2771 171.018 89.4442 173.45C98.4314 174.653 107.685 174.963 116.947 174.373L116.962 174.602C113.917 174.796 110.872 174.893 107.839 174.893Z" fill="white"/>
</g>
<path d="M115.081 199.152L68.6152 195.617V64.8623L115.081 61.4209V199.152Z" fill="url(#paint3_linear_661_8202)"/>
<path d="M72.207 189.903V70.5849L115.082 67.7031V192.87L72.207 189.903Z" fill="white"/>
<mask id="mask2_661_8202" style="mask-type:luminance" maskUnits="userSpaceOnUse" x="72" y="67" width="44" height="126">
<path d="M72.207 189.903V70.5849L115.082 67.7031V192.87L72.207 189.903Z" fill="white"/>
</mask>
<g mask="url(#mask2_661_8202)">
<path d="M242.289 98.6909L196.182 100.045C196.029 74.7283 195.902 38.5547 196.152 35.1976C196.139 35.3685 196.053 36.2722 195.61 37.2926L189.502 32.0088C188.847 33.5308 188.827 34.8035 188.774 38.205C188.744 40.1351 188.723 42.9054 188.712 46.4391C188.693 52.3531 188.7 60.5153 188.733 70.6998C188.789 88.026 188.903 105.453 188.904 105.627L188.939 110.892L204.757 110.597V148.523L174.926 147.955L157.104 112.29L132.622 112.726L165.504 53.2085L160.303 46.8544L124.154 112.877L108.599 113.153C108.621 107.166 108.656 96.521 108.678 85.9207C108.697 76.5575 108.701 69.0614 108.69 63.6409C108.669 52.8315 108.629 52.708 108.408 52.0228L105.502 54.5863C105.386 54.2244 105.361 53.918 105.357 53.8603C105.509 56.1093 105.441 88.9382 105.35 113.211L89.1064 113.5C86.1564 96.0495 79.2589 55.2742 79.0269 54.1476L73.6166 57.5808L73.6034 57.5139C73.8981 59.0907 79.9946 95.3445 84.0666 119.603L84.6528 123.095L118.691 122.854L97.5443 161.476L56.043 159.995V169.204L100.284 171.257L127.058 122.795L153.715 122.607L166.187 147.789L133.234 147.162V218.695L136.686 219.025V152.586L168.959 153.384L201.505 219.096L207.497 213.133L177.748 153.601L208.757 154.368V110.522L242.289 109.897V98.6909H242.289Z" fill="#D8DEE8"/>
</g>
<path d="M146.773 191.638H200.966V69.1152H146.773V191.638Z" fill="url(#paint4_linear_661_8202)"/>
<path d="M196.572 186.041L196.572 74.627L146.774 74.627L146.774 186.041H196.572Z" fill="white"/>
<mask id="mask3_661_8202" style="mask-type:luminance" maskUnits="userSpaceOnUse" x="146" y="74" width="51" height="113">
<path d="M196.572 186.041L196.572 74.627L146.774 74.627L146.774 186.041H196.572Z" fill="white"/>
</mask>
<g mask="url(#mask3_661_8202)">
<path d="M216.276 105.535H175.084C174.94 84.8237 174.822 55.2262 175.055 52.4992C175.043 52.638 174.963 53.3705 174.549 54.1718L168.798 49.3574C168.177 50.5583 168.158 51.6054 168.108 54.4038C168.079 55.9918 168.059 58.2729 168.049 61.1838C168.031 66.0556 168.037 72.7817 168.069 81.1753C168.122 95.4535 168.231 109.814 168.232 109.957L168.264 114.295H183.03V145.048H154.785L137.071 114.981H111.638L145.501 65.2569L140.299 59.5196L102.528 114.981H85.3523C85.3768 109.613 85.4171 100.072 85.4412 90.5711C85.4625 82.1791 85.4671 75.4602 85.4549 70.6009C85.4306 60.91 85.386 60.7964 85.1381 60.1653L81.8629 62.2492C81.7318 61.9151 81.703 61.6375 81.6986 61.5853C81.8707 63.6198 81.7939 93.1467 81.6911 114.981H62.9831C59.5121 98.8933 51.3061 60.8841 51.0279 59.8222L44.4973 62.5924L44.4812 62.529C44.839 64.021 52.1874 98.0269 57.0395 120.52L57.7343 123.741H96.5619L72.7853 158.653H22.7168V167.414H75.9286L105.671 123.741H133.628L146.181 145.048H112.29V207.485H115.951V149.707H148.926L180.033 202.508L185.541 197.253L157.53 149.707H186.691V114.295H216.276V105.535Z" fill="#D8DEE8"/>
</g>
<path d="M146.775 191.639L115.082 199.152V61.4209L146.775 69.1157V191.639Z" fill="url(#paint5_linear_661_8202)"/>
<path d="M115.082 192.87V67.7031L146.775 74.7043V186.051L115.082 192.87Z" fill="#D8DEE8"/>
<mask id="mask4_661_8202" style="mask-type:luminance" maskUnits="userSpaceOnUse" x="115" y="67" width="32" height="126">
<path d="M115.082 192.87V67.7031L146.775 74.7043V186.051L115.082 192.87Z" fill="white"/>
</mask>
<g mask="url(#mask4_661_8202)">
<path d="M178.447 108.758L160.699 106.985C160.632 87.4029 160.577 59.4122 160.686 56.8676C160.68 56.997 160.643 57.678 160.45 58.3772L157.74 52.9567C157.444 54.012 157.435 55.0119 157.411 57.6846C157.397 59.2015 157.388 61.3837 157.383 64.1705C157.374 68.8349 157.377 75.2786 157.392 83.3218C157.418 97.0016 157.469 110.759 157.47 110.897L157.486 115.051L164.339 115.501V144.121L150.875 144.858L141.625 114.709L127.085 113.794L146.11 65.1685L143.361 58.6497L121.475 113.44L110.249 112.734C110.266 106.604 110.293 95.7082 110.31 84.8587C110.324 75.2768 110.327 67.6041 110.319 62.0524C110.302 50.9801 110.272 50.8419 110.103 50.0743L107.858 51.8512C107.767 51.4419 107.747 51.1167 107.744 51.0557C107.863 53.4311 107.81 87.4293 107.739 112.576L94.2084 111.724C91.56 92.0026 85.1139 44.0311 84.8906 42.6514L79.5585 44.6618L79.5452 44.5782C79.8419 46.5398 85.819 90.2071 89.6454 118.211L90.1858 122.166L117.675 122.954L101.449 163.574L60.4023 168.006V179.723L103.7 173.563L123.437 123.119L139.747 123.587L146.465 145.099L127.479 146.138V213.254L129.665 212.6V150.988L147.889 149.658L162.979 197.977L165.466 192.414L152.25 149.34L165.979 148.338V115.609L178.447 116.428V108.758Z" fill="#A2A7AE"/>
</g>
<path d="M212.545 67.0633C212.545 84.1771 188.569 115.406 177.719 128.663C175.019 131.962 169.971 131.962 167.271 128.663C156.421 115.406 132.445 84.1771 132.445 67.0633C132.445 44.9445 150.376 27.0137 172.495 27.0137C194.614 27.0137 212.545 44.9445 212.545 67.0633Z" fill="url(#paint6_linear_661_8202)"/>
<path d="M172.494 89.399C184.83 89.399 194.831 79.3988 194.831 67.0628C194.831 54.7268 184.83 44.7266 172.494 44.7266C160.158 44.7266 150.158 54.7268 150.158 67.0628C150.158 79.3988 160.158 89.399 172.494 89.399Z" fill="white"/>
<g opacity="0.3">
<path d="M172.318 112.219C174.859 95.4858 185.909 90.1297 184.012 74.3295C181.825 56.1075 165.691 51.2543 165.301 35.0366C165.239 32.4257 165.594 29.9079 166.264 27.4971C147.105 30.4903 132.445 47.0643 132.445 67.0634C132.445 84.1772 156.421 115.406 167.271 128.663C168.86 130.604 171.263 131.402 173.521 131.058C171.579 123.729 171.521 117.47 172.318 112.219Z" fill="url(#paint7_linear_661_8202)"/>
</g>
<path d="M172.495 156.333C177.016 156.333 180.681 152.668 180.681 148.147C180.681 143.626 177.016 139.961 172.495 139.961C167.974 139.961 164.309 143.626 164.309 148.147C164.309 152.668 167.974 156.333 172.495 156.333Z" fill="url(#paint8_linear_661_8202)"/>
<path d="M106.627 199.438C94.683 197.987 92.2174 200.794 80.0661 200.243C68.1139 199.702 67.2937 196.841 57.5299 197.426C48.7518 197.953 37.4485 200.983 37.4083 204.268C37.364 207.883 50.9507 212.967 63.9689 211.109C71.2127 210.075 70.7127 207.972 77.6516 207.085C90.2223 205.476 93.9179 212.116 106.627 210.707C113.98 209.891 121.657 206.68 121.517 204.268C121.34 201.226 108.755 199.697 106.627 199.438Z" fill="#D8DEE8"/>
<path d="M103.421 93.4234C103.147 92.9986 102.647 92.0946 102.615 90.8807C102.553 88.5218 104.302 86.6819 104.538 86.7875C104.664 86.8445 104.503 87.5356 104.413 87.8419C104.226 88.4796 104.024 88.5412 104.041 88.8341C104.076 89.4371 104.947 89.4605 105.406 90.2605C105.736 90.8367 105.763 91.6575 105.406 92.3071C104.813 93.3847 103.477 93.4227 103.421 93.4234Z" fill="url(#paint9_linear_661_8202)"/>
<path d="M66.0491 144.658L66.7215 142.344L63.9141 140.264L62.1641 139.609L63.2002 142.847L66.0491 144.658Z" fill="url(#paint10_linear_661_8202)"/>
<path d="M69.5246 191.263C69.5246 191.263 67.989 195.126 68.3931 196.839C66.7444 196.807 65.6777 196.597 65.6777 196.597C65.6777 196.597 66.3404 194.835 66.4697 193.962C66.6444 192.783 66.6314 190.875 66.6314 190.875L69.5246 191.263Z" fill="url(#paint11_linear_661_8202)"/>
<path d="M86.4515 200.299C86.3521 200.418 86.176 200.669 86.1611 201.008C86.1531 201.193 86.1953 201.344 86.2483 201.484C86.5101 202.173 86.9213 202.264 87.3651 202.995C87.6362 203.441 87.585 203.576 87.8334 203.778C88.1608 204.043 88.5569 204.059 88.9002 204.063C89.4803 204.069 90.3155 204.049 91.3671 203.923C90.816 203.213 90.23 202.491 89.6068 201.763C89.3334 201.443 89.0605 201.131 88.7884 200.827L87.1681 200.279C86.9291 200.286 86.6902 200.292 86.4515 200.299Z" fill="#26264F"/>
<path d="M87.7974 192.432C87.7974 192.432 88.7236 197.264 87.545 198.617C86.5411 199.97 88.03 199.005 88.03 199.005L89.808 200.557L90.8746 202.4C90.8746 202.4 89.8927 197.67 90.1546 195.793C90.4164 193.916 90.5474 192.65 90.5474 192.65L87.7974 192.432Z" fill="url(#paint12_linear_661_8202)"/>
<path d="M91.2905 139.571C91.2905 139.571 93.7786 141.797 93.7786 150.964C93.7786 160.13 92.6 180.035 92.6 180.035L90.714 194.286C90.714 194.286 88.7586 194.356 87.4491 193.963C86.2705 188.594 84.35 179.511 85.2667 171.916C85.6595 163.666 81.9929 153.321 81.9929 153.321C81.9929 153.321 78.8499 163.797 76.6238 169.035C74.3975 174.273 70.1592 190.683 69.7664 191.861C67.1614 192.098 66.0488 191.409 66.0488 191.409C66.0488 191.409 67.7191 173.749 69.2904 167.071C70.8618 160.392 70.731 144.285 73.35 139.702C79.2428 137.345 91.2905 139.571 91.2905 139.571Z" fill="url(#paint13_linear_661_8202)"/>
<path d="M91.2904 139.571C91.2904 139.571 93.7787 141.797 93.7787 150.964C93.7787 160.13 92.6 180.035 92.6 180.035L90.714 194.286C90.714 194.286 88.7586 194.356 87.4491 193.963C86.2705 188.594 84.35 179.511 85.2666 171.916C85.6595 163.666 81.9929 153.321 81.9929 153.321C81.9929 153.321 78.8499 163.797 76.6238 169.035C74.3975 174.273 70.1591 190.683 69.7663 191.862C67.1615 192.098 66.0488 191.409 66.0488 191.409C66.0488 191.409 67.7191 173.749 69.2904 167.071C70.862 160.392 70.731 144.285 73.3499 139.702C79.2427 137.345 91.2904 139.571 91.2904 139.571Z" fill="url(#paint14_linear_661_8202)"/>
<path opacity="0.25" d="M78.3652 156.367C77.5895 161.41 76.0378 164.125 72.1585 167.616C69.0552 169.944 71.3827 174.987 70.2189 178.866C69.831 180.03 68.6672 181.194 68.2793 182.357C66.8358 185.245 68.1841 188.776 67.5296 191.833C66.511 191.692 66.0488 191.409 66.0488 191.409C66.0488 191.409 67.7191 173.749 69.2904 167.071C70.862 160.392 70.731 144.285 73.3499 139.702C79.2427 137.345 91.2904 139.571 91.2904 139.571C91.2904 139.571 93.7786 141.797 93.7786 150.964C93.7786 151.708 93.7707 152.523 93.7564 153.392C91.1733 155.678 85.8905 156.186 82.6322 153.652C82.4355 153.504 82.2261 153.413 82.0097 153.369C81.9997 153.34 81.9929 153.321 81.9929 153.321C81.9929 153.321 81.9874 153.339 81.9792 153.366C80.4963 153.096 78.7017 155.021 78.3652 156.367Z" fill="url(#paint15_linear_661_8202)"/>
<path d="M68.7969 198.306C68.7969 198.306 69.1797 198.306 69.1478 198.8C69.1158 199.294 69.3201 200.995 67.3747 201.075C65.4293 201.154 65.1293 200.937 65.0655 200.937C65.0017 200.937 65.5758 199.31 65.5758 199.31L66.1978 198.513L67.8721 198.338L68.7969 198.306Z" fill="#26264F"/>
<path d="M64.4826 200.012C64.5241 199.602 64.7539 198.955 64.985 198.435C65.3284 197.663 65.0465 197.373 65.3748 196.67C65.4883 196.426 65.5986 196.195 65.8384 195.967C65.8936 195.914 66.4304 195.418 67.2122 195.443C67.366 195.448 67.6029 195.459 67.8589 195.595C68.1604 195.756 68.3116 195.997 68.4407 196.209C68.6435 196.542 68.597 196.645 68.9094 197.599C68.9346 197.676 68.9895 197.842 69.0318 198.072C69.0642 198.248 69.0773 198.396 69.0831 198.497C68.5728 198.497 66.6114 198.577 66.197 198.88C65.7823 199.183 65.575 199.693 65.575 200.203C65.575 200.713 65.3199 200.953 65.0647 200.937C64.8367 200.922 64.3839 200.5 64.4826 200.012Z" fill="#444B8C"/>
<path d="M88.047 197.939C87.6087 197.945 87.2873 198.294 87.0448 199.135C86.8024 199.975 85.6386 200.719 86.9963 200.541C88.3541 200.363 89.34 202.286 89.8249 202.998C90.3099 203.709 91.6115 204.341 91.5791 203.646C91.5468 202.951 90.9725 202.626 90.8109 201.915C90.6492 201.204 89.0465 197.923 88.047 197.939Z" fill="#444B8C"/>
<path d="M65.0179 140.677C64.6956 139.781 62.6848 133.897 65.9348 128.531C68.5954 124.138 73.1991 122.705 73.8556 122.511C77.8516 121.331 79.8543 122.847 81.1151 121.451C83.2546 119.084 80.831 111.018 76.1432 109.403C70.8589 107.582 64.5198 114.584 61.9509 119.183C58.5807 125.217 59.4102 131.214 59.6052 132.449C60.112 135.658 61.2902 138.106 62.1632 139.609C63.1147 139.965 64.0663 140.321 65.0179 140.677Z" fill="url(#paint16_linear_661_8202)"/>
<path d="M78.8169 108.264C83.5337 108.076 87.1713 108.151 89.2261 110.204C91.3965 112.373 89.2032 114.821 89.6744 120.495C90.3959 129.181 95.9308 131.303 96.3472 140.115C96.4876 143.084 95.9852 145.511 95.5949 146.972C94.3802 148.485 92.392 150.62 89.4579 152.405C85.1881 155.003 82.712 154.55 76.58 156.228C66.5498 158.973 65.6574 162.242 60.684 161.409C55.6575 160.567 51.2474 156.337 51.7801 154.014C52.0992 152.623 54.1254 153.017 56.4583 150.896C59.4651 148.161 58.3056 145.551 60.5916 142.612C63.8751 138.391 68.4496 140.972 71.2478 137.313C74.0782 133.613 72.9555 126.321 70.5696 122.346C69.0112 119.75 68.3438 116.708 67.0177 113.986C66.9075 113.76 66.7796 113.389 66.836 112.925C67.0512 111.153 70.0063 110.191 72.2445 109.486C75.6583 108.41 78.4289 108.28 78.8169 108.264Z" fill="url(#paint17_linear_661_8202)"/>
<path d="M82.7897 108.069L81.8594 107.783C81.8594 107.783 81.6162 109.043 78.625 109.2C76.9648 109.2 75.8915 108.27 75.8915 108.27L75.2559 108.733C75.2559 108.733 76.6504 110.475 78.8683 110.431C81.7306 110.374 82.7897 108.069 82.7897 108.069Z" fill="url(#paint18_linear_661_8202)"/>
<path d="M80.8962 104.238C80.7168 102.855 79.6234 101.969 79.3847 101.779C78.3857 100.985 78.1823 100.905 77.8392 100.84L77.3706 100.769C77.3706 100.769 77.3453 100.769 77.3194 100.771C77.045 100.787 76.2229 101.108 76.0733 101.213C75.5958 101.549 75.9475 103.927 77.3951 106.885C77.4521 107.136 77.509 107.386 77.5659 107.637C76.3042 107.858 75.9916 108.086 75.9817 108.268C75.9603 108.661 77.3417 109.164 78.6221 109.196C80.2277 109.237 81.9324 108.547 81.8998 108.031C81.8866 107.822 81.5837 107.565 80.4179 107.312C80.2356 107.056 80.0536 106.8 79.8714 106.544C80.0368 106.343 81.0282 105.257 80.8962 104.238Z" fill="url(#paint19_linear_661_8202)"/>
<path d="M78.9107 103.717C78.5466 103.5 78.2691 103.968 78.4407 104.377C78.6122 104.787 79.1887 105.043 79.5383 104.799C79.888 104.555 79.4008 104.011 78.9107 103.717Z" fill="url(#paint20_linear_661_8202)"/>
<path d="M31.7094 103.71C36.5031 98.5085 47.6567 99.935 53.8433 104.113C56.7179 106.054 58.1934 108.347 61.5901 108.539C64.1723 108.686 68.2801 107.715 70.4436 104.918C70.7162 104.565 71.8063 103.087 73.4433 101.223C74.1649 100.402 74.8826 99.6306 75.995 99.4562C76.2776 99.4119 77.2178 99.2589 77.8393 99.8661C78.343 100.358 78.4666 101.213 78.3176 101.83C78.2285 102.199 78.1133 102.238 78.1297 102.479C78.1758 103.157 79.411 103.452 79.3422 103.794C79.2932 104.038 78.6503 103.949 78.5395 104.255C78.4182 104.591 79.1243 104.879 79.4276 105.724C79.9959 106.104 80.355 107.051 80.4792 108.318C80.6618 110.18 80.4747 111.693 80.1218 112.832C78.423 118.319 77.2076 122.244 74.2667 124.435C70.3729 127.337 66.8668 124.658 56.962 124.234C43.3995 123.654 40.0179 128.251 35.1434 125.106C29.0568 121.179 26.7324 109.111 31.7094 103.71Z" fill="url(#paint21_linear_661_8202)"/>
<path d="M102.849 93.093C102.97 94.2278 103.379 99.2479 99.9159 103.487C96.6805 107.447 92.0983 108.238 91.2466 108.367C87.1267 108.989 85.35 107.214 83.9103 108.424C81.4672 110.477 82.7653 118.797 87.1882 121.039C92.1738 123.565 99.4109 117.496 102.584 113.291C106.748 107.775 106.746 101.721 106.722 100.471C106.659 97.222 105.826 94.6358 105.167 93.0276C104.896 92.946 104.484 92.8558 103.979 92.8733C103.497 92.8901 103.108 92.9985 102.849 93.093Z" fill="url(#paint22_linear_661_8202)"/>
<path opacity="0.3" d="M60.5341 158.089C61.7402 156.853 60.4126 154.359 62.1941 152.506C63.8476 150.785 65.7197 152.175 68.3816 150.695C71.7957 148.796 70.8549 145.32 74.1163 143.451C76.4615 142.107 77.5635 143.552 81.2092 142.847C84.8487 142.144 89.2815 139.635 91.4712 135.151C92.4017 133.245 92.7446 131.351 92.7901 129.658C94.427 132.583 96.1248 135.385 96.3484 140.115C96.4887 143.084 95.9863 145.511 95.5961 146.972C94.3814 148.485 92.3932 150.62 89.459 152.405C85.1892 155.003 82.7132 154.55 76.5811 156.228C66.5509 158.973 65.6586 162.242 60.6851 161.409C57.4727 160.871 54.5189 158.95 52.9395 157.026C57.5748 159.09 59.6588 158.987 60.5341 158.089Z" fill="url(#paint23_linear_661_8202)"/>
</g>
</g>
<rect x="-601.5" y="-420.5" width="1443" height="1453" stroke="black" stroke-width="3"/>
<defs>
<linearGradient id="paint0_linear_661_8202" x1="94.62" y1="96.2758" x2="57.9567" y2="152.456" gradientUnits="userSpaceOnUse">
<stop offset="0.0036" stop-color="#E38DDD"/>
<stop offset="1" stop-color="#9571F6"/>
</linearGradient>
<linearGradient id="paint1_linear_661_8202" x1="86.4296" y1="33.4603" x2="96.9438" y2="120.761" gradientUnits="userSpaceOnUse">
<stop stop-color="#AA80F9"/>
<stop offset="0.9964" stop-color="#6165D7"/>
</linearGradient>
<linearGradient id="paint2_linear_661_8202" x1="76.6778" y1="137.316" x2="68.883" y2="208.716" gradientUnits="userSpaceOnUse">
<stop offset="0.0036" stop-color="#E38DDD"/>
<stop offset="1" stop-color="#9571F6"/>
</linearGradient>
<linearGradient id="paint3_linear_661_8202" x1="68.6152" y1="130.287" x2="115.081" y2="130.287" gradientUnits="userSpaceOnUse">
<stop stop-color="#FF9085"/>
<stop offset="1" stop-color="#FB6FBB"/>
</linearGradient>
<linearGradient id="paint4_linear_661_8202" x1="161.555" y1="98.6561" x2="215.397" y2="237.341" gradientUnits="userSpaceOnUse">
<stop stop-color="#FF9085"/>
<stop offset="1" stop-color="#FB6FBB"/>
</linearGradient>
<linearGradient id="paint5_linear_661_8202" x1="102.095" y1="130.208" x2="160.93" y2="130.564" gradientUnits="userSpaceOnUse">
<stop stop-color="#FF9085"/>
<stop offset="1" stop-color="#FB6FBB"/>
</linearGradient>
<linearGradient id="paint6_linear_661_8202" x1="167.328" y1="52.5231" x2="207.661" y2="156.411" gradientUnits="userSpaceOnUse">
<stop stop-color="#FCB148"/>
<stop offset="0.0521" stop-color="#FDBA46"/>
<stop offset="0.1424" stop-color="#FFC244"/>
<stop offset="0.3183" stop-color="#FFC444"/>
<stop offset="0.4849" stop-color="#FDB946"/>
<stop offset="0.7754" stop-color="#F99C4D"/>
<stop offset="0.8658" stop-color="#F8924F"/>
<stop offset="1" stop-color="#F8924F"/>
</linearGradient>
<linearGradient id="paint7_linear_661_8202" x1="152.887" y1="58.13" x2="193.22" y2="162.018" gradientUnits="userSpaceOnUse">
<stop stop-color="#FCB148"/>
<stop offset="0.0521" stop-color="#FDBA46"/>
<stop offset="0.1424" stop-color="#FFC244"/>
<stop offset="0.3183" stop-color="#FFC444"/>
<stop offset="0.4849" stop-color="#FDB946"/>
<stop offset="0.7754" stop-color="#F99C4D"/>
<stop offset="0.8658" stop-color="#F8924F"/>
<stop offset="1" stop-color="#F8924F"/>
</linearGradient>
<linearGradient id="paint8_linear_661_8202" x1="182.992" y1="132.213" x2="156.797" y2="171.974" gradientUnits="userSpaceOnUse">
<stop stop-color="#FCB148"/>
<stop offset="0.0521" stop-color="#FDBA46"/>
<stop offset="0.1424" stop-color="#FFC244"/>
<stop offset="0.3183" stop-color="#FFC444"/>
<stop offset="0.4849" stop-color="#FDB946"/>
<stop offset="0.7754" stop-color="#F99C4D"/>
<stop offset="0.8658" stop-color="#F8924F"/>
<stop offset="1" stop-color="#F8924F"/>
</linearGradient>
<linearGradient id="paint9_linear_661_8202" x1="103.28" y1="88.9668" x2="105.979" y2="93.334" gradientUnits="userSpaceOnUse">
<stop stop-color="#FFC444"/>
<stop offset="0.9964" stop-color="#F36F56"/>
</linearGradient>
<linearGradient id="paint10_linear_661_8202" x1="64.8253" y1="140.656" x2="63.7351" y2="142.898" gradientUnits="userSpaceOnUse">
<stop stop-color="#FFC444"/>
<stop offset="0.9964" stop-color="#F36F56"/>
</linearGradient>
<linearGradient id="paint11_linear_661_8202" x1="67.6012" y1="197.744" x2="67.6012" y2="190.711" gradientUnits="userSpaceOnUse">
<stop stop-color="#FFC444"/>
<stop offset="0.9964" stop-color="#F36F56"/>
</linearGradient>
<linearGradient id="paint12_linear_661_8202" x1="89.0359" y1="199.749" x2="89.0359" y2="191.273" gradientUnits="userSpaceOnUse">
<stop stop-color="#FFC444"/>
<stop offset="0.9964" stop-color="#F36F56"/>
</linearGradient>
<linearGradient id="paint13_linear_661_8202" x1="93.7786" y1="166.455" x2="66.0489" y2="166.455" gradientUnits="userSpaceOnUse">
<stop stop-color="#311944"/>
<stop offset="1" stop-color="#893976"/>
</linearGradient>
<linearGradient id="paint14_linear_661_8202" x1="94.6599" y1="145.784" x2="74.6821" y2="179.339" gradientUnits="userSpaceOnUse">
<stop stop-color="#311944"/>
<stop offset="1" stop-color="#893976"/>
</linearGradient>
<linearGradient id="paint15_linear_661_8202" x1="86.7952" y1="141.101" x2="66.8174" y2="174.656" gradientUnits="userSpaceOnUse">
<stop stop-color="#311944"/>
<stop offset="1" stop-color="#893976"/>
</linearGradient>
<linearGradient id="paint16_linear_661_8202" x1="71.4025" y1="120.468" x2="86.4137" y2="74.4773" gradientUnits="userSpaceOnUse">
<stop stop-color="#FFC444"/>
<stop offset="0.9964" stop-color="#F36F56"/>
</linearGradient>
<linearGradient id="paint17_linear_661_8202" x1="90.9904" y1="109.74" x2="69.5625" y2="153.804" gradientUnits="userSpaceOnUse">
<stop stop-color="#FFC444"/>
<stop offset="0.9964" stop-color="#F36F56"/>
</linearGradient>
<linearGradient id="paint18_linear_661_8202" x1="81.658" y1="104.227" x2="77.5631" y2="110.736" gradientUnits="userSpaceOnUse">
<stop offset="0.0036" stop-color="#E38DDD"/>
<stop offset="1" stop-color="#9571F6"/>
</linearGradient>
<linearGradient id="paint19_linear_661_8202" x1="76.7151" y1="103.229" x2="81.2154" y2="110.509" gradientUnits="userSpaceOnUse">
<stop stop-color="#FFC444"/>
<stop offset="0.9964" stop-color="#F36F56"/>
</linearGradient>
<linearGradient id="paint20_linear_661_8202" x1="78.327" y1="102.243" x2="80.8955" y2="110.117" gradientUnits="userSpaceOnUse">
<stop stop-color="#FFC444"/>
<stop offset="0.9964" stop-color="#F36F56"/>
</linearGradient>
<linearGradient id="paint21_linear_661_8202" x1="79.646" y1="72.1338" x2="41.9294" y2="132.082" gradientUnits="userSpaceOnUse">
<stop stop-color="#444B8C"/>
<stop offset="0.9964" stop-color="#26264F"/>
</linearGradient>
<linearGradient id="paint22_linear_661_8202" x1="93.3768" y1="110.768" x2="72.3018" y2="154.105" gradientUnits="userSpaceOnUse">
<stop stop-color="#FFC444"/>
<stop offset="0.9964" stop-color="#F36F56"/>
</linearGradient>
<linearGradient id="paint23_linear_661_8202" x1="94.0862" y1="111.246" x2="72.6583" y2="155.309" gradientUnits="userSpaceOnUse">
<stop stop-color="#FFC444"/>
<stop offset="0.9964" stop-color="#F36F56"/>
</linearGradient>
<clipPath id="clip0_661_8202">
<rect x="-600" y="-419" width="1440" height="1450" fill="white"/>
</clipPath>
<clipPath id="clip1_661_8202">
<rect width="240" height="240" fill="white"/>
</clipPath>
</defs>
</svg>
