<svg width="250" height="250" viewBox="0 0 250 250" fill="none" xmlns="http://www.w3.org/2000/svg">
<g id="Being-Happy--Streamline-Barcelona.svg">
<path id="Vector" d="M100.262 35.3965C97.3771 36.9591 94.9788 39.2866 93.3304 42.1232C91.6821 44.9599 90.8474 48.196 90.9182 51.4761C90.9671 56.5546 92.9907 61.4146 96.5603 65.0272C100.13 68.6398 104.965 70.7212 110.043 70.8309C113.824 70.8864 117.529 69.7645 120.645 67.6204C120.721 68.2769 120.812 68.931 120.922 69.5838C121.059 70.4008 121.099 71.8683 122.12 72.0911C123.02 72.2875 123.575 71.2693 123.709 70.5338C123.84 69.79 123.903 69.0357 123.896 68.2805C124.108 68.5148 124.379 68.6888 124.68 68.7849C124.982 68.8811 125.303 68.8959 125.612 68.8279C125.769 68.7829 125.918 68.7177 126.058 68.6339C126.178 68.561 126.288 68.4715 126.384 68.368C126.527 68.2198 126.631 68.0373 126.684 67.8378C126.737 67.6384 126.738 67.4287 126.687 67.2287C126.662 67.1452 126.627 67.0648 126.584 66.9891C126.98 67.0959 127.4 67.0728 127.782 66.9233C127.986 66.8265 128.168 66.6891 128.316 66.5195C128.465 66.35 128.578 66.1517 128.648 65.937C128.717 65.7223 128.742 65.4957 128.721 65.271C128.7 65.0464 128.633 64.8284 128.524 64.6304C128.054 63.7139 127.313 62.9647 126.402 62.485C126.199 62.3652 125.991 62.2454 125.779 62.1424C127.727 58.9497 128.786 55.2938 128.845 51.554C128.876 49.8186 128.678 48.0868 128.257 46.4029C125.314 48.1825 121.931 49.1005 118.492 49.0527C114.405 48.9769 110.445 47.6173 107.173 45.1664C103.901 42.7155 101.484 39.2976 100.262 35.3965ZM125.298 62.8875C125.542 63.0072 125.78 63.1392 126.01 63.2828C126.729 63.7308 127.945 64.5706 127.834 65.5744C127.707 66.7376 126.069 65.8547 125.578 65.5373C125.501 65.4948 125.413 65.4757 125.325 65.4824C125.238 65.489 125.154 65.521 125.084 65.5746C125.015 65.6281 124.962 65.7008 124.933 65.7838C124.904 65.8667 124.9 65.9563 124.921 66.0416C125.044 66.4323 125.266 66.7842 125.567 67.0622C125.77 67.2898 125.987 67.5701 125.687 67.8157C124.89 68.4686 124.117 67.2539 123.77 66.6933C123.554 66.3435 122.894 66.4537 122.939 66.9185C123.031 67.8495 123.029 68.7875 122.931 69.718C122.91 69.9133 122.692 71.5149 122.229 71.1699C122.005 71.0034 121.981 70.4272 121.935 70.184C121.844 69.7192 121.765 69.2524 121.695 68.7836C121.606 68.1923 121.533 67.5987 121.476 67.0035C122.951 65.835 124.244 64.4461 125.298 62.8875Z" fill="#FFC998"/>
<path id="Vector_2" d="M132.983 44.4L131.816 43.5076C135.285 39.7704 137.239 34.8765 137.298 29.7782C137.418 22.1355 133.308 14.5575 124.132 11.9988C111.826 8.56314 99.3194 16.4897 99.3673 29.7064C99.376 31.6383 99.6797 33.5575 100.268 35.3977C104.998 32.8616 110.533 32.2777 115.688 33.7709C118.738 34.5239 121.524 36.0993 123.742 38.3254C125.96 40.5516 127.524 43.3433 128.266 46.3969C129.317 45.7488 130.298 44.9924 131.191 44.1401L131.945 44.7163C132.65 45.1484 133.276 45.6987 133.794 46.343C133.885 46.4532 133.945 46.5855 133.967 46.7263C133.99 46.8672 133.974 47.0115 133.922 47.1444C133.858 47.2461 133.772 47.3315 133.669 47.3939C133.566 47.4562 133.45 47.4939 133.331 47.5038C132.602 47.6044 131.994 46.9947 131.51 46.5455C131.15 46.2125 130.52 46.6473 130.809 47.0869C130.91 47.2254 130.958 47.395 130.946 47.5658C130.934 47.7365 130.861 47.8974 130.742 48.0201C130.61 48.1286 130.444 48.188 130.273 48.188C130.102 48.188 129.936 48.1286 129.804 48.0201C129.702 47.9614 129.58 47.9454 129.466 47.9754C129.352 48.0055 129.254 48.0792 129.194 48.1806C129.137 48.2831 129.121 48.4039 129.151 48.5176C129.181 48.6314 129.253 48.7291 129.354 48.7904C129.632 48.9834 129.964 49.0839 130.303 49.0777C130.642 49.0715 130.97 48.9588 131.241 48.7556C131.288 48.7235 131.332 48.6883 131.373 48.6502C131.573 48.4525 131.715 48.204 131.784 47.9315C132.228 48.2658 132.776 48.4333 133.331 48.4046C133.551 48.4008 133.768 48.3504 133.968 48.2567C134.168 48.163 134.345 48.0281 134.489 47.8609C134.633 47.6937 134.74 47.498 134.803 47.2866C134.866 47.0751 134.883 46.8528 134.854 46.6341C134.688 45.6195 133.727 44.969 132.983 44.4Z" fill="#FFC998"/>
<path id="Vector_3" d="M133.628 137.008C141.883 132.373 145.967 116.95 146.679 114.008C145.729 114.256 144.756 114.409 143.776 114.466C141.034 114.627 138.283 114.454 135.583 113.953C134.621 118.037 132.67 121.822 129.901 124.974C127.576 127.56 124.702 129.595 121.49 130.93C121.604 131.605 121.493 132.298 121.175 132.904C120.856 133.51 120.348 133.995 119.728 134.284C117.861 135.326 115.045 136.088 112.968 135.269C112.119 134.93 111.391 134.343 110.881 133.585C110.732 133.32 110.594 133.049 110.466 132.774C107.918 132.702 105.351 132.524 102.967 132.697C98.3459 133.034 94.2551 134.635 89.6335 133.503C85.0749 132.374 80.6954 130.617 76.6205 128.283C75.0369 131.355 73.8848 134.632 73.1969 138.019C73.1854 138.08 73.1609 138.139 73.125 138.189C82.8497 145.879 99.9775 145.389 102.046 146.362C104.14 147.346 106.14 155.149 105.014 157.048C104.428 158.046 103.859 159.052 103.305 160.068C102.726 160.91 102.314 161.856 102.092 162.854C101.941 163.838 101.99 164.842 102.237 165.806C102.484 166.77 102.924 167.674 103.529 168.463C104.713 169.754 106.289 170.619 108.013 170.927C108.148 170.177 108.308 169.433 108.492 168.693C108.648 168.057 108.821 167.422 109.003 166.791C108.751 166.765 108.501 166.721 108.255 166.659C108.256 166.714 108.245 166.769 108.224 166.819C108.202 166.87 108.17 166.916 108.13 166.953C108.089 166.991 108.042 167.019 107.99 167.037C107.938 167.055 107.882 167.062 107.827 167.057C107.479 167.02 107.142 166.914 106.835 166.744C106.529 166.574 106.26 166.344 106.045 166.068C105.83 165.791 105.672 165.475 105.582 165.136C105.492 164.798 105.471 164.445 105.52 164.098C105.66 162.25 107.415 161.171 108.811 160.232C111.2 158.663 113.731 157.32 116.37 156.22C117.206 155.833 118.059 155.484 118.926 155.175C119.143 155.091 119.36 155.003 119.577 154.921C121.482 154.181 123.436 153.57 125.424 153.091C127.304 152.542 129.269 152.343 131.22 152.506C132.641 152.637 133.969 153.267 134.97 154.283C135.27 154.649 135.48 155.08 135.584 155.542C135.688 156.004 135.683 156.483 135.569 156.943C135.337 157.84 134.892 158.668 134.271 159.357C133.822 159.936 133.249 160.407 132.594 160.737C132.929 161.104 133.254 161.48 133.575 161.86C143.518 157.647 136.067 145.957 133.984 141.721C131.799 137.29 133.628 137.008 133.628 137.008Z" fill="#0067BE"/>
<path id="Vector_4" d="M131.881 153.553L132.043 160.021C132.072 160 132.103 159.982 132.136 159.968C132.779 159.647 133.333 159.173 133.75 158.589C134.293 157.96 134.643 157.188 134.758 156.365C134.88 154.749 133.422 153.918 131.881 153.553ZM107.373 162.414C106.883 162.805 106.547 163.357 106.422 163.971C106.285 164.917 106.741 166.105 107.824 166.161C107.885 166.164 107.945 166.179 108 166.206C108.055 166.232 108.104 166.27 108.144 166.316C108.184 166.363 108.214 166.416 108.232 166.475C108.251 166.533 108.257 166.595 108.251 166.656C108.497 166.718 108.747 166.762 108.999 166.787C109.263 165.871 109.557 164.962 109.892 164.072C109.815 164.017 109.756 163.94 109.724 163.851C109.692 163.762 109.688 163.665 109.712 163.574C109.737 163.482 109.789 163.401 109.861 163.34C109.934 163.279 110.023 163.242 110.118 163.233C110.339 163.22 110.56 163.202 110.781 163.186L110.997 159.915C110.446 160.238 109.904 160.577 109.371 160.93C108.666 161.37 107.998 161.866 107.373 162.414Z" fill="#59679C"/>
<path id="Vector_5" d="M115.685 33.7704C110.53 32.2768 104.996 32.8603 100.266 35.396C101.487 39.2971 103.905 42.715 107.177 45.1659C110.449 47.6168 114.408 48.9764 118.496 49.0522C121.936 49.0967 125.32 48.1744 128.262 46.3905C127.52 43.3381 125.955 40.5477 123.737 38.3227C121.52 36.0977 118.735 34.5232 115.685 33.7704Z" fill="#FFA95A"/>
<path id="Vector_6" d="M107.786 117.663L107.927 117.518C108.143 117.3 108.371 117.095 108.61 116.903C108.83 116.711 109.08 116.557 109.351 116.447C109.242 115.44 108.419 110.257 103.085 110.384C97.1797 110.525 96.7114 110.525 94.9768 107.988C93.2422 105.451 90.3792 109.546 92.3054 112.301C94.2317 115.057 96.2897 114.879 96.2897 114.879C96.2897 114.879 95.2116 116.427 96.6646 117.036C97.1786 117.183 97.7191 117.214 98.2464 117.125C98.7736 117.035 99.2741 116.829 99.7109 116.521C99.7109 116.521 98.5861 118.77 99.7576 119.515C100.929 120.26 104.21 119.515 104.82 118.484C105.275 117.715 106.877 117.885 107.662 118.02C107.657 117.955 107.666 117.89 107.687 117.829C107.709 117.768 107.742 117.711 107.786 117.663ZM109.269 117.512L109.227 117.545L109.24 117.534L109.269 117.512Z" fill="#E59E70"/>
<path id="Vector_7" d="M112.09 116.197C111.393 116.39 110.715 116.649 110.065 116.968C110.039 117.053 109.987 117.128 109.917 117.182C109.847 117.236 109.761 117.267 109.672 117.271L109.743 117.262C109.712 117.267 109.68 117.275 109.65 117.284H109.639C109.573 117.317 109.508 117.353 109.446 117.392C109.38 117.434 109.316 117.479 109.253 117.526L109.244 117.534L109.221 117.552L109.137 117.62C108.882 117.828 108.642 118.053 108.418 118.294C108.369 118.345 108.307 118.383 108.239 118.404C108.172 118.425 108.1 118.428 108.03 118.414C107.277 119.298 106.745 120.349 106.481 121.479C106.216 122.61 106.226 123.788 106.509 124.914C106.57 125.318 106.693 125.539 106.86 125.623C106.901 125.645 106.945 125.659 106.992 125.663C108.037 125.728 110.289 121.68 110.633 119.826C110.996 120.149 111.465 120.327 111.951 120.327C112.437 120.327 112.905 120.149 113.269 119.826C113.608 119.53 113.882 119.167 114.074 118.76C114.266 118.352 114.371 117.909 114.383 117.459C114.383 117.459 117.791 120.214 119.93 119.884C120.02 119.87 120.108 119.851 120.195 119.826C119.573 118.293 118.382 117.059 116.872 116.383C115.362 115.706 113.648 115.64 112.09 116.197Z" fill="#E59E70"/>
<path id="Vector_8" d="M164.19 21.8594C151.878 18.431 139.379 26.354 139.422 39.5706C139.451 42.2635 140.035 44.9216 141.136 47.3791C142.238 49.8367 143.834 52.0409 145.825 53.8545C145.491 53.9025 145.158 53.9588 144.829 54.0247C143.58 54.196 142.393 54.6738 141.373 55.4154C140.694 55.9832 140.069 57.1979 141.014 57.8364C141.917 58.2387 142.929 58.328 143.889 58.0904C144.386 58.0281 144.883 57.9466 145.376 57.8508C145.245 58.1311 145.121 58.4146 145.005 58.7013C144.58 59.5285 144.389 60.4566 144.454 61.3847C144.478 61.5067 144.518 61.6248 144.574 61.7356C144.646 61.8778 144.745 62.0041 144.867 62.107C144.988 62.2099 145.129 62.2873 145.281 62.3346C145.714 62.4673 146.179 62.4474 146.599 62.2783C147.228 62.0178 147.793 61.6233 148.254 61.1223C148.448 61.3854 148.661 61.6348 148.889 61.8686C149.453 62.5525 150.25 63.0026 151.127 63.1312C152.283 63.1528 152.845 61.7704 153.011 60.8276C153.171 59.8997 153.144 58.9491 152.932 58.0317C154.748 58.622 156.646 58.9232 158.556 58.9241C170.392 58.9241 177.208 49.2318 177.364 39.6377C177.473 31.9998 173.366 24.4217 164.19 21.8594ZM148.564 59.1505C148.518 59.238 148.469 59.3242 148.418 59.4105C148.411 59.3785 148.406 59.3461 148.404 59.3135C148.393 59.2241 148.404 59.1334 148.434 59.0487C148.502 58.94 148.594 58.8492 148.705 58.784L148.741 58.7624C148.693 58.8979 148.635 59.0254 148.564 59.1505ZM148.768 58.5013C148.757 58.5073 148.768 58.4821 148.768 58.4809V58.5013ZM151.404 62.1441C151.242 62.2723 151.117 62.2639 150.88 62.1885C150.593 62.0898 150.326 61.9418 150.089 61.7512C149.596 61.3764 149.174 60.9164 148.844 60.3928C149.013 60.1551 149.167 59.9071 149.305 59.6501C149.574 59.1469 150.024 57.973 149.144 57.7502C148.892 57.7371 148.64 57.7858 148.41 57.8921C148.18 57.9983 147.98 58.1589 147.827 58.3599C147.704 58.5052 147.612 58.6745 147.559 58.8571C147.505 59.0396 147.49 59.2313 147.514 59.4201C147.55 59.7301 147.635 60.0323 147.768 60.3149C147.408 60.7453 146.966 61.0999 146.468 61.3583C146.2 61.5233 145.878 61.5774 145.571 61.5092C145.348 61.4254 145.331 61.3008 145.313 61.096C145.339 60.3073 145.541 59.5345 145.905 58.8343C146.106 58.355 146.332 57.8864 146.582 57.4303C146.624 57.3534 146.643 57.2659 146.636 57.1785C146.629 57.0911 146.597 57.0076 146.544 56.9381C146.49 56.8686 146.418 56.8162 146.335 56.7873C146.252 56.7583 146.163 56.7541 146.078 56.7751C145.528 56.9152 144.967 57.0254 144.408 57.1177C143.554 57.3128 142.671 57.3437 141.806 57.2087C141.68 57.188 141.561 57.1379 141.458 57.0626C141.522 57.1033 141.395 56.9667 141.433 57.0278C141.4 56.9751 141.413 57.0015 141.412 56.9572C141.474 56.6092 141.666 56.2978 141.948 56.0851C142.827 55.4566 143.847 55.0532 144.918 54.9099C145.518 54.7834 146.125 54.693 146.735 54.6392C148.288 55.9072 150.029 56.9261 151.895 57.6591C152.134 58.3906 152.24 59.1591 152.207 59.928C152.231 60.3328 152.172 60.7382 152.034 61.1197C151.897 61.5011 151.68 61.8473 151.404 62.1441Z" fill="#FFC998"/>
<g id="Vector_9">
<path d="M116.362 156.218C117.211 155.853 118.063 155.505 118.919 155.172C117.953 155.518 117.104 155.873 116.362 156.218ZM151.101 193.72C150.066 190.466 148.791 187.294 147.284 184.231C145.454 180.35 143.435 176.563 141.226 172.872C139.129 169.282 136.776 165.848 134.185 162.597C133.982 162.348 133.776 162.101 133.567 161.857C133.246 161.478 132.92 161.102 132.586 160.734C132.546 160.751 132.503 160.763 132.459 160.767C132.401 160.854 132.313 160.917 132.212 160.942L132.066 160.979C131.98 161.003 131.892 161.024 131.805 161.048C129.903 161.554 127.972 161.951 126.031 162.289C122.437 162.914 118.818 163.358 115.191 163.707C113.703 163.85 112.213 163.98 110.72 164.078C110.519 164.092 110.318 164.107 110.121 164.119C110.043 164.125 109.965 164.108 109.896 164.071C109.561 164.961 109.267 165.868 109.002 166.787C108.82 167.418 108.643 168.053 108.492 168.689C108.31 169.428 108.15 170.173 108.013 170.923C107.89 171.604 107.791 172.288 107.715 172.975C107.611 174.069 107.579 175.168 107.618 176.266C107.716 180.59 108.011 184.913 108.298 189.227C108.366 190.242 108.436 191.257 108.509 192.273C107.462 192.258 106.415 192.249 105.367 192.245C102.477 192.229 99.5881 192.239 96.6987 192.274C93.1553 192.317 89.613 192.394 86.072 192.556C84.3817 192.632 82.6903 192.725 81.0024 192.852C80.5472 192.887 79.8668 192.796 79.5817 193.203C79.4308 193.423 79.2924 193.65 79.1672 193.885C77.7449 196.555 77.263 199.627 77.7992 202.605C77.8956 203.155 78.0228 203.701 78.1801 204.237C78.1983 204.307 78.2346 204.37 78.2854 204.42C78.3361 204.471 78.3995 204.507 78.4688 204.525C79.2558 204.645 80.0453 204.748 80.8347 204.851C82.8001 205.106 84.7698 205.333 86.744 205.531C89.4884 205.808 92.2377 206.035 94.9905 206.197C98.0332 206.376 101.081 206.479 104.128 206.453C107.051 206.453 109.972 206.271 112.873 205.911C114.151 205.748 115.419 205.519 116.673 205.222C117.232 205.087 117.788 204.933 118.335 204.755C118.64 204.691 118.931 204.574 119.194 204.409C119.521 204.098 119.801 203.742 120.023 203.35C120.68 202.291 121.223 201.167 121.645 199.995C122.431 197.872 123.048 195.69 123.49 193.469C124.215 189.902 124.732 186.295 125.037 182.668C125.114 181.82 125.18 180.97 125.243 180.12C125.609 180.445 125.967 180.781 126.315 181.126C127.673 182.48 128.903 183.957 129.99 185.537C131.507 187.726 132.72 190.111 133.593 192.627C134.21 194.286 134.671 196 134.969 197.745C135.016 198.049 135.023 198.358 134.99 198.663C134.959 198.702 134.933 198.754 134.905 198.792L134.883 198.825L134.842 198.875L134.681 199.066C134.544 199.226 134.404 199.382 134.262 199.538C133.386 200.496 132.465 201.414 131.547 202.329C129.013 204.841 126.453 207.327 123.867 209.786C122.238 211.343 120.564 212.856 118.962 214.441C118.937 214.466 118.911 214.49 118.884 214.514C118.822 214.58 118.782 214.664 118.77 214.754C118.758 214.844 118.776 214.935 118.819 215.015C119.115 215.654 119.461 216.269 119.854 216.853C120.722 218.208 121.787 219.426 123.013 220.468C124.517 221.763 126.335 222.64 128.284 223.012C128.579 223.064 128.883 223.166 129.136 222.963C129.167 222.936 129.196 222.908 129.225 222.878C129.369 222.743 129.511 222.603 129.653 222.465C131.108 221.062 132.552 219.649 133.987 218.224C136.251 215.982 138.489 213.714 140.702 211.42C142.948 209.084 145.169 206.718 147.284 204.261C148.159 203.255 149.001 202.221 149.808 201.161C150.389 200.427 150.906 199.645 151.352 198.823C151.678 198.226 151.826 197.548 151.779 196.87C151.67 195.798 151.443 194.741 151.101 193.72ZM195.524 153.44C192.568 146.284 188.129 139.837 182.499 134.522C176.948 129.044 170.707 124.34 164.658 119.438C158.373 114.348 152.253 109.008 147.505 102.406C147.368 102.216 147.238 102.023 147.103 101.831C147.046 101.698 146.984 101.566 146.929 101.433C146.731 100.978 146.536 100.522 146.33 100.069L145.85 99.0195C145.692 99.0986 145.532 99.1716 145.371 99.2447C145.261 99.2962 145.153 99.3501 145.041 99.398C144.875 99.4699 144.708 99.5358 144.54 99.6029C144.623 99.7323 144.702 99.8652 144.779 99.9946C145.278 100.773 145.797 101.539 146.328 102.295C146.461 102.606 146.59 102.92 146.721 103.233C145.923 102.061 145.173 100.859 144.473 99.6269C144.195 99.7371 143.915 99.8409 143.634 99.9383C144.464 101.408 145.361 102.838 146.324 104.224C146.522 104.512 146.726 104.795 146.923 105.079C147.313 105.621 147.712 106.157 148.12 106.689C149.244 109.595 150.263 112.538 151.176 115.52C153.005 121.493 154.406 127.589 155.369 133.761C156.336 139.945 156.852 146.191 156.914 152.449C156.922 153.232 156.922 154.016 156.914 154.8C156.92 154.915 156.97 155.023 157.053 155.101C157.136 155.18 157.246 155.224 157.361 155.224C157.475 155.224 157.585 155.18 157.668 155.101C157.751 155.023 157.801 154.915 157.807 154.8C157.852 148.54 157.45 142.284 156.602 136.081C155.761 129.868 154.477 123.723 152.76 117.693C151.917 114.748 150.973 111.833 149.926 108.948C153.291 113.036 157.025 116.812 160.69 120.637C165.739 125.908 170.73 131.366 174.234 137.819C177.962 144.707 179.701 152.496 179.257 160.316C179.201 161.28 179.112 162.241 178.99 163.199C178.918 163.768 179.811 163.762 179.882 163.199C180.834 155.531 179.707 147.748 176.619 140.665C173.695 133.972 169.023 128.251 164.092 122.936C159.142 117.602 153.832 112.581 149.358 106.828C149.211 106.638 149.066 106.447 148.921 106.255C148.782 105.896 148.639 105.536 148.497 105.184C149.838 106.884 151.266 108.514 152.776 110.067C155.504 112.823 158.375 115.433 161.378 117.888C167.367 122.877 173.658 127.52 179.404 132.802C185.071 138.008 190.185 143.905 193.488 150.916C193.914 151.821 194.309 152.74 194.67 153.671C194.869 154.206 195.733 153.976 195.524 153.44ZM140.029 87.7267C138.658 79.7905 141.175 72.0951 144.204 64.8465C144.557 64.008 144.916 63.1695 145.283 62.3309C145.131 62.2836 144.99 62.2062 144.868 62.1033C144.747 62.0004 144.647 61.8741 144.576 61.732C141.461 68.9518 138.324 76.543 138.78 84.5642C138.807 85.0302 138.846 85.4938 138.9 85.955C138.081 83.7077 137.367 81.4245 136.759 79.1053C135.664 74.8867 134.894 70.5904 134.455 66.2541C134.164 61.4179 133.451 56.6164 132.325 51.9042C132.022 50.8324 131.662 49.7776 131.247 48.7441C131.006 48.9269 130.719 49.0366 130.418 49.0604C132.036 53.6369 133 58.4191 133.281 63.2653C133.645 67.6429 134.275 71.9942 135.169 76.295C135.737 78.8762 136.434 81.4274 137.257 83.9389L137.143 83.7892C133.718 79.3569 129.658 75.3043 127.193 70.212C126.901 69.613 126.638 68.9913 126.401 68.3648C126.305 68.4683 126.196 68.5579 126.075 68.6308C125.936 68.7145 125.786 68.7798 125.63 68.8248C127.638 73.9687 131.38 78.1039 134.838 82.3229C136.06 83.8056 137.216 85.3408 138.305 86.9241C138.629 87.7906 138.971 88.6499 139.33 89.5021C139.382 89.4793 139.433 89.4541 139.486 89.4326L139.828 89.2936L140.16 89.1738L140.316 89.1175L140.436 89.0744L140.675 88.9917C140.486 88.6779 140.293 88.3656 140.097 88.055C140.073 87.9436 140.048 87.8358 140.029 87.7267Z" fill="#BBBBC0"/>
<path d="M116.362 156.218C117.211 155.853 118.063 155.505 118.919 155.172C117.953 155.518 117.104 155.873 116.362 156.218ZM151.101 193.72C150.066 190.466 148.791 187.294 147.284 184.231C145.454 180.35 143.435 176.563 141.226 172.872C139.129 169.282 136.776 165.848 134.185 162.597C133.982 162.348 133.776 162.101 133.567 161.857C133.246 161.478 132.92 161.102 132.586 160.734C132.546 160.751 132.503 160.763 132.459 160.767C132.401 160.854 132.313 160.917 132.212 160.942L132.066 160.979C131.98 161.003 131.892 161.024 131.805 161.048C129.903 161.554 127.972 161.951 126.031 162.289C122.437 162.914 118.818 163.358 115.191 163.707C113.703 163.85 112.213 163.98 110.72 164.078C110.519 164.092 110.318 164.107 110.121 164.119C110.043 164.125 109.965 164.108 109.896 164.071C109.561 164.961 109.267 165.868 109.002 166.787C108.82 167.418 108.643 168.053 108.492 168.689C108.31 169.428 108.15 170.173 108.013 170.923C107.89 171.604 107.791 172.288 107.715 172.975C107.611 174.069 107.579 175.168 107.618 176.266C107.716 180.59 108.011 184.913 108.298 189.227C108.366 190.242 108.436 191.257 108.509 192.273C107.462 192.258 106.415 192.249 105.367 192.245C102.477 192.229 99.5881 192.239 96.6987 192.274C93.1553 192.317 89.613 192.394 86.072 192.556C84.3817 192.632 82.6903 192.725 81.0024 192.852C80.5472 192.887 79.8668 192.796 79.5817 193.203C79.4308 193.423 79.2924 193.65 79.1672 193.885C77.7449 196.555 77.263 199.627 77.7992 202.605C77.8956 203.155 78.0228 203.701 78.1801 204.237C78.1983 204.307 78.2346 204.37 78.2854 204.42C78.3361 204.471 78.3995 204.507 78.4688 204.525C79.2558 204.645 80.0453 204.748 80.8347 204.851C82.8001 205.106 84.7698 205.333 86.744 205.531C89.4884 205.808 92.2377 206.035 94.9905 206.197C98.0332 206.376 101.081 206.479 104.128 206.453C107.051 206.453 109.972 206.271 112.873 205.911C114.151 205.748 115.419 205.519 116.673 205.222C117.232 205.087 117.788 204.933 118.335 204.755C118.64 204.691 118.931 204.574 119.194 204.409C119.521 204.098 119.801 203.742 120.023 203.35C120.68 202.291 121.223 201.167 121.645 199.995C122.431 197.872 123.048 195.69 123.49 193.469C124.215 189.902 124.732 186.295 125.037 182.668C125.114 181.82 125.18 180.97 125.243 180.12C125.609 180.445 125.967 180.781 126.315 181.126C127.673 182.48 128.903 183.957 129.99 185.537C131.507 187.726 132.72 190.111 133.593 192.627C134.21 194.286 134.671 196 134.969 197.745C135.016 198.049 135.023 198.358 134.99 198.663C134.959 198.702 134.933 198.754 134.905 198.792L134.883 198.825L134.842 198.875L134.681 199.066C134.544 199.226 134.404 199.382 134.262 199.538C133.386 200.496 132.465 201.414 131.547 202.329C129.013 204.841 126.453 207.327 123.867 209.786C122.238 211.343 120.564 212.856 118.962 214.441C118.937 214.466 118.911 214.49 118.884 214.514C118.822 214.58 118.782 214.664 118.77 214.754C118.758 214.844 118.776 214.935 118.819 215.015C119.115 215.654 119.461 216.269 119.854 216.853C120.722 218.208 121.787 219.426 123.013 220.468C124.517 221.763 126.335 222.64 128.284 223.012C128.579 223.064 128.883 223.166 129.136 222.963C129.167 222.936 129.196 222.908 129.225 222.878C129.369 222.743 129.511 222.603 129.653 222.465C131.108 221.062 132.552 219.649 133.987 218.224C136.251 215.982 138.489 213.714 140.702 211.42C142.948 209.084 145.169 206.718 147.284 204.261C148.159 203.255 149.001 202.221 149.808 201.161C150.389 200.427 150.906 199.645 151.352 198.823C151.678 198.226 151.826 197.548 151.779 196.87C151.67 195.798 151.443 194.741 151.101 193.72ZM195.524 153.44C192.568 146.284 188.129 139.837 182.499 134.522C176.948 129.044 170.707 124.34 164.658 119.438C158.373 114.348 152.253 109.008 147.505 102.406C147.368 102.216 147.238 102.023 147.103 101.831C147.046 101.698 146.984 101.566 146.929 101.433C146.731 100.978 146.536 100.522 146.33 100.069L145.85 99.0195C145.692 99.0986 145.532 99.1716 145.371 99.2447C145.261 99.2962 145.153 99.3501 145.041 99.398C144.875 99.4699 144.708 99.5358 144.54 99.6029C144.623 99.7323 144.702 99.8652 144.779 99.9946C145.278 100.773 145.797 101.539 146.328 102.295C146.461 102.606 146.59 102.92 146.721 103.233C145.923 102.061 145.173 100.859 144.473 99.6269C144.195 99.7371 143.915 99.8409 143.634 99.9383C144.464 101.408 145.361 102.838 146.324 104.224C146.522 104.512 146.726 104.795 146.923 105.079C147.313 105.621 147.712 106.157 148.12 106.689C149.244 109.595 150.263 112.538 151.176 115.52C153.005 121.493 154.406 127.589 155.369 133.761C156.336 139.945 156.852 146.191 156.914 152.449C156.922 153.232 156.922 154.016 156.914 154.8C156.92 154.915 156.97 155.023 157.053 155.101C157.136 155.18 157.246 155.224 157.361 155.224C157.475 155.224 157.585 155.18 157.668 155.101C157.751 155.023 157.801 154.915 157.807 154.8C157.852 148.54 157.45 142.284 156.602 136.081C155.761 129.868 154.477 123.723 152.76 117.693C151.917 114.748 150.973 111.833 149.926 108.948C153.291 113.036 157.025 116.812 160.69 120.637C165.739 125.908 170.73 131.366 174.234 137.819C177.962 144.707 179.701 152.496 179.257 160.316C179.201 161.28 179.112 162.241 178.99 163.199C178.918 163.768 179.811 163.762 179.882 163.199C180.834 155.531 179.707 147.748 176.619 140.665C173.695 133.972 169.023 128.251 164.092 122.936C159.142 117.602 153.832 112.581 149.358 106.828C149.211 106.638 149.066 106.447 148.921 106.255C148.782 105.896 148.639 105.536 148.497 105.184C149.838 106.884 151.266 108.514 152.776 110.067C155.504 112.823 158.375 115.433 161.378 117.888C167.367 122.877 173.658 127.52 179.404 132.802C185.071 138.008 190.185 143.905 193.488 150.916C193.914 151.821 194.309 152.74 194.67 153.671C194.869 154.206 195.733 153.976 195.524 153.44ZM140.029 87.7267C138.658 79.7905 141.175 72.0951 144.204 64.8465C144.557 64.008 144.916 63.1695 145.283 62.3309C145.131 62.2836 144.99 62.2062 144.868 62.1033C144.747 62.0004 144.647 61.8741 144.576 61.732C141.461 68.9518 138.324 76.543 138.78 84.5642C138.807 85.0302 138.846 85.4938 138.9 85.955C138.081 83.7077 137.367 81.4245 136.759 79.1053C135.664 74.8867 134.894 70.5904 134.455 66.2541C134.164 61.4179 133.451 56.6164 132.325 51.9042C132.022 50.8324 131.662 49.7776 131.247 48.7441C131.006 48.9269 130.719 49.0366 130.418 49.0604C132.036 53.6369 133 58.4191 133.281 63.2653C133.645 67.6429 134.275 71.9942 135.169 76.295C135.737 78.8762 136.434 81.4274 137.257 83.9389L137.143 83.7892C133.718 79.3569 129.658 75.3043 127.193 70.212C126.901 69.613 126.638 68.9913 126.401 68.3648C126.305 68.4683 126.196 68.5579 126.075 68.6308C125.936 68.7145 125.786 68.7798 125.63 68.8248C127.638 73.9687 131.38 78.1039 134.838 82.3229C136.06 83.8056 137.216 85.3408 138.305 86.9241C138.629 87.7906 138.971 88.6499 139.33 89.5021C139.382 89.4793 139.433 89.4541 139.486 89.4326L139.828 89.2936L140.16 89.1738L140.316 89.1175L140.436 89.0744L140.675 88.9917C140.486 88.6779 140.293 88.3656 140.097 88.055C140.073 87.9436 140.048 87.8358 140.029 87.7267Z" fill="black" fill-opacity="0.2"/>
<path d="M116.362 156.218C117.211 155.853 118.063 155.505 118.919 155.172C117.953 155.518 117.104 155.873 116.362 156.218ZM151.101 193.72C150.066 190.466 148.791 187.294 147.284 184.231C145.454 180.35 143.435 176.563 141.226 172.872C139.129 169.282 136.776 165.848 134.185 162.597C133.982 162.348 133.776 162.101 133.567 161.857C133.246 161.478 132.92 161.102 132.586 160.734C132.546 160.751 132.503 160.763 132.459 160.767C132.401 160.854 132.313 160.917 132.212 160.942L132.066 160.979C131.98 161.003 131.892 161.024 131.805 161.048C129.903 161.554 127.972 161.951 126.031 162.289C122.437 162.914 118.818 163.358 115.191 163.707C113.703 163.85 112.213 163.98 110.72 164.078C110.519 164.092 110.318 164.107 110.121 164.119C110.043 164.125 109.965 164.108 109.896 164.071C109.561 164.961 109.267 165.868 109.002 166.787C108.82 167.418 108.643 168.053 108.492 168.689C108.31 169.428 108.15 170.173 108.013 170.923C107.89 171.604 107.791 172.288 107.715 172.975C107.611 174.069 107.579 175.168 107.618 176.266C107.716 180.59 108.011 184.913 108.298 189.227C108.366 190.242 108.436 191.257 108.509 192.273C107.462 192.258 106.415 192.249 105.367 192.245C102.477 192.229 99.5881 192.239 96.6987 192.274C93.1553 192.317 89.613 192.394 86.072 192.556C84.3817 192.632 82.6903 192.725 81.0024 192.852C80.5472 192.887 79.8668 192.796 79.5817 193.203C79.4308 193.423 79.2924 193.65 79.1672 193.885C77.7449 196.555 77.263 199.627 77.7992 202.605C77.8956 203.155 78.0228 203.701 78.1801 204.237C78.1983 204.307 78.2346 204.37 78.2854 204.42C78.3361 204.471 78.3995 204.507 78.4688 204.525C79.2558 204.645 80.0453 204.748 80.8347 204.851C82.8001 205.106 84.7698 205.333 86.744 205.531C89.4884 205.808 92.2377 206.035 94.9905 206.197C98.0332 206.376 101.081 206.479 104.128 206.453C107.051 206.453 109.972 206.271 112.873 205.911C114.151 205.748 115.419 205.519 116.673 205.222C117.232 205.087 117.788 204.933 118.335 204.755C118.64 204.691 118.931 204.574 119.194 204.409C119.521 204.098 119.801 203.742 120.023 203.35C120.68 202.291 121.223 201.167 121.645 199.995C122.431 197.872 123.048 195.69 123.49 193.469C124.215 189.902 124.732 186.295 125.037 182.668C125.114 181.82 125.18 180.97 125.243 180.12C125.609 180.445 125.967 180.781 126.315 181.126C127.673 182.48 128.903 183.957 129.99 185.537C131.507 187.726 132.72 190.111 133.593 192.627C134.21 194.286 134.671 196 134.969 197.745C135.016 198.049 135.023 198.358 134.99 198.663C134.959 198.702 134.933 198.754 134.905 198.792L134.883 198.825L134.842 198.875L134.681 199.066C134.544 199.226 134.404 199.382 134.262 199.538C133.386 200.496 132.465 201.414 131.547 202.329C129.013 204.841 126.453 207.327 123.867 209.786C122.238 211.343 120.564 212.856 118.962 214.441C118.937 214.466 118.911 214.49 118.884 214.514C118.822 214.58 118.782 214.664 118.77 214.754C118.758 214.844 118.776 214.935 118.819 215.015C119.115 215.654 119.461 216.269 119.854 216.853C120.722 218.208 121.787 219.426 123.013 220.468C124.517 221.763 126.335 222.64 128.284 223.012C128.579 223.064 128.883 223.166 129.136 222.963C129.167 222.936 129.196 222.908 129.225 222.878C129.369 222.743 129.511 222.603 129.653 222.465C131.108 221.062 132.552 219.649 133.987 218.224C136.251 215.982 138.489 213.714 140.702 211.42C142.948 209.084 145.169 206.718 147.284 204.261C148.159 203.255 149.001 202.221 149.808 201.161C150.389 200.427 150.906 199.645 151.352 198.823C151.678 198.226 151.826 197.548 151.779 196.87C151.67 195.798 151.443 194.741 151.101 193.72ZM195.524 153.44C192.568 146.284 188.129 139.837 182.499 134.522C176.948 129.044 170.707 124.34 164.658 119.438C158.373 114.348 152.253 109.008 147.505 102.406C147.368 102.216 147.238 102.023 147.103 101.831C147.046 101.698 146.984 101.566 146.929 101.433C146.731 100.978 146.536 100.522 146.33 100.069L145.85 99.0195C145.692 99.0986 145.532 99.1716 145.371 99.2447C145.261 99.2962 145.153 99.3501 145.041 99.398C144.875 99.4699 144.708 99.5358 144.54 99.6029C144.623 99.7323 144.702 99.8652 144.779 99.9946C145.278 100.773 145.797 101.539 146.328 102.295C146.461 102.606 146.59 102.92 146.721 103.233C145.923 102.061 145.173 100.859 144.473 99.6269C144.195 99.7371 143.915 99.8409 143.634 99.9383C144.464 101.408 145.361 102.838 146.324 104.224C146.522 104.512 146.726 104.795 146.923 105.079C147.313 105.621 147.712 106.157 148.12 106.689C149.244 109.595 150.263 112.538 151.176 115.52C153.005 121.493 154.406 127.589 155.369 133.761C156.336 139.945 156.852 146.191 156.914 152.449C156.922 153.232 156.922 154.016 156.914 154.8C156.92 154.915 156.97 155.023 157.053 155.101C157.136 155.18 157.246 155.224 157.361 155.224C157.475 155.224 157.585 155.18 157.668 155.101C157.751 155.023 157.801 154.915 157.807 154.8C157.852 148.54 157.45 142.284 156.602 136.081C155.761 129.868 154.477 123.723 152.76 117.693C151.917 114.748 150.973 111.833 149.926 108.948C153.291 113.036 157.025 116.812 160.69 120.637C165.739 125.908 170.73 131.366 174.234 137.819C177.962 144.707 179.701 152.496 179.257 160.316C179.201 161.28 179.112 162.241 178.99 163.199C178.918 163.768 179.811 163.762 179.882 163.199C180.834 155.531 179.707 147.748 176.619 140.665C173.695 133.972 169.023 128.251 164.092 122.936C159.142 117.602 153.832 112.581 149.358 106.828C149.211 106.638 149.066 106.447 148.921 106.255C148.782 105.896 148.639 105.536 148.497 105.184C149.838 106.884 151.266 108.514 152.776 110.067C155.504 112.823 158.375 115.433 161.378 117.888C167.367 122.877 173.658 127.52 179.404 132.802C185.071 138.008 190.185 143.905 193.488 150.916C193.914 151.821 194.309 152.74 194.67 153.671C194.869 154.206 195.733 153.976 195.524 153.44ZM140.029 87.7267C138.658 79.7905 141.175 72.0951 144.204 64.8465C144.557 64.008 144.916 63.1695 145.283 62.3309C145.131 62.2836 144.99 62.2062 144.868 62.1033C144.747 62.0004 144.647 61.8741 144.576 61.732C141.461 68.9518 138.324 76.543 138.78 84.5642C138.807 85.0302 138.846 85.4938 138.9 85.955C138.081 83.7077 137.367 81.4245 136.759 79.1053C135.664 74.8867 134.894 70.5904 134.455 66.2541C134.164 61.4179 133.451 56.6164 132.325 51.9042C132.022 50.8324 131.662 49.7776 131.247 48.7441C131.006 48.9269 130.719 49.0366 130.418 49.0604C132.036 53.6369 133 58.4191 133.281 63.2653C133.645 67.6429 134.275 71.9942 135.169 76.295C135.737 78.8762 136.434 81.4274 137.257 83.9389L137.143 83.7892C133.718 79.3569 129.658 75.3043 127.193 70.212C126.901 69.613 126.638 68.9913 126.401 68.3648C126.305 68.4683 126.196 68.5579 126.075 68.6308C125.936 68.7145 125.786 68.7798 125.63 68.8248C127.638 73.9687 131.38 78.1039 134.838 82.3229C136.06 83.8056 137.216 85.3408 138.305 86.9241C138.629 87.7906 138.971 88.6499 139.33 89.5021C139.382 89.4793 139.433 89.4541 139.486 89.4326L139.828 89.2936L140.16 89.1738L140.316 89.1175L140.436 89.0744L140.675 88.9917C140.486 88.6779 140.293 88.3656 140.097 88.055C140.073 87.9436 140.048 87.8358 140.029 87.7267Z" fill="black" fill-opacity="0.2"/>
</g>
<path id="Vector_10" d="M144.546 99.6041L144.484 99.628C145.184 100.859 145.934 102.061 146.732 103.234C146.601 102.921 146.473 102.607 146.34 102.296C145.807 101.541 145.29 100.774 144.791 99.9958C144.708 99.8652 144.629 99.7322 144.546 99.6041ZM143.644 99.9383C143.565 99.9658 143.487 99.9958 143.405 100.021C142.629 100.376 141.768 100.504 140.923 100.39C140.106 100.15 140.194 99.1381 140.443 98.502C140.758 97.7412 141.198 97.0387 141.746 96.4236C141.655 96.4499 141.566 96.4823 141.475 96.5074C140.576 96.8433 139.606 96.9483 138.656 96.8129C138.456 96.7576 138.273 96.6544 138.122 96.5121C137.971 96.3699 137.858 96.193 137.791 95.9968C137.724 95.8006 137.706 95.5911 137.738 95.3863C137.771 95.1816 137.853 94.9879 137.977 94.822C138.368 94.184 138.907 93.6498 139.549 93.2647C138.647 93.489 137.701 93.4554 136.817 93.1677C135.839 92.7136 136.279 91.699 136.848 91.106C136.648 91.0255 136.428 91.0062 136.217 91.0508C136.005 91.0954 135.812 91.2017 135.661 91.3564C134.443 92.3878 135.661 95.294 136.88 101.299C137.329 105.263 136.962 109.278 135.801 113.095C136.095 113.147 136.39 113.191 136.686 113.233C137.575 113.36 138.47 113.456 139.369 113.521C139.98 113.568 140.591 113.604 141.203 113.621C142.291 113.663 143.38 113.629 144.464 113.521C145.212 113.445 145.952 113.301 146.674 113.091C146.716 113.079 146.76 113.073 146.804 113.073C146.838 111.893 146.924 108.548 146.942 105.087C146.74 104.803 146.536 104.52 146.343 104.233C145.377 102.844 144.477 101.411 143.644 99.9383ZM129.504 153.321C127.741 153.455 125.998 153.78 124.305 154.291C122.514 154.792 120.752 155.392 119.027 156.088C116.254 157.154 113.567 158.433 110.993 159.916L110.777 163.187C111.136 163.162 111.496 163.138 111.855 163.11C114.881 162.878 117.9 162.566 120.913 162.175C124.642 161.735 128.336 161.038 131.969 160.089C131.988 160.064 132.011 160.043 132.036 160.025L131.875 153.556C131.098 153.372 130.301 153.293 129.504 153.321ZM65.6814 116.525C64.4632 116.525 64.4632 120.931 64.4632 120.931C64.4632 120.931 61.557 116.243 59.729 116.759C57.901 117.276 60.7604 122.009 60.7604 122.009C57.8542 119.014 56.0729 119.337 55.6513 120.181C55.2296 121.024 58.6461 124.352 58.6461 124.352C58.6461 124.352 55.8801 123.087 54.8966 123.462C53.9131 123.837 54.5684 125.008 56.3029 126.086C57.8674 127.059 70.0131 135.9 72.361 137.612C72.5683 136.602 72.8402 135.604 73.1421 134.617L73.1756 134.51C73.808 132.404 74.6092 130.352 75.5714 128.374C75.6553 128.203 75.7379 128.033 75.8254 127.863C72.9142 126.197 70.1619 124.268 67.6029 122.1C67.6029 122.1 66.8997 116.525 65.6814 116.525ZM112.962 135.264C115.039 136.083 117.855 135.321 119.722 134.279C120.342 133.99 120.851 133.505 121.169 132.899C121.487 132.293 121.598 131.6 121.484 130.925C121.466 130.652 121.437 130.38 121.397 130.11C121.397 130.071 121.359 129.871 121.319 129.613C121.852 128.682 122.154 127.636 122.198 126.564V124.983C122.198 124.983 124.553 123.928 124.201 122.241C123.849 120.554 121.459 120.624 120.721 122.241C120.603 121.414 120.335 120.615 119.929 119.884C117.79 120.218 114.382 117.459 114.382 117.459C114.37 117.909 114.265 118.352 114.073 118.759C113.881 119.167 113.607 119.53 113.267 119.826C112.904 120.149 112.435 120.327 111.95 120.327C111.464 120.327 110.995 120.149 110.632 119.826C110.288 121.679 108.043 125.728 106.998 125.662C106.951 125.658 106.899 125.645 106.859 125.623C106.354 125.483 104.593 125.093 104.023 126.355C103.355 127.832 104.69 129.66 107.643 128.99C108.182 130.131 109.008 131.114 110.039 131.841C110.166 132.141 110.318 132.471 110.458 132.766C110.652 133.171 110.818 133.505 110.873 133.577C111.383 134.337 112.112 134.925 112.962 135.264ZM111.359 126.18C111.437 126.156 111.52 126.153 111.599 126.171C111.793 126.217 111.99 126.246 112.189 126.259C112.731 126.31 113.276 126.313 113.819 126.267C115.476 126.146 117.044 125.468 118.266 124.342C118.484 124.139 118.962 124.187 119.011 124.54C119.09 125.115 119.116 125.696 119.091 126.276C119.077 127.108 118.909 127.93 118.593 128.7C118.563 128.77 118.534 128.839 118.499 128.907C118.28 129.345 117.957 129.721 117.557 130.003C117.158 130.285 116.695 130.463 116.21 130.522C115.189 130.7 114.139 130.544 113.215 130.078C113.006 129.971 112.808 129.846 112.622 129.704C112.164 129.336 111.787 128.876 111.515 128.356C111.243 127.835 111.081 127.263 111.039 126.677C111.039 126.654 111.032 126.625 111.031 126.602C111.024 126.552 111.027 126.502 111.039 126.454C111.052 126.405 111.074 126.36 111.105 126.321C111.136 126.281 111.174 126.248 111.218 126.224C111.261 126.2 111.31 126.185 111.359 126.18Z" fill="#FFC998"/>
<path id="Vector_11" d="M118.138 124.722C118.126 124.639 118.138 124.674 118.138 124.722V124.722ZM141.175 99.5378C141.184 99.6013 141.191 99.5378 141.175 99.5378V99.5378Z" fill="#FFC998"/>
<path id="Vector_12" d="M137.121 92.3046C137.121 92.2866 137.121 92.2878 137.121 92.3046C137.121 92.3214 137.136 92.3118 137.121 92.3046C137.153 92.3205 137.183 92.3457 137.213 92.3657C137.355 92.4168 137.503 92.4482 137.654 92.4591C138.29 92.5037 138.93 92.4712 139.558 92.3621C139.785 92.3273 140.01 92.2878 140.233 92.2423L140.506 92.1896L140.595 92.1728C140.766 92.1405 140.936 92.1033 141.107 92.0674L141.37 92.0135L141.409 92.0051C141.703 91.9404 141.996 91.8709 142.287 91.7955L142.345 91.7811C142.445 91.7549 142.551 91.7649 142.645 91.8094C142.738 91.8538 142.813 91.9298 142.856 92.0241C142.899 92.1183 142.907 92.2246 142.88 92.3244C142.852 92.4241 142.79 92.5109 142.704 92.5693C142.668 92.5987 142.627 92.6229 142.584 92.6412L142.544 92.658L142.501 92.6771C142.35 92.743 142.199 92.8101 142.049 92.8808C141.993 92.9071 141.938 92.9371 141.881 92.9634C141.749 93.0257 141.612 93.0904 141.481 93.1563C141.351 93.2222 141.212 93.3001 141.079 93.3731C140.972 93.4318 140.865 93.4869 140.76 93.548L140.697 93.5863C139.873 93.9607 139.18 94.5705 138.703 95.3389C138.642 95.473 138.616 95.6207 138.628 95.7678C138.628 95.6863 138.684 95.86 138.628 95.7821C138.686 95.8732 138.611 95.8085 138.701 95.872C138.627 95.8193 138.768 95.8935 138.773 95.9019C138.84 95.9267 138.91 95.9452 138.981 95.957C139.123 95.9739 139.267 95.9791 139.41 95.9726C140.117 95.9361 140.815 95.8069 141.488 95.5881C141.694 95.525 141.899 95.4571 142.102 95.3844C142.175 95.3593 142.249 95.3341 142.321 95.3066C142.534 95.2287 142.741 95.1472 142.947 95.067H142.962L143.256 94.9472C143.676 94.7759 144.003 95.4072 143.691 95.6935C143.599 95.7761 143.514 95.866 143.425 95.9522L143.413 95.963C143.227 96.1463 143.044 96.3332 142.867 96.526L142.776 96.6255C142.719 96.689 142.656 96.7453 142.604 96.8135C142.484 96.9537 142.356 97.0986 142.233 97.246C141.855 97.6851 141.542 98.1775 141.306 98.7075C141.2 98.9532 141.152 99.22 141.165 99.4873V99.5136C141.234 99.5136 141.324 99.5496 141.431 99.5472C142.04 99.5098 142.639 99.3751 143.205 99.1483C143.4 99.0776 143.592 99.0045 143.779 98.9351C143.865 98.9027 143.95 98.868 144.036 98.8344L144.058 98.826C144.261 98.7462 144.46 98.6631 144.657 98.5769C144.733 98.5433 144.811 98.5122 144.887 98.4774C145.215 98.3294 145.538 98.1692 145.855 97.9971C145.94 97.9516 146.026 97.9072 146.11 97.8593C146.212 97.8072 146.329 97.796 146.439 97.8279C146.549 97.8599 146.642 97.9327 146.7 98.0313C146.757 98.13 146.775 98.2469 146.749 98.3582C146.723 98.4694 146.656 98.5666 146.56 98.6296C146.327 98.7638 146.087 98.8907 145.842 99.0117L146.321 100.061C146.523 100.514 146.718 100.97 146.92 101.426C146.926 99.7507 146.841 98.0768 146.667 96.411C146.769 95.9997 146.802 95.5742 146.765 95.152C146.571 92.9179 146.046 89.8465 144.636 89.2188C144.642 89.2858 144.631 89.3532 144.604 89.4146C144.576 89.476 144.533 89.5294 144.48 89.5696C144.426 89.6098 144.362 89.6356 144.296 89.6444C144.229 89.6532 144.161 89.6448 144.099 89.62C143.12 89.3428 142.078 89.3925 141.13 89.7614C140.915 89.8285 140.705 89.9016 140.504 89.9746L140.486 89.9818L140.318 90.0441L140.263 90.0657C140.069 90.1399 139.872 90.2214 139.676 90.3053L139.656 90.3148C138.874 90.6346 138.156 91.0914 137.535 91.6637C137.499 91.6984 137.461 91.732 137.426 91.7679C137.309 91.8801 137.213 92.0118 137.141 92.1572C137.131 92.2017 137.118 92.2453 137.102 92.2878C137.135 92.2303 137.128 92.2722 137.121 92.3046Z" fill="#FFC998"/>
<path id="Vector_13" d="M126.325 233.353C125.799 229.613 124.413 226.045 122.276 222.931C120.688 220.676 118.714 218.719 116.445 217.151C116.383 217.113 116.31 217.092 116.236 217.092C116.163 217.092 116.09 217.113 116.027 217.151L110.67 221.216L109.911 221.792C109.879 221.816 109.852 221.844 109.828 221.876C109.764 221.936 109.722 222.017 109.71 222.104C109.699 222.191 109.717 222.28 109.763 222.355C110.605 223.793 111.532 225.18 112.538 226.508C114.723 229.514 117.242 232.261 120.046 234.698C121.852 236.265 123.83 237.622 125.941 238.744C126.005 238.779 126.076 238.797 126.148 238.796C126.22 238.795 126.291 238.776 126.354 238.74C126.416 238.703 126.468 238.652 126.505 238.59C126.542 238.527 126.562 238.457 126.563 238.384C126.689 236.704 126.609 235.014 126.325 233.353ZM74.7567 192.947C74.4518 192.818 74.1205 192.762 73.79 192.786L69.6692 192.755C68.9959 192.755 68.3239 192.747 67.6507 192.74C67.211 192.74 66.7199 192.695 66.5606 193.209C65.1457 198.027 64.6224 203.063 65.0165 208.069C65.1604 210.455 65.5739 212.818 66.2491 215.111C66.2683 215.181 66.305 215.244 66.3558 215.295C66.4066 215.346 66.4698 215.384 66.5391 215.403C66.6085 215.423 66.6817 215.424 66.7518 215.407C66.8219 215.39 66.8864 215.356 66.9391 215.307C68.2299 214.219 69.3828 212.977 70.3723 211.61C72.677 208.618 74.2568 205.133 74.9879 201.427C75.2657 199.942 75.3953 198.433 75.3748 196.922C75.3637 196.153 75.3165 195.386 75.2335 194.621C75.1736 194.067 75.3545 193.264 74.7567 192.947ZM125.701 176.193C125.659 175.624 124.766 175.62 124.808 176.193C124.951 178.936 124.836 181.687 124.467 184.409C124.15 187.161 123.727 189.9 123.199 192.619C123.088 193.18 123.947 193.419 124.061 192.859C124.877 188.861 125.419 184.812 125.685 180.741C125.792 179.227 125.797 177.708 125.701 176.193ZM115.253 163.13C114.918 165.302 113.908 167.313 112.367 168.88C111.489 169.716 110.419 170.323 109.252 170.648C109.085 170.694 108.918 170.732 108.748 170.768L108.649 170.785C108.097 170.853 108.096 171.73 108.663 171.675C109.436 171.576 110.186 171.343 110.879 170.986C112.438 170.208 113.736 168.992 114.613 167.486C115.347 166.211 115.855 164.819 116.115 163.371C116.223 162.807 115.363 162.566 115.253 163.13ZM65.9017 125.444C65.6072 125.202 65.3761 124.892 65.2285 124.54L65.1674 124.407L65.1386 124.336C65.0988 124.232 65.0617 124.126 65.0272 124.021C64.9236 123.679 64.8436 123.33 64.7877 122.977L64.7769 122.905L64.7673 122.831C64.7589 122.764 64.7517 122.696 64.7457 122.629C64.7325 122.501 64.7241 122.372 64.7206 122.244C64.7146 122.13 64.665 122.022 64.582 121.943C64.499 121.864 64.3888 121.82 64.2743 121.82C64.1598 121.82 64.0497 121.864 63.9667 121.943C63.8836 122.022 63.8341 122.13 63.8281 122.244C63.8436 122.752 63.911 123.258 64.0294 123.752C64.1834 124.639 64.619 125.453 65.2716 126.074C65.3565 126.155 65.4693 126.2 65.5867 126.2C65.704 126.2 65.8168 126.155 65.9017 126.074C65.9847 125.99 66.0312 125.877 66.0312 125.759C66.0312 125.641 65.9847 125.528 65.9017 125.444ZM117.69 122.485L117.641 122.51C117.641 122.51 117.651 122.512 117.69 122.485Z" fill="black"/>
<path id="Vector_14" d="M118.693 121.672C118.366 121.549 118.013 121.514 117.669 121.572C117.383 121.628 117.117 121.757 116.895 121.946C116.559 122.241 116.304 122.618 116.155 123.039C116.122 123.117 116.093 123.197 116.07 123.279C116.038 123.393 116.053 123.515 116.111 123.619C116.169 123.722 116.266 123.798 116.38 123.829C116.495 123.861 116.617 123.846 116.72 123.788C116.823 123.73 116.899 123.633 116.931 123.518C116.947 123.459 116.966 123.401 116.988 123.344L117.012 123.279L117.022 123.259C117.056 123.183 117.094 123.109 117.136 123.037C117.179 122.962 117.226 122.89 117.277 122.82L117.315 122.775C117.348 122.737 117.382 122.702 117.418 122.667C117.434 122.651 117.451 122.638 117.468 122.624C117.478 122.616 117.489 122.61 117.501 122.604L117.581 122.552C117.601 122.54 117.621 122.53 117.641 122.521C117.656 122.507 117.672 122.495 117.689 122.485L117.784 122.455C117.812 122.447 117.841 122.441 117.87 122.436C117.936 122.431 118.002 122.431 118.068 122.436H118.108C118.137 122.436 118.167 122.446 118.196 122.454C118.283 122.473 118.368 122.499 118.451 122.53C118.508 122.547 118.567 122.552 118.626 122.545C118.685 122.538 118.742 122.52 118.793 122.491C118.845 122.463 118.89 122.424 118.927 122.378C118.964 122.331 118.991 122.278 119.007 122.221C119.035 122.107 119.018 121.986 118.96 121.884C118.901 121.782 118.806 121.706 118.693 121.672ZM110.312 124.731C110.32 124.72 110.37 124.652 110.375 124.642L110.445 124.561C110.469 124.534 110.508 124.497 110.54 124.467L110.589 124.427L110.547 124.458C110.606 124.406 110.673 124.365 110.746 124.338H110.76L110.837 124.314C110.871 124.304 110.904 124.297 110.939 124.29C110.999 124.29 111.067 124.284 111.125 124.29C111.155 124.29 111.183 124.29 111.212 124.297H111.228C111.287 124.308 111.347 124.322 111.405 124.339C111.461 124.356 111.516 124.374 111.571 124.395C111.588 124.405 111.623 124.413 111.638 124.421C111.726 124.461 111.811 124.507 111.894 124.557C111.942 124.586 111.988 124.617 112.034 124.649C111.998 124.622 112.025 124.637 112.048 124.649C112.133 124.73 112.246 124.775 112.363 124.775C112.48 124.775 112.593 124.73 112.678 124.649C112.761 124.565 112.807 124.452 112.807 124.334C112.807 124.216 112.761 124.102 112.678 124.018C112.384 123.745 112.023 123.553 111.631 123.463C111.24 123.372 110.831 123.385 110.447 123.501C110.071 123.663 109.753 123.936 109.536 124.284C109.477 124.386 109.461 124.508 109.491 124.622C109.521 124.737 109.595 124.834 109.697 124.895C109.8 124.954 109.923 124.969 110.038 124.939C110.153 124.908 110.252 124.833 110.312 124.731Z" fill="black"/>
<path id="Vector_15" d="M112.076 124.661L112.042 124.639L112.125 124.698L112.076 124.661ZM116.385 132.418C114.842 132.788 113.232 132.766 111.7 132.354C111.527 132.301 111.361 132.231 111.204 132.143C111.074 132.073 110.948 131.995 110.828 131.909L110.769 131.859L110.69 131.786C110.553 131.616 110.647 131.745 110.69 131.786C110.627 131.687 110.529 131.615 110.416 131.585C110.302 131.556 110.182 131.57 110.079 131.627C109.977 131.687 109.904 131.784 109.874 131.899C109.844 132.013 109.861 132.134 109.92 132.236C110.158 132.533 110.461 132.77 110.805 132.931C111.717 133.356 112.714 133.568 113.721 133.553C114.696 133.555 115.67 133.461 116.627 133.272C117.185 133.175 116.947 132.315 116.385 132.418ZM154.55 34.1233C154.865 34.1943 155.194 34.1657 155.492 34.0415C155.79 33.9173 156.042 33.7035 156.213 33.4298C156.385 33.1562 156.466 32.8361 156.448 32.5138C156.429 32.1916 156.311 31.8831 156.109 31.6311C155.907 31.3791 155.632 31.196 155.322 31.1071C155.012 31.0182 154.681 31.0279 154.377 31.1349C154.072 31.2419 153.808 31.4409 153.622 31.7044C153.435 31.9679 153.335 32.2828 153.336 32.6055C153.3 32.967 153.407 33.328 153.634 33.6116C153.861 33.8952 154.19 34.0788 154.55 34.1233Z" fill="black"/>
<path id="Vector_16" d="M165.433 39.104C165.567 39.3971 165.84 39.6117 166.194 39.7007C166.548 39.7897 166.952 39.7458 167.319 39.5786C167.685 39.4114 167.984 39.1346 168.148 38.8091C168.313 38.4836 168.33 38.1361 168.197 37.843C168.063 37.5499 167.789 37.3352 167.435 37.2462C167.082 37.1572 166.677 37.2012 166.311 37.3684C165.944 37.5356 165.646 37.8124 165.481 38.1379C165.316 38.4634 165.299 38.8109 165.433 39.104Z" fill="black"/>
<path id="Vector_17" d="M165.254 43.3015C164.697 43.8056 164.075 44.2315 163.403 44.5677C162.318 45.1872 161.095 45.5226 159.846 45.5429C158.597 45.5633 157.363 45.2679 156.258 44.6841C155.154 44.1003 154.215 43.2471 153.528 42.2035C152.842 41.16 152.43 39.9599 152.331 38.7147C152.301 38.2189 152.315 37.7213 152.374 37.2281C152.4 37.0414 152.437 36.8563 152.483 36.6734C152.509 36.5612 152.491 36.4432 152.432 36.3441C152.373 36.2449 152.279 36.1723 152.168 36.1414C152.057 36.1105 151.938 36.1236 151.836 36.1781C151.735 36.2326 151.658 36.3243 151.623 36.4339C151.374 37.4657 151.341 38.5375 151.525 39.5827C151.708 40.628 152.105 41.6243 152.69 42.5097C153.889 44.2992 155.688 45.601 157.762 46.1801C159.588 46.629 161.513 46.4396 163.217 45.6434C164.197 45.2263 165.098 44.6472 165.885 43.9304C166.3 43.5411 165.667 42.905 165.254 43.3015ZM131.217 152.502C129.266 152.34 127.301 152.539 125.421 153.088C123.433 153.566 121.48 154.177 119.574 154.917C119.357 155 119.14 155.088 118.923 155.171C118.068 155.505 117.216 155.854 116.367 156.217C113.728 157.316 111.197 158.659 108.808 160.229C107.412 161.168 105.657 162.246 105.517 164.095C105.468 164.441 105.489 164.795 105.579 165.133C105.669 165.471 105.827 165.788 106.042 166.064C106.257 166.341 106.526 166.571 106.833 166.741C107.139 166.91 107.476 167.017 107.824 167.053C107.879 167.058 107.935 167.052 107.987 167.034C108.039 167.016 108.087 166.987 108.127 166.95C108.167 166.912 108.199 166.867 108.221 166.816C108.242 166.765 108.253 166.711 108.252 166.656C108.258 166.595 108.252 166.533 108.233 166.475C108.215 166.417 108.185 166.363 108.145 166.316C108.105 166.27 108.056 166.232 108.001 166.206C107.946 166.179 107.886 166.164 107.824 166.161C106.746 166.105 106.286 164.918 106.423 163.971C106.548 163.357 106.884 162.806 107.374 162.414C107.999 161.865 108.667 161.367 109.372 160.925C109.903 160.566 110.45 160.236 110.998 159.91C113.573 158.428 116.259 157.149 119.032 156.083C120.757 155.386 122.519 154.786 124.31 154.286C126.003 153.775 127.746 153.449 129.509 153.316C130.307 153.287 131.105 153.364 131.882 153.547C133.423 153.912 134.877 154.745 134.757 156.357C134.643 157.18 134.293 157.952 133.75 158.581C133.333 159.165 132.779 159.639 132.136 159.959C132.103 159.973 132.072 159.992 132.043 160.013C132.017 160.031 131.995 160.053 131.976 160.078C128.343 161.027 124.648 161.724 120.919 162.164C117.91 162.563 114.891 162.875 111.861 163.099C111.502 163.127 111.143 163.151 110.783 163.176C110.562 163.191 110.341 163.209 110.12 163.223C110.025 163.231 109.936 163.268 109.863 163.329C109.791 163.39 109.739 163.472 109.714 163.563C109.69 163.655 109.694 163.751 109.726 163.84C109.758 163.93 109.817 164.007 109.894 164.061C109.964 164.098 110.042 164.115 110.12 164.109C110.321 164.097 110.522 164.081 110.719 164.068C112.211 163.97 113.701 163.839 115.189 163.697C118.817 163.348 122.439 162.904 126.029 162.279C127.971 161.95 129.898 161.536 131.803 161.038C131.891 161.014 131.978 160.993 132.064 160.969L132.21 160.932C132.312 160.907 132.4 160.844 132.457 160.757C132.501 160.753 132.544 160.741 132.584 160.724C133.239 160.394 133.812 159.923 134.261 159.344C134.881 158.655 135.326 157.827 135.559 156.93C135.673 156.471 135.678 155.991 135.574 155.529C135.47 155.067 135.26 154.636 134.96 154.271C133.959 153.259 132.634 152.633 131.217 152.502ZM75.8473 127.829L75.8305 127.865C75.7431 128.035 75.6604 128.205 75.5766 128.376C74.6143 130.354 73.8131 132.406 73.1807 134.512L73.1472 134.619C72.8416 135.605 72.581 136.604 72.3662 137.613L72.329 137.781C72.3097 137.88 72.3228 137.981 72.3663 138.072C72.4099 138.162 72.4816 138.236 72.5707 138.281C72.6597 138.327 72.7613 138.343 72.8601 138.326C72.9589 138.31 73.0496 138.261 73.1185 138.188C73.1544 138.138 73.1789 138.08 73.1903 138.018C73.8782 134.631 75.0303 131.354 76.614 128.282C76.8751 127.768 76.1097 127.319 75.8473 127.829ZM146.806 113.065C146.762 113.064 146.718 113.07 146.675 113.083C145.953 113.292 145.213 113.436 144.465 113.513C143.382 113.62 142.292 113.654 141.204 113.612C140.592 113.594 139.981 113.561 139.37 113.513C138.474 113.446 137.579 113.349 136.687 113.224C136.392 113.183 136.097 113.137 135.803 113.086H135.785C135.223 112.986 134.982 113.846 135.545 113.946L135.58 113.952C138.28 114.454 141.031 114.626 143.773 114.465C144.753 114.408 145.726 114.255 146.677 114.007C146.753 113.986 146.832 113.97 146.916 113.946C147.018 113.916 147.106 113.85 147.165 113.761C147.223 113.672 147.248 113.565 147.234 113.459C147.221 113.353 147.171 113.255 147.092 113.183C147.014 113.111 146.912 113.069 146.806 113.065ZM111.044 126.677C111.086 127.263 111.248 127.834 111.52 128.355C111.792 128.876 112.169 129.335 112.627 129.704C112.813 129.845 113.012 129.971 113.22 130.077C114.144 130.544 115.195 130.699 116.215 130.522C116.7 130.463 117.163 130.284 117.563 130.003C117.962 129.721 118.286 129.344 118.504 128.907C118.539 128.839 118.569 128.769 118.599 128.7C118.914 127.93 119.083 127.107 119.096 126.275C119.121 125.695 119.093 125.114 119.014 124.539C118.965 124.18 118.487 124.138 118.269 124.342C117.046 125.467 115.479 126.146 113.821 126.267C113.279 126.313 112.734 126.31 112.192 126.258C111.993 126.246 111.796 126.217 111.602 126.171C111.522 126.152 111.44 126.155 111.362 126.179C111.312 126.184 111.264 126.199 111.22 126.224C111.176 126.248 111.138 126.28 111.107 126.32C111.076 126.359 111.054 126.404 111.041 126.453C111.028 126.501 111.025 126.552 111.033 126.601C111.033 126.625 111.036 126.654 111.044 126.677ZM118.145 124.722C118.133 124.639 118.145 124.674 118.145 124.722V124.722ZM118.196 125.552C118.196 125.63 118.207 125.707 118.207 125.791C118.228 126.513 118.137 127.233 117.938 127.927C117.823 128.331 117.621 128.705 117.348 129.024C117.161 129.237 116.925 129.402 116.66 129.504C116.065 129.717 115.425 129.776 114.8 129.675C114.386 129.617 113.985 129.488 113.615 129.293C113.212 129.069 112.862 128.762 112.586 128.392C112.311 128.023 112.117 127.599 112.018 127.148C114.206 127.42 116.414 126.849 118.196 125.552ZM108.034 118.411C108.104 118.425 108.176 118.421 108.243 118.4C108.311 118.38 108.373 118.342 108.422 118.291L108.782 117.932C108.901 117.812 109.021 117.717 109.141 117.617L109.225 117.548L109.234 117.541L109.276 117.509L109.245 117.533L109.255 117.526C109.317 117.479 109.382 117.433 109.448 117.391C109.51 117.352 109.574 117.316 109.641 117.284H109.651C109.682 117.274 109.713 117.267 109.745 117.261L109.674 117.27C109.763 117.267 109.848 117.236 109.919 117.181C109.989 117.127 110.041 117.052 110.067 116.967C110.084 116.923 110.092 116.876 110.091 116.828C110.09 116.711 110.042 116.598 109.959 116.515C109.876 116.431 109.763 116.384 109.645 116.383C109.547 116.394 109.45 116.415 109.357 116.448C109.086 116.557 108.836 116.711 108.616 116.903C108.377 117.095 108.149 117.3 107.934 117.518L107.792 117.663C107.749 117.712 107.716 117.769 107.695 117.831C107.675 117.893 107.667 117.958 107.672 118.023C107.677 118.123 107.72 118.218 107.792 118.289C107.86 118.351 107.944 118.393 108.034 118.411Z" fill="black"/>
<path id="Vector_18" d="M109.219 117.554L109.242 117.536L109.228 117.547L109.219 117.554ZM136.821 93.1647C137.704 93.4524 138.651 93.486 139.552 93.2617C138.911 93.6468 138.372 94.181 137.981 94.819C137.856 94.9849 137.774 95.1786 137.742 95.3833C137.71 95.5881 137.728 95.7976 137.795 95.9938C137.861 96.19 137.975 96.3669 138.126 96.5091C138.277 96.6514 138.46 96.7546 138.66 96.8099C139.61 96.9453 140.579 96.8403 141.479 96.5044C141.57 96.4793 141.658 96.4469 141.749 96.4206C141.202 97.0357 140.762 97.7382 140.447 98.499C140.208 99.1351 140.114 100.144 140.926 100.387C141.772 100.501 142.633 100.373 143.408 100.018C143.486 99.9928 143.564 99.9628 143.648 99.9353C143.929 99.8386 144.209 99.7348 144.487 99.6238L144.549 99.5999C144.717 99.5328 144.884 99.4669 145.05 99.395C145.162 99.3471 145.27 99.2932 145.38 99.2417C145.542 99.1686 145.702 99.0955 145.859 99.0165C146.099 98.8967 146.339 98.7685 146.578 98.6343C146.673 98.5713 146.741 98.4742 146.767 98.3629C146.793 98.2517 146.775 98.1347 146.717 98.0361C146.66 97.9375 146.567 97.8647 146.457 97.8327C146.347 97.8007 146.229 97.8119 146.128 97.8641C146.044 97.912 145.958 97.9563 145.873 98.0018C145.558 98.1768 145.235 98.3371 144.905 98.4822C144.829 98.5169 144.751 98.5481 144.675 98.5816C144.474 98.6679 144.275 98.7509 144.076 98.8308L144.054 98.8392C143.968 98.8727 143.883 98.9075 143.797 98.9398C143.61 99.0093 143.418 99.0824 143.223 99.153C142.657 99.3799 142.058 99.5146 141.449 99.552C141.342 99.552 141.252 99.5148 141.183 99.5184V99.492C141.17 99.2247 141.218 98.958 141.324 98.7122C141.56 98.1823 141.872 97.6899 142.251 97.2507C142.371 97.1034 142.491 96.9585 142.621 96.8183C142.677 96.7548 142.741 96.6985 142.794 96.6302L142.885 96.5308C143.062 96.3379 143.244 96.1511 143.431 95.9678L143.443 95.957C143.532 95.8707 143.617 95.7809 143.709 95.6983C144.021 95.412 143.694 94.7806 143.274 94.9519L142.98 95.0717H142.965C142.759 95.1544 142.552 95.2359 142.339 95.3113C142.267 95.3389 142.193 95.364 142.12 95.3892C141.917 95.4611 141.713 95.5289 141.506 95.5928C140.833 95.8116 140.134 95.9409 139.428 95.9774C139.285 95.9839 139.141 95.9787 138.999 95.9618C138.928 95.9499 138.858 95.9315 138.791 95.9067C138.791 95.8983 138.644 95.824 138.719 95.8767C138.629 95.8132 138.704 95.8767 138.646 95.7869C138.696 95.8648 138.636 95.6911 138.646 95.7725C138.634 95.6255 138.66 95.4778 138.721 95.3437C139.198 94.5753 139.891 93.9654 140.714 93.5911L140.778 93.5528C140.883 93.4917 140.99 93.433 141.097 93.3779C141.229 93.3048 141.364 93.2305 141.499 93.1611C141.634 93.0916 141.76 93.0305 141.892 92.9682C141.948 92.9418 142.011 92.9119 142.067 92.8855C142.217 92.8149 142.368 92.7478 142.518 92.6819L142.562 92.6627L142.602 92.646C142.645 92.6277 142.686 92.6035 142.722 92.5741C142.808 92.5156 142.87 92.4289 142.897 92.3291C142.925 92.2294 142.917 92.123 142.874 92.0288C142.831 91.9346 142.756 91.8586 142.663 91.8141C142.569 91.7697 142.463 91.7597 142.363 91.7859L142.305 91.8002C142.014 91.8757 141.721 91.9452 141.427 92.0099L141.388 92.0183L141.125 92.0722C140.954 92.1081 140.784 92.1452 140.613 92.1776L140.524 92.1943L140.251 92.2471L139.576 92.3668C138.948 92.4759 138.308 92.5085 137.672 92.4639C137.521 92.453 137.373 92.4215 137.231 92.3704C137.201 92.3505 137.17 92.3325 137.139 92.3165C137.153 92.3237 137.155 92.3237 137.139 92.3165C137.124 92.3093 137.139 92.295 137.139 92.3165C137.146 92.2842 137.153 92.2351 137.128 92.3022C137.144 92.2597 137.157 92.216 137.167 92.1716C137.239 92.0262 137.335 91.8944 137.452 91.7823C137.487 91.7463 137.526 91.7128 137.561 91.678C138.182 91.1058 138.9 90.649 139.682 90.3292L139.702 90.3196C139.899 90.2345 140.095 90.1531 140.289 90.08L140.344 90.0585L140.512 89.9962L140.53 89.989C140.731 89.9159 140.941 89.8428 141.156 89.7757C142.104 89.4068 143.146 89.3572 144.125 89.6344C144.187 89.6592 144.255 89.6676 144.322 89.6587C144.389 89.6499 144.452 89.6242 144.506 89.5839C144.56 89.5437 144.602 89.4903 144.63 89.4289C144.657 89.3675 144.669 89.3001 144.663 89.2331C144.669 89.1344 144.643 89.0363 144.589 88.9536C144.535 88.8709 144.455 88.808 144.362 88.7743C143.146 88.4432 141.855 88.5207 140.688 88.9947C140.607 89.0199 140.527 89.0474 140.448 89.0774C140.408 89.0905 140.367 89.1061 140.329 89.1205L140.173 89.1768L139.841 89.2966C139.727 89.3421 139.612 89.3876 139.498 89.4355C139.446 89.4571 139.394 89.4823 139.343 89.505C138.468 89.87 137.662 90.3816 136.959 91.018C136.93 91.0458 136.902 91.0746 136.875 91.1042C136.283 91.6972 135.842 92.7106 136.821 93.1647ZM141.18 99.5376C141.189 99.6011 141.196 99.5376 141.18 99.5376V99.5376ZM137.128 92.3022L137.122 92.3249L137.104 92.3153L137.128 92.3022Z" fill="black"/>
<path id="Vector_19" d="M122.257 20.0142C118.603 20.8827 117.466 27.1155 117.466 27.1155C117.466 27.1155 110.318 21.4122 107.523 28.5937C104.728 35.7752 122.607 39.3342 122.607 39.3342C132.611 24.3124 125.912 19.1457 122.257 20.0142Z" fill="#F55555"/>
</g>
</svg>
